<?xml version="1.0" encoding="UTF-8"?>
<svg version="1.1" viewBox="0 0 2048 2048" width="512" height="512" xmlns="http://www.w3.org/2000/svg">
<path transform="translate(1392)" d="m0 0h17l20 11 35 21 7 6 6 10 3 7 2 13v1437l-3 21-5 16-8 19-10 16-10 11-5 5-8 7-22 13-28 16-24 14-28 16-24 14-28 16-24 14-52 30-28 16-24 14-52 30-24 14-28 16-52 30-24 14-28 16-24 14-28 16-24 14-28 16-24 14-28 16-24 14-52 30-49 28-8 3h-14l-14-7-16-10-25-15-10-9-7-14-2-9v-1448l4-20 7-19 11-21 11-14 10-10 10-7 52-30 24-14 26-15 28-16 24-14 52-30 28-16 24-14 97-56 24-14 23-13 24-14 312-180 24-14z" fill="#FAFAFC"/>
<path transform="translate(587,492)" d="m0 0 12 2 8 6 9 6 9 4 2 3v7l-7 20-4 18-2 28v901l1 505 2 27 3 11 3 6-1 2-14-8-23-14-10-9-7-14-2-9v-1448l4-20 7-19 7-3z" fill="#A990EF"/>
<path transform="translate(933,1380)" d="m0 0h12l16 4 12 6 8 6 5 4 10 13 8 17 4 12 3 12 2 19v34l-3 24-4 19-8 28-10 25-12 25-11 19-11 16-11 14-13 15-8 8-14 11-10 7-16 9-15 6-12 3-8 1h-10l-16-4-12-6-11-9-10-12-6-10-6-15-5-22-2-16v-34l4-26 6-25 7-23 10-24 8-16 9-17 16-24 9-11 11-13 13-13 14-11 19-13 15-7 14-4z" fill="#FD4C59"/>
<path transform="translate(1359,305)" d="m0 0h9l7 4 4 6 3 10v13l-4 16-5 12-9 13-10 9-22 13-25 14-24 14-25 14-17 10-21 12-26 15-77 44-26 15-49 28-26 15-28 16-26 15-28 16-24 14-18 10-24 14-25 14-19 11-26 15-14 8-15 8-3 1h-9l-5-2v-2l-3-1-5-9-1-4v-14l4-17 8-17 9-11 12-9 25-14 21-12 24-14 21-12 24-14 27-15 17-10 49-28 26-15 16-9 13-8 11-6 23-13 26-15 23-13 24-14 16-9 34-20 11-6 21-12 26-15 16-9 15-9 11-6 15-9 11-6 14-8 18-10z" fill="#43376B"/>
<path transform="translate(1353,646)" d="m0 0 3 1v401l-25 15-26 15-21 12-9 5h-2v-401l8-6 34-20 25-14z" fill="#57AAFD"/>
<path transform="translate(1035,672)" d="m0 0h10l6 4 5 8 2 10v9l-4 18-8 16-6 8-4 5-13 9-23 13-26 15-84 48-26 15-28 16-24 14-28 16-15 8-3 1h-9l-8-5-5-10-1-4v-14l4-16 4-9 6-11 9-10 10-7 23-13 24-14 25-14 24-14 23-13 24-14 23-13 24-14 25-14 22-13 16-9z" fill="#43376B"/>
<path transform="translate(1229,839)" d="m0 0 3 1v279l-5 4-25 15-26 15-24 14-4-1v-36l1-244 14-9 52-30z" fill="#00DAB0"/>
<path transform="translate(855,1055)" d="m0 0h2v281l-10 7-28 16-41 24h-3v-280l7-6 24-14 28-16 15-9z" fill="#02D9B1"/>
<path transform="translate(1340,1202)" d="m0 0 6 1 6 5 3 7v18l-4 12-6 11-9 10-14 9-28 16-52 30-24 14-49 28-24 14-45 26-15 8h-10l-7-6-2-5-1-12 2-11 5-13 6-9 8-8 18-11 56-32 52-30 17-10 52-30 24-14 26-15z" fill="#43376B"/>
<path transform="translate(1340,1316)" d="m0 0 6 1 6 5 3 8v16l-4 13-6 11-9 10-16 10-78 45-14 8-24 14-23 13-24 14-52 30-16 9-5 2h-8l-5-3-4-5-1-3v-18l4-14 7-12 4-5 13-9 26-15 28-16 52-30 24-14 28-16 24-14 26-15 24-14 10-5z" fill="#43376B"/>
<path transform="translate(978,1064)" d="m0 0h4v201l-8 5-28 16-24 14-16 9-6 2-1-40v-160l4-4 18-10 13-8 18-10 14-8z" fill="#FDE04C"/>
<path transform="translate(933,1380)" d="m0 0h12l16 4 12 6 8 6 5 4 10 13 8 17 4 12 3 12 2 19v16l-21 11-17 10-35 20-24 14-14 8-6 4h-4l-1-4-1-156 17-9 17-5z" fill="#FDE04C"/>
<path transform="translate(1103,1042)" d="m0 0h4v151l-24 14-56 32h-3v-151l16-10 25-14 24-14z" fill="#FD4E59"/>
</svg>
