<?xml version="1.0" encoding="UTF-8"?>
<svg version="1.1" viewBox="0 0 2048 2048" width="512" height="512" xmlns="http://www.w3.org/2000/svg">
<path transform="translate(1133,186)" d="m0 0 6 2 46 27 22 13 24 14 22 13 26 15 25 15 26 15 24 14 15 9 26 15 25 15 21 12 28 17 12 7 1 4-6 44-10 76-14 104-8 59-6 48-10 75-1 9-1 2 5 2 27 15 25 14 28 16 27 15 15 9 1 2v659l-15 10-22 14-6 4-5-2-16-12-18-13-6-4-1-254v-274l-24 14-27 15-24 14-27 15-70 40-25 14-24 14-27 15-21 12-19 11 1 1 1 149 28-17 21-12 30-18 7-4 5 2 11 7 22 13 2 1 1 4v24l-8 6-32 19-28 17-20 12-11 6h-2l15 8 24 14 27 15 21 12 26 15 7 4 1 4v24l-5 4-26 14-12 7-7-3-26-15-111-65-1-17v14l-1 3-51 30-32 19-7 4-1 357-7 6-18 11-15 10-4 2-12-7-23-15-9-6-1-588-19-11-28-16-26-15-41-24-9-5v122l-8 6-32 19-28 17-32 19-28 17-32 19-28 17-32 19-28 17-32 19-28 17-32 19-28 17-25 15-7 4-11-6-106-62-29-17-27-16-26-15-27-16-26-15-27-16-26-15-23-14-1-592-24-14-25-14-6-4v-88l9-6 27-15 24-14 25-14 24-14 25-14 24-14 27-15 17-10 25-14 24-14 25-14 42-24 26-15 23-13 26-15 46-26 21-12 26-15 25-14 17-10 10-6 5 1 21 12 24 14 26 15 72 42 26 15 24 14 26 15 27 16 28 16 19 11 48 28 26 15 48 28 2 1 4-24 24-129 19-102 16-86 4-5 17-11zm333 211m-2 1m-94 4m10 6m10 6m20 12m-324 188m7 4m21 12m10 6m9 5m-1064 4m2 1m1070 0m2 1m-1066 3m1071 0m-1069 1m2 1m1071 0m-1068 2m1071 0m-1067 2m1 1m2 1m1071 0m-1066 3m2 1m1071 0m2 1m-1070 1m1075 2m-1068 2m2 1m1071 0m-1070 1m1072 0m5 3m-1070 1m1072 0m3 2m-1068 2m3 2m1072 0m-1070 1m1072 0m-1065 4m1072 0m-1071 1m1072 0m-1065 4m1072 0m2 1m-1069 2m2 1m1072 0m4 2m-1071 1m1074 1m-1066 4m1073 0m-1071 1m5 3m1073 0m-1069 2m3 2m1078 3m-1071 1m1080 4m-1070 2m1080 4m-1070 2m7 4m1073 0m-1070 2m1077 2m-1068 3m1 1m1074 0m-1067 4m1074 0m-1072 1m5 3m1074 0m-1070 2m1 1m2 1m3 2m1074 0m-1072 1m1 1m2 1m2 1m1076 1m-1220 1m147 0m-146 1m148 0m-146 1m148 0m3 2m-142 3m147 0m-145 1m147 0m-144 2m147 0m-145 1m147 0m-145 1m147 0m-146 1m2 1m147 0m1076 0m-1221 1m147 0m1075 0m-1221 1m1222 0m-1220 1m2 1m147 0m-145 1m147 0m-146 1m147 0m2 1m-145 1m2 1m1 1m147 0m-145 1m147 0m1 1m-145 1m147 0m-145 1m147 0m-145 1m1 1m2 1m147 0m-145 1m147 0m3 2m-145 1m147 0m-146 1m147 0m2 1m-145 1m147 0m-145 1m1 1m147 0m-145 1m147 0m-145 1m147 0m-146 1m147 0m-145 1m147 0m-145 1m2 1m1 1m147 0m-145 1m147 0m1 1m2 1m-145 1m147 0m-145 1m146 0m2 1m-145 1m147 0m-145 1m147 0m-145 1m146 0m2 1m-145 1m147 0m-145 1m147 0m1 1m2 1m-145 1m2 1m146 0m-145 1m147 0m2 1m1 1m2 1m-145 1m147 0m-145 1m3 2m147 0m-145 1m146 0m2 1m-144 1m146 0m-145 1m2 1m146 0m2 1m1 1m-144 1m146 0m-144 1m146 0m-145 1m147 0m-145 1m147 0m1 1m-145 1m147 0m-145 1m2 1m146 0m2 1m-145 1m146 0m2 1m-144 1m146 0m2 1m-145 1m146 0m2 1m2 1m1 1m-144 1m146 0m2 1m-145 1m147 0m-145 1m146 0m-144 1m146 0m2 1m1 1m-144 1m146 0m2 1m1 1m-144 1m146 0m2 1m-145 1m2 1m146 0m-144 1m146 0m2 1m-145 1m146 0m2 1m-144 1m146 0m1 1m-144 1m146 0m2 1m1 1m2 1m-144 1m146 0m5 3m-144 1m146 0m-143 2m146 0m-144 1m146 0m1 1m2 1m2 1m-144 1m145 0m-144 1m146 0m2 1m2 1m1 1m-144 1m146 0m-144 1m149 2m-144 1m146 0m1 1m-143 1m145 0m-144 1m146 0m-144 1m145 0m2 1m2 1m-144 1m2 1m145 0m-142 2m7 4m2 1m5 3m2 1m1 1m7 4m2 1m3 2m2 1m5 3m2 1m3 2m2 1m1 1m2 1m2 1m3 2m2 1m2 1m9 6 1 2 2-1zm1 5m28 11m7 4m2 1m2 1m3 2m2 1m2 1m3 2m4 2m2 1m1 1m7 4m2 1m2 1m3 2m2 1m2 1m1e3 1 1 2zm-998 1m4 2m2 1m1 1m7 4m2 1m2 1m3 2m2 1m2 1m2 1m1 1m4 2m2 1m1 1m4 2m2 1m1 1m2 1m2 1m3 2m2 1m2 1m2 1m5 3m2 1m1 1m-141 2v274h1v-274zm145 0m3 2m2 1m2 1m3 2m4 2m2 1m7 4m152 5m12 7m8 5m399 39m-328 3m10 6m20 12m20 12m214 3m-207 1m20 12m159 3m-147 4m10 6m5 3m5 3m2 1m95 0m-88 4m3 2m7 4m196 3m-3 2m-183 1m181 0m-5 3m-166 3m161 0m-2 1m-156 1m155 0m-6 3m-143 1v119h1l1-41-1-78zm136 4-2 2h2v193l2-1-1-194zm-4 2m-2 1m-1 1m-2 1m-3 2m-2 1m-3 2m-2 1m-22 13-16 9-28 15-8 5 2 1v39l8 5 29 15 12 6 1 1 1 47h1v-143zm-127 31m70 0m-2 1m-6 3m-54 1m53 0m-51 1m49 0m-48 1m46 0m-44 1m42 0m-2 1m-37 1m31 2m-26 1m1 1m2 1m2 1m301 34m-4 2m-2 1m-2 1m-1 1m-3 1m-1 1m-4 2m-2 1m-1 1m233 0v174h1v-174zm-235 1m-2 1m-2 1m-1 1m-2 1m-2 1m-2 1m-1 1m-2 1m-2 1m-2 1m-2 1m-3 2m-74 1v38l2-1-1-37zm72 0m-3 2m-2 1m-2 1m-1 1m-4 2m-2 1m-2 1m-2 1m-184 1 4 4 2-1-4-3zm183 0m-229 1v310h1l1-310zm227 0m-2 1m-2 1m-171 1m170 0m-168 1 3 3 2-1zm165 0m-1 1m-159 2 3 3 2-1zm154 1m-2 1m-147 1m145 0m-143 1 4 4 6 2-3-3-5-3zm141 0m-2 1m-1 1m-2 1m-2 1m-2 1m-122 1 3 3 4 1-3-3zm121 0m-2 1m-2 1m-2 1m-108 1 1 2 3-1zm4 2m99 0m-98 1m96 0m-140 1 1 33 11-6 16-10 1-2-14-7-13-8zm46 0m93 0m-91 1m88 0m-86 1 1 2h2v-2zm83 0-1 2 3-1zm-80 2m1 1m-8 1m10 0m-12 1m82 0m-84 1m17 0m66 0m15 0m-100 1m21 0m62 0m19 0m-104 1m25 0m81 0m-108 1m29 0m55 0m26 0m-111 1m31 0m52 0m29 0m-114 1m35 0m81 0m-34 1m36 0m-79 1m41 0m39 0m-79 1m39 0m42 0m-79 1m81 0m-79 1m31 0m-1 1m-27 1m25 0m-23 1m5 3m0 7m11 0m-13 1m15 0m-21 3m-1 1m29 0m-32 2m36 0m-38 1m39 0m2 1m-46 2m-2 1m53 0m-55 1m57 0m1 1m-61 1m63 0m-65 1m67 0m-68 1m69 0m2 1m-75 1m77 0m-78 1m79 0m-81 1m83 0m-85 1m87 0m-88 1m90 0m-92 1m93 0m-95 1m97 0m-99 1m101 0m-102 1m103 0m-105 1m107 0m-109 1m111 0m1 1m-115 1m117 0m-119 1m121 0m-122 1m124 0m-126 1m127 0m-129 1m131 0m-132 1m134 0m-136 1m137 0m-139 1m141 0m-142 1m144 0m-146 1m148 0m-150 1m151 0m2 1m2 1m1 1m2 1m-166 1m168 0m-170 1m172 0m-174 1m175 0m-177 1m179 0m-180 1m182 0m2 1m1 1m2 1m1 1m2 1m2 1m2 1m1 1m2 1m2 1m2 1m70 0m-69 1m67 0m-65 1m63 0m-61 1m58 0m-57 1m56 0m-54 1m52 0m-50 1m48 0m-46 1m44 0m-43 1m41 0m-39 1m2 1m34 0m-33 1m31 0m-29 1m2 1m2 1m1 1m2 1m2 1m4 3v22h1v-22zm-848 22v32h1v-32zm849 2 1 2zm227 40v22h1v-22zm-508 133v88h1v-88zm0 149m0 3v29h1v-29z" fill="#64D0E5"/>
<path transform="translate(106,755)" d="m0 0 6 2v2l6 1 9 5v2l5 1 4 3 3 1 3 3 4 1 1 2 6 2 3 3 5 2 4 3 3 1v2l5 1 3 3 12 7 4 1 3 3 5 2 10 6 11 6 1 2 7 3 9 5 4 3 1 2 5 1 4 3 6 3 10 6 9 5 7 4v2l5 1 20 12 9 5 20 12h2v2l6 2 8 5 5 4 5 2 15 9 6 3 2 2 6 3 9 5 5 3v2l5 1 2 2 8 4 12 7v2l5 1 2 1v2l6 2 9 6 6 2 3 3 25 14 9 4 3 3 4 1v2l5 2 14 8h2l3 3 4 1v2l7 2 8 6 6 2 3 3 4 1v2l5 2 17 10 8 3 3 3 25 14 24 14 20 11 24 14 25 14 70 40 26 15 23 13 2 2v122l-8 6-32 19-28 17-32 19-28 17-32 19-28 17-32 19-28 17-32 19-28 17-32 19-28 17-25 15-7 4-11-6-106-62-29-17-27-16-26-15-27-16-26-15-27-16-26-15-23-14zm150 87m14 8m27 16m41 24m7 4m75 44m14 13m-1 77v274h1v-274zm0 472v32h1v-32z" fill="#FDAF38"/>
<path transform="translate(1552,883)" d="m0 0h2v659l-15 10-22 14-6 4-5-2-16-12-18-13-6-4-1-254v-274l-24 14-27 15-24 14-27 15-70 40-25 14-24 14-27 15-21 12-19 11 1 1 1 149 28-17 21-12 30-18 7-4 5 2 11 7 22 13 2 1 1 4v24l-8 6-32 19-28 17-20 12-11 6h-2l15 8 24 14 27 15 21 12 26 15 7 4 1 4v24l-5 4-26 14-12 7-7-3-26-15-111-65-1-17v14l-1 3-51 30-32 19-7 4-1 357-7 6-18 11-15 10-4 2-12-7-23-15-9-6v-587l5 2 7 4 4 2v2l5 1 2 2 1 2 5 1 5 4 3 1 4 4h3l-1-79 12-5 3-3 8-3 15-9 29-16 19-11 5-3h2v-2l7-2v-2l15-7 1-2 7-2v-2l7-2v-2l9-3v-2l7-3 6-3 1-2 7-2v-2l7-3 27-15 13-7 1-2 7-2v-2l7-2v-2l9-3v-2l7-3 4-1v-2h3v-2l9-3v-2l9-3v-2l12-6h2v-2l7-2v-2l15-7 1-2 7-2v-2l7-2v-2l7-2v-2l9-3v-2l4-2h3v-2l7-3 16-9h2v-2l7-3 5-3h2v-2l15-7 1-2 6-2 1-2 7-2v-2l14-7h2v-2l6-2 1-2 7-3 9-5h2v-2l6-2 1-2 7-3 4-2 3-3 7-2v-2l7-3 6-3 1-2 7-2v-2l7-2v-2l8-3 1-2 6-2 1-2 6-2 3-3 7-2v-2zm-43 106 1 2zm-341 190m-3 2m-2 1m-5 3m-5 3m-2 1m-1 1m-6 3m-7 5-2 2h2v193l2-1-1-194zm-4 2m-2 1m-1 1m-2 1m-3 2m-2 1m-3 2m-2 1m-22 13-16 9-28 15-8 5 2 1v39l8 5 29 15 12 6 1 1 1 47h1v-143zm-57 31m-2 1m-6 3m-1 1m-2 1m-2 1m-2 1m-2 1m-6 3m280 38m-4 2m-2 1m-2 1m-1 1m-3 1m-1 1m-4 2m-2 1m-1 1m233 0v174h1v-174zm-235 1m-2 1m-2 1m-1 1m-2 1m-2 1m-2 1m-1 1m-2 1m-2 1m-2 1m-2 1m-3 2m-74 1v38l2-1-1-37zm72 0m-3 2m-2 1m-2 1m-1 1m-4 2m-2 1m-2 1m-2 1m-184 1 4 4 2-1-4-3zm183 0m-229 1v310h1l1-310zm227 0m-2 1m-2 1m-171 1m170 0m-168 1 3 3 2-1zm165 0m-1 1m-159 2 3 3 2-1zm154 1m-2 1m-147 1m145 0m-143 1 4 4 6 2-3-3-5-3zm141 0m-2 1m-1 1m-2 1m-2 1m-2 1m-122 1 3 3 4 1-3-3zm121 0m-2 1m-2 1m-2 1m-108 1 1 2 3-1zm4 2m99 0m-98 1m96 0m-140 1 1 33 11-6 16-10 1-2-14-7-13-8zm46 0m93 0m-91 1m88 0m-86 1 1 2h2v-2zm83 0-1 2 3-1zm-80 2m1 1m-8 1m10 0m-12 1m82 0m-84 1m17 0m66 0m15 0m-100 1m21 0m62 0m19 0m-104 1m25 0m81 0m-108 1m29 0m55 0m26 0m-111 1m31 0m52 0m29 0m-114 1m35 0m81 0m-34 1m36 0m-79 1m41 0m39 0m-79 1m39 0m42 0m-79 1m81 0m-79 1m31 0m-1 1m-27 1m25 0m-23 1m5 3m0 7m11 0m-13 1m15 0m-21 3m-1 1m29 0m-32 2m36 0m-38 1m39 0m2 1m-46 2m-2 1m53 0m-55 1m57 0m1 1m-61 1m63 0m-65 1m67 0m-68 1m69 0m2 1m-75 1m77 0m-78 1m79 0m-81 1m83 0m-85 1m87 0m-88 1m90 0m-92 1m93 0m-95 1m97 0m-99 1m101 0m-102 1m103 0m-105 1m107 0m-109 1m111 0m1 1m-115 1m117 0m-119 1m121 0m-122 1m124 0m-126 1m127 0m-129 1m131 0m-132 1m134 0m-136 1m137 0m-139 1m141 0m-142 1m144 0m-146 1m148 0m-150 1m151 0m2 1m2 1m1 1m2 1m-166 1m168 0m-170 1m172 0m-174 1m175 0m-177 1m179 0m-180 1m182 0m2 1m1 1m2 1m1 1m2 1m2 1m2 1m1 1m2 1m2 1m2 1m70 0m-69 1m67 0m-65 1m63 0m-61 1m58 0m-57 1m56 0m-54 1m52 0m-50 1m48 0m-46 1m44 0m-43 1m41 0m-39 1m2 1m34 0m-33 1m31 0m-29 1m2 1m2 1m1 1m2 1m2 1m4 3v22h1v-22zm1 24 1 2zm227 40v22h1v-22zm-508 133v88h1v-88zm0 149m0 3v29h1v-29z" fill="#609BA3"/>
<path transform="translate(1133,186)" d="m0 0 6 2 46 27 22 13 24 14 22 13 26 15 25 15 26 15 24 14 15 9 26 15 25 15 21 12 28 17 12 7 1 4-6 44-10 76-14 104-8 59-6 48-10 75-1 9-6-1-17-10-12-6-24-14-14-7-1-2-4-1-17-10-26-15-3-1v-2l-5-2-25-14-17-10-28-16-1-2-5-2-23-13-24-14-15-9-8-4-1-2-5-2-13-7-1-2-5-2-16-9-5-2v-2l-5-1v-2l-7-2v-2l-5-1-2-1v-2l-5-1-15-9-49-28v-2l-4-1-4-4 4-24 24-129 19-102 16-86 4-5 17-11z" fill="#5C7478"/>
<path transform="translate(518,440)" d="m0 0h6l20 11 27 16 24 14 20 12 39 23 25 15 24 14 20 12 39 23 20 12 24 14 15 9 11 7 11 6 22 13 25 15 14 8 19 12 12 7v248l-3 5-16 10-13 9h-2v2h-3v2l-9 5-4 2-16-8-8-3-6 4-8 4-12 7-14 7h-2v2l-7 2v2l-4 2h-3v2l-9 3v2l-9 3v2l-9 4h-2v2l-7 2v2l-16 8-5 3-6 2v2l-14 7h-5l-9-6-5-2v-2l-7-2-9-6-3-1v-2l-7-2v-2l-9-3-7-5-5-2v-2l-5-1-9-6-3-1v-2l-9-3-7-4v-2l-5-1v-2l-9-3-3-2v-2l-7-2v-2l-9-3-5-3v-2l-5-1v-2l-5-1-2-1v-2l-5-1-9-5v-2l-7-2-19-11v-2l-9-3-3-2v-2l-7-2-3-3v-38l16-10 13-8 11-6 34-20 18-10 4-3-48-32-44-29-45-30-6-5-1-8v-242l8-6 17-9 10-6z" fill="#5C7478"/>
<path transform="translate(435,949)" d="m0 0 9 3 11 6 7 3 3 3 25 14 9 4 3 3 4 1v2l5 2 14 8h2l3 3 4 1v2l7 2 8 6 6 2 3 3 4 1v2l5 2 17 10 8 3 3 3 25 14 24 14 20 11 24 14 25 14 70 40 26 15 23 13 2 2v122l-8 6-32 19-28 17-32 19-28 17-32 19-28 17-32 19-28 17-32 19-28 17-32 19-28 17-25 15-3 2h-3l-1-2v-560z" fill="#D07342"/>
<path transform="translate(152,830)" d="m0 0 4 1 28 16 20 12 28 17 12 7 35 21 17 10 11 7 6 4 9 5 17 10 30 18 19 11v206l-20 13-22 13-51 31-55 33-22 13-20 12-13 8-22 13-7 4h-5v-471z" fill="#D07341"/>
<path transform="translate(50,636)" d="m0 0 5 2 21 12 10 6 3 1v2l6 2 13 8 3 1v2l5 2 14 8 8 4v2l6 2 13 8 39 23 27 16 3 1v2l6 2 10 6 3 1v2l10 4v2l5 2 16 9 8 4v2l10 4v2l6 2 10 6 7 4 4 2v2l7 2v2l6 2 10 6 12 7 6 3v2l5 1v2l5 1v2l7 2v2l5 1v2l5 1v2l5 1 4 3 3 1v2l5 2 6 3 11 6v2l5 1v2l5 1v2l5 1 5 3 2 1v2l5 1v2l6 2 10 6 7 4 10 6 16 9 5 3 14 9 9 3v2l5 2 7 3v2l5 2 16 9 5 2v2l5 2 5 3 4 1v2l7 2v2l5 1v2l5 2 9 4v2l7 2v2l5 2 7 3v2l5 1v2l6 2 10 5v2l4 1 10 6 3 1v2l6 2 8 5 7 3v2l5 1 2 1v2l4 1 11 6 4 2v2l7 2 7 5v2l5 2 28 16 13 8 15 9 29 17 50 30 22 13 20 12 66 39 30 18v79l-5-2-3-3-14-9-5-2v-2l-7-2-5-4-7-4-15-9-25-14-72-42-11-6-23-13-26-15-23-13-24-14-22-12-17-10-23-13-26-15-25-14-21-12v-2l-5-1-4-2-3-3-6-2v-2l-9-3-2-2-1-2-5-1-2-1v-2l-7-2-5-4-6-2-2-2-1-2-7-2v-2l-7-2-3-3-8-3-2-2-5-2v-2h-3v-2l-7-2-5-4-6-2-2-2-5-2v-2l-5-1-2-1v-2l-5-1-9-5-1-2-7-3-14-8v-2l-6-2-11-7-19-11-44-26-9-5-12-7v-2l-5-1-41-24-22-13-24-14-22-13-9-5-20-12-12-6-1-2-5-1v-2h-3v-2l-5-2-13-8-11-6-24-14-10-5-1-2-6-2-9-6-18-10-24-14-5-3z" fill="#2AA7C7"/>
<path transform="translate(958,1247)" d="m0 0 5 2 7 4 4 2v2l5 1 2 2 1 2 5 1 5 4 3 1 4 4 3 1 1-2 10-4 12-6h2l1-2 5-1v-2l4-2 5-2h4l1 47v67h-2l1 2v32l1 49-1 384-7 6-18 11-15 10-4 2-12-7-23-15-9-6zm43 94v310h1l1-310zm0 334v88h1v-88zm0 149m0 3v29h1v-29z" fill="#D07342"/>
<path transform="translate(1552,958)" d="m0 0h2v584l-15 10-22 14-6 4-5-2-16-12-18-13-6-4-1-254v-176l1-100 13-7 17-10 16-9 20-12 9-6 6-2v-2zm-43 31 1 2zm0 325v174h1v-174zm0 228v22h1v-22z" fill="#D07342"/>
<path transform="translate(1552,883)" d="m0 0h2v75l-5 3h-2v2l-14 8-14 9h-2l-1 2-3 1-2 2-15 8-19 11-11 6-9 6-29 16-77 44-23 13-24 14-27 15-28 16-23 13-49 28-9 6-5 1v2l-6 3-4 1-1 2-10 6-18 10-6 4h-2l-1 3-16 9-11 6-25 13-18 10-16 8-22 12-5 1-1-79 12-5 3-3 8-3 15-9 29-16 19-11 5-3h2v-2l7-2v-2l15-7 1-2 7-2v-2l7-2v-2l9-3v-2l7-3 6-3 1-2 7-2v-2l7-3 27-15 13-7 1-2 7-2v-2l7-2v-2l9-3v-2l7-3 4-1v-2h3v-2l9-3v-2l9-3v-2l12-6h2v-2l7-2v-2l15-7 1-2 7-2v-2l7-2v-2l7-2v-2l9-3v-2l4-2h3v-2l7-3 16-9h2v-2l7-3 5-3h2v-2l15-7 1-2 6-2 1-2 7-2v-2l14-7h2v-2l6-2 1-2 7-3 9-5h2v-2l6-2 1-2 7-3 4-2 3-3 7-2v-2l7-3 6-3 1-2 7-2v-2l7-2v-2l8-3 1-2 6-2 1-2 6-2 3-3 7-2v-2z" fill="#354C5B"/>
<path transform="translate(387,1175)" d="m0 0h2l1 48v230l-5-1-26-15-46-26-28-16-27-15-21-12-22-13-11-6-27-15-23-13-3-2 1-3 20-11 13-8 30-18 22-13 55-33 26-16 55-33z" fill="#FFE377"/>
<path transform="translate(1266,811)" d="m0 0h2v2l5 1 22 12 45 26 23 13 24 14 16 8v2h2v2l-28 15-5 3-7 4-24 14-22 12-19 11-11 6-16 9-11 6-9 5-16 9-19 11-12 6-11-6-25-14-24-14-27-15-24-14-25-13-2-4 14-9 23-13 29-16 21-12 12-7 12-6 17-10 13-7 39-22 15-8z" fill="#FEE277"/>
<path transform="translate(1133,186)" d="m0 0 6 2 46 27 22 13 24 14 22 13 26 15 25 15 26 15 24 14 15 9 26 15 25 15 21 12 28 17 12 7v4l-10 4-9 4-16 8-33 17-2 6h-2v-6l-6-2-45-27-17-10-20-12-17-10-20-12-22-13-15-9-22-13-20-12-22-13-60-36-22-13-15-9-11-6-2-1 4-5 17-11z" fill="#609AA3"/>
<path transform="translate(518,440)" d="m0 0h6l20 11 27 16 24 14 20 12 39 23 25 15 24 14 20 12 39 23 20 12 24 14 15 9 11 7 11 6 22 13 25 15 14 8 19 12 12 7v248l-2-4-1-242-15 10-16 11-12 8h-2v2l-4-1-23-14-25-15-17-10-45-27-22-13-25-15-39-23-95-57-14-8-28-17-22-13-14-8-13-8-14-8-13-7h-2v114l-1 132h-1l-1-8v-242l8-6 17-9 10-6z" fill="#5F9AA3"/>
<path transform="translate(1477,393)" d="m0 0h5l-6 44-10 76-14 104-8 59-6 48-10 75-1 9-6-1-17-10-12-6-24-14-5-3v-8l8-54 11-81 16-116 6-44 5-35 2-9 8-5 31-16 14-7z" fill="#354C5B"/>
<path transform="translate(958,1247)" d="m0 0 5 2 7 4 4 2v2l5 1 2 2 1 2 5 1 5 4 3 1 4 4 2 1 1 41-1 26 2 1h-2l1 334v181l1 4 2 1-3 1-12-7-23-15-9-6z" fill="#FDB038"/>
<path transform="translate(1507,986)" d="m0 0h3v581h2l-1 3-5-2-16-12-18-13-6-4-1-254v-176l1-100 13-7 17-10z" fill="#FDB039"/>
<path transform="translate(614,814)" d="m0 0 9 3 16 9 1 2-6-2-5-2-1 8-3 15-9 41-1 7 4 1 26 14 23 13 6 2h3v-2l16-8 32-17 7-4-1-12-1-3 5 1 24 12 24 14 12 6 24 14 11 7 1 2h-3v2l-16 9-17 10-21 12-24 14-14 8-8 4-2 7h-1l-1-7-6-2-11-7-30-18-17-10-50-30-17-10-22-13-23-14-16-9-10-6-4-2v6h-1v-8l16-10 13-8 11-6 34-20 18-10z" fill="#5F9AA3"/>
<path transform="translate(1134,1200)" d="m0 0h3l1 220-1 3-51 30-32 19-5 3h-2l-1-8v-18-3l-1-51 2 3 20-12 6-4-18-10-8-5-1-7v-61l1-7 38 19 11 6 1 1 1-96 13-8 4-2 1-2h3l1-2 4-1 1-2 4-1 1-2zm-87 140 4 4 2-1-4-3zm6 4m2 1 3 3 2-1zm5 3 3 3 2-1zm5 3m2 1 4 4 6 2-3-3-5-3zm10 6 3 3 4 1-3-3zm7 4 1 2 3-1zm4 2m1 1m2 1m2 1m2 1 1 2h2v-2z" fill="#609BA4"/>
<path transform="translate(932,684)" d="m0 0h1l1 245v5l-10 7-21 14h-2v2h-3v2l-9 5h-2v-33l1-217 10-7 19-13 12-8z" fill="#354C5B"/>
<path transform="translate(1175,1176)" d="m0 0h3v193l-14 9-15 9-9 5h-2v-194l8-5 11-7 11-6z" fill="#D17442"/>
<path transform="translate(518,873)" d="m0 0 4 1 16 9 22 13 13 8 15 9 24 14 55 33 17 10 21 13 12 7 7 4 2 2h1l1 33h-5l-9-6-5-2v-2l-7-2-9-6-3-1v-2l-7-2v-2l-9-3-7-5-5-2v-2l-5-1-9-6-3-1v-2l-9-3-7-4v-2l-5-1v-2l-9-3-3-2v-2l-7-2v-2l-9-3-5-3v-2l-5-1v-2l-5-1-2-1v-2l-5-1-9-5v-2l-7-2-19-11v-2l-9-3-3-2v-2l-7-2-3-3v-16z" fill="#5C7478"/>
<path transform="translate(1405,890)" d="m0 0h1v36l-5 4-10 5-10 6-12 6h-2v2l-9 4h-2v2l-7 2v2l-16 8h-2v2l-8 4-15 8h-2v2l-10 5-14 8-17 9h-2v2l-7 2v2l-7 2v2l-16 8h-2v2l-9 3v2l-13 6h-2v-35l11-6 35-20 10-6 6-3 12-7 10-5 9-5 14-8 9-5 14-8 16-9 12-7 11-6 16-9z" fill="#364D5C"/>
<path transform="translate(1134,1200)" d="m0 0h3v193l-4-1-5-3-3-3-26-15-2-3 1-146 13-8 4-2 1-2h3l1-2 4-1 1-2 4-1 1-2z" fill="#FDAF38"/>
<path transform="translate(1265,1274)" d="m0 0 5 2 11 7 22 13 2 1v4l-8 3-5 2h-2l-1 2-3 2h-2l-3 3-4 1-3 3-4 1-3 3-4 1-3 3-5 2-4 3-6 3-3 1-3 3-6 2-5 4-4 1-2 2h-2l-4 4-10 4-3 3-4 1-3 3-10 5-3 2-2-1-1 2-3-2 1-1-1-45 2 4 28-17 21-12 30-18z" fill="#609BA3"/>
<path transform="translate(1067,924)" d="m0 0 5 2 25 13 24 14 25 14 21 12 25 14 11 7 4 2 1 35-7-1-19-12-23-14-20-12-23-14-15-9-28-17-6-4-1-2v-27z" fill="#5F9AA3"/>
<path transform="translate(828,936)" d="m0 0h5l20 13 7 4-2 4-11 6-12 7-14 7h-2v2l-7 2v2l-4 2h-3v2l-9 3v2l-9 3v2l-9 4h-2v2l-7 2v2l-16 8-5 3-6 2v2l-13 6h-2v-34l11-6 24-14 14-8 16-9 10-6 19-11z" fill="#354C5B"/>
<path transform="translate(1139,1397)" d="m0 0 9 3 19 11 24 14 41 24 29 17 13 8 7 4v27l-5-2-26-15-111-65-1-17z" fill="#5B7479"/>
<path transform="translate(1047,1292)" d="m0 0 38 19 11 6 1 1v50h-2v2l-10 6-11 5-4-1-15-8-8-5-1-7v-61zm0 48 4 4 2-1-4-3zm6 4m2 1 3 3 2-1zm5 3 3 3 2-1zm5 3m2 1 4 4 6 2-3-3-5-3zm10 6 3 3 4 1-3-3zm7 4 1 2 3-1z" fill="#609AA3"/>
<path transform="translate(1301,1301)" d="m0 0h5v24l-8 6-32 19-28 17-20 12-11 6-10-4-8-5-10-5v-2l14-7 17-10 10-6 11-6 17-9 36-21 16-8z" fill="#354D5C"/>
<path transform="translate(1135,1397)" d="m0 0h2l1 23-1 3-51 30-32 19-5 3h-2l-1-8v-18l8-5 22-13 15-9 24-14 9-6z" fill="#354D5C"/>
<path transform="translate(686,856)" d="m0 0 4 1 25 13 14 8 3 4 1 12-16 9-24 13-16 8h-2l1-13 9-52z" fill="#354C5B"/>
<path transform="translate(1321,1457)" d="m0 0h5v24l-5 4-26 14-9 5h-3v-26l23-13z" fill="#364D5C"/>
<path transform="translate(1046,1341)" d="m0 0 5 2 19 11 15 9 10 5v2l-10 6-11 5-4-1-15-8-8-5-1-7z" fill="#5C7579"/>
</svg>
