<?xml version="1.0" encoding="UTF-8"?>
<svg version="1.1" xmlns="http://www.w3.org/2000/svg" width="179" height="181">
<path d="M0 0 C1.90749023 0.01135986 1.90749023 0.01135986 3.85351562 0.02294922 C22.44271694 0.34828399 39.81131472 5.87044612 54.6875 17.4375 C54.6875 18.0975 54.6875 18.7575 54.6875 19.4375 C55.491875 19.7778125 55.491875 19.7778125 56.3125 20.125 C59.51210161 21.89320089 61.97787223 23.97420203 64.6875 26.4375 C64.6875 27.0975 64.6875 27.7575 64.6875 28.4375 C66.6675 29.4275 66.6675 29.4275 68.6875 30.4375 C68.6875 31.0975 68.6875 31.7575 68.6875 32.4375 C69.3475 32.4375 70.0075 32.4375 70.6875 32.4375 C72.2067481 34.49152343 73.58478962 36.52669513 74.9375 38.6875 C75.53812256 39.63943237 75.53812256 39.63943237 76.15087891 40.6105957 C89.48545081 62.05243743 93.51572996 86.55043541 88.4375 111.5 C87.90294135 113.49289376 87.32506292 115.47513102 86.6875 117.4375 C86.42066406 118.28183594 86.15382812 119.12617187 85.87890625 119.99609375 C77.23058915 144.01919682 58.65174032 160.84998781 36.01953125 171.71875 C14.2080671 180.646233 -11.69044456 178.96917088 -33.3125 170.4375 C-39.51750867 167.50962212 -45.60322332 164.24368446 -51.3125 160.4375 C-51.3125 159.7775 -51.3125 159.1175 -51.3125 158.4375 C-51.9725 158.4375 -52.6325 158.4375 -53.3125 158.4375 C-53.3125 157.7775 -53.3125 157.1175 -53.3125 156.4375 C-53.89 156.169375 -54.4675 155.90125 -55.0625 155.625 C-57.36800043 154.40820811 -59.33306192 153.13416121 -61.3125 151.4375 C-61.3125 150.7775 -61.3125 150.1175 -61.3125 149.4375 C-62.3025 149.1075 -63.2925 148.7775 -64.3125 148.4375 C-65.98341472 146.57664115 -67.49906815 144.74079137 -69 142.75 C-69.43844238 142.16984131 -69.87688477 141.58968262 -70.32861328 140.99194336 C-78.08167728 130.51729817 -83.37686226 120.27001548 -86.3125 107.4375 C-86.57740234 106.44218262 -86.57740234 106.44218262 -86.84765625 105.42675781 C-88.42250269 99.19159452 -88.6125845 93.22331582 -88.5625 86.8125 C-88.57023437 85.81476563 -88.57796875 84.81703125 -88.5859375 83.7890625 C-88.57127044 78.24491515 -88.09427089 73.68233686 -86.3125 68.4375 C-86.00566357 67.00316144 -85.7116972 65.56593428 -85.4375 64.125 C-82.32581033 50.14596988 -74.21297635 36.71116504 -64.3125 26.4375 C-63.3225 26.1075 -62.3325 25.7775 -61.3125 25.4375 C-61.02375 24.798125 -60.735 24.15875 -60.4375 23.5 C-58.921141 20.7200085 -57.19303053 20.54539636 -54.3125 19.4375 C-53.8175 17.9525 -53.8175 17.9525 -53.3125 16.4375 C-50.85552035 14.83203676 -48.44750896 13.39497447 -45.875 12 C-45.14434326 11.59894043 -44.41368652 11.19788086 -43.66088867 10.78466797 C-29.6358089 3.19440585 -16.00762775 -0.13417783 0 0 Z " fill="#B38628" transform="translate(89.3125,2.5625)"/>
<path d="M0 0 C1.90749023 0.01135986 1.90749023 0.01135986 3.85351562 0.02294922 C22.44271694 0.34828399 39.81131472 5.87044612 54.6875 17.4375 C54.6875 18.0975 54.6875 18.7575 54.6875 19.4375 C55.491875 19.7778125 55.491875 19.7778125 56.3125 20.125 C59.51210161 21.89320089 61.97787223 23.97420203 64.6875 26.4375 C64.6875 27.0975 64.6875 27.7575 64.6875 28.4375 C66.6675 29.4275 66.6675 29.4275 68.6875 30.4375 C68.6875 31.0975 68.6875 31.7575 68.6875 32.4375 C69.3475 32.4375 70.0075 32.4375 70.6875 32.4375 C72.2067481 34.49152343 73.58478962 36.52669513 74.9375 38.6875 C75.53812256 39.63943237 75.53812256 39.63943237 76.15087891 40.6105957 C89.48545081 62.05243743 93.51572996 86.55043541 88.4375 111.5 C87.90294135 113.49289376 87.32506292 115.47513102 86.6875 117.4375 C86.42066406 118.28183594 86.15382812 119.12617187 85.87890625 119.99609375 C77.23058915 144.01919682 58.65174032 160.84998781 36.01953125 171.71875 C14.2080671 180.646233 -11.69044456 178.96917088 -33.3125 170.4375 C-39.51750867 167.50962212 -45.60322332 164.24368446 -51.3125 160.4375 C-51.3125 159.7775 -51.3125 159.1175 -51.3125 158.4375 C-51.9725 158.4375 -52.6325 158.4375 -53.3125 158.4375 C-53.3125 157.7775 -53.3125 157.1175 -53.3125 156.4375 C-53.89 156.169375 -54.4675 155.90125 -55.0625 155.625 C-57.36800043 154.40820811 -59.33306192 153.13416121 -61.3125 151.4375 C-61.3125 150.7775 -61.3125 150.1175 -61.3125 149.4375 C-62.3025 149.1075 -63.2925 148.7775 -64.3125 148.4375 C-65.98341472 146.57664115 -67.49906815 144.74079137 -69 142.75 C-69.43844238 142.16984131 -69.87688477 141.58968262 -70.32861328 140.99194336 C-78.08167728 130.51729817 -83.37686226 120.27001548 -86.3125 107.4375 C-86.57740234 106.44218262 -86.57740234 106.44218262 -86.84765625 105.42675781 C-88.42250269 99.19159452 -88.6125845 93.22331582 -88.5625 86.8125 C-88.57023437 85.81476563 -88.57796875 84.81703125 -88.5859375 83.7890625 C-88.57127044 78.24491515 -88.09427089 73.68233686 -86.3125 68.4375 C-86.00566357 67.00316144 -85.7116972 65.56593428 -85.4375 64.125 C-82.32581033 50.14596988 -74.21297635 36.71116504 -64.3125 26.4375 C-63.3225 26.1075 -62.3325 25.7775 -61.3125 25.4375 C-61.02375 24.798125 -60.735 24.15875 -60.4375 23.5 C-58.921141 20.7200085 -57.19303053 20.54539636 -54.3125 19.4375 C-53.8175 17.9525 -53.8175 17.9525 -53.3125 16.4375 C-50.85552035 14.83203676 -48.44750896 13.39497447 -45.875 12 C-45.14434326 11.59894043 -44.41368652 11.19788086 -43.66088867 10.78466797 C-29.6358089 3.19440585 -16.00762775 -0.13417783 0 0 Z M-34.3125 20.4375 C-35.859375 20.994375 -35.859375 20.994375 -37.4375 21.5625 C-53.8485186 28.44799258 -64.73827715 45.84662363 -71.6875 61.4375 C-78.21216641 79.16380608 -76.93231588 100.40398091 -69.35571289 117.61035156 C-58.71734832 139.35899481 -41.81471614 152.69717995 -19.3125 160.4375 C-13.67851516 162.15074529 -7.70756432 161.70464569 -1.875 161.75 C-0.66650391 161.77900391 0.54199219 161.80800781 1.78710938 161.83789062 C13.42403627 161.91891904 23.5738564 159.00204258 33.875 153.6875 C34.54861572 153.34315918 35.22223145 152.99881836 35.91625977 152.64404297 C52.4204266 143.94389605 65.54191942 128.64495557 71.9453125 111.078125 C75.80476552 97.34659741 76.05621193 82.27480405 72.6875 68.4375 C72.50445312 67.63183594 72.32140625 66.82617188 72.1328125 65.99609375 C67.36201071 47.64912143 54.26280234 31.8301335 38.125 22.25 C30.71905302 18.02329103 22.86642914 15.69275502 14.6875 13.4375 C13.6975 13.1075 12.7075 12.7775 11.6875 12.4375 C-4.27390147 11.08367703 -20.4283623 11.73871216 -34.3125 20.4375 Z " fill="#FBF5E0" transform="translate(89.3125,2.5625)"/>
<path d="M0 0 C1.20308991 0.63810294 2.39836854 1.29331857 3.5625 2 C2.24105892 4.79108116 0.75867639 7.25786389 -1.0625 9.75 C-1.73152344 10.67039062 -1.73152344 10.67039062 -2.4140625 11.609375 C-2.75179687 12.06828125 -3.08953125 12.5271875 -3.4375 13 C-4.0975 12.505 -4.7575 12.01 -5.4375 11.5 C-9.4357102 9.5008949 -11.99993472 9.70416231 -16.4375 10 C-17.67127411 11.0341638 -17.67127411 11.0341638 -17.76171875 13.24609375 C-17.32288117 16.97356958 -15.80972502 18.36080002 -13.25 21.0625 C-12.08404297 22.31740234 -12.08404297 22.31740234 -10.89453125 23.59765625 C-8.52215764 25.91722663 -6.06588919 27.97852128 -3.4375 30 C-3.36273438 29.32195312 -3.28796875 28.64390625 -3.2109375 27.9453125 C-1.99489407 19.3376325 0.97684603 11.98101517 7.5 6 C10.83046927 3.82499966 13.69857523 2.87485089 17.5625 2 C18.5525 1.67 19.5425 1.34 20.5625 1 C22.18969482 0.91856145 23.82001719 0.8924698 25.44921875 0.90234375 C26.38701172 0.90556641 27.32480469 0.90878906 28.29101562 0.91210938 C29.75571289 0.92467773 29.75571289 0.92467773 31.25 0.9375 C32.23806641 0.94201172 33.22613281 0.94652344 34.24414062 0.95117188 C36.68361958 0.9629568 39.12306741 0.98089217 41.5625 1 C41.5625 5.62 41.5625 10.24 41.5625 15 C35.5625 14 35.5625 14 33.51953125 13.4609375 C28.62392755 12.30788114 23.13101901 12.00961609 18.39453125 13.8359375 C14.45410467 16.33966271 12.3413922 19.25334135 10.99609375 23.70703125 C8.86473026 34.97829585 11.28143576 45.27719382 17.6875 54.6875 C25.13002534 65.07668879 35.03488592 73.5006257 47.75 76.375 C49.008125 76.58125 50.26625 76.7875 51.5625 77 C51.5625 81.29 51.5625 85.58 51.5625 90 C37.6585258 88.76409118 25.51404148 81.50925074 15.5625 72 C15.5625 71.34 15.5625 70.68 15.5625 70 C14.5725 70 13.5825 70 12.5625 70 C12.541875 70.825 12.52125 71.65 12.5 72.5 C10.81598083 78.78700491 6.09397131 83.26308951 0.875 87 C-7.37888189 91.19086946 -19.21422039 90.17852749 -28.00390625 88.1953125 C-32.4983892 86.61765726 -36.38567184 84.49398241 -40.4375 82 C-39.80360765 78.50155614 -38.38572306 76.15913124 -36.375 73.25 C-35.82714844 72.45078125 -35.27929688 71.6515625 -34.71484375 70.828125 C-34.29332031 70.22484375 -33.87179688 69.6215625 -33.4375 69 C-30.58348288 70.30783654 -28.99153229 71.41623653 -26.625 73.625 C-21.9140027 77.07631759 -16.68280169 76.56064964 -11.05859375 76.56640625 C-6.83194867 75.90528054 -4.67627708 74.77269756 -1.4375 72 C1.51320832 66.72657668 1.47993282 60.85689112 0.5625 55 C-2.76922762 47.3813737 -9.42629915 41.91443604 -15.5703125 36.54296875 C-19.51909277 33.04071268 -23.22837372 29.36209818 -26.6875 25.375 C-27.18765625 24.80523437 -27.6878125 24.23546875 -28.203125 23.6484375 C-31.67430077 19.01287998 -31.19384103 12.47110241 -30.4375 7 C-24.60423104 -4.05850989 -10.49077129 -4.71082405 0 0 Z " fill="#FCFAF4" transform="translate(82.4375,46)"/>
<path d="M0 0 C-0.59502374 4.11558087 -2.82912822 6.7638618 -5.25 10.0625 C-17.50779153 27.46096787 -21.75381477 49.57209401 -18.3046875 70.59765625 C-14.50581491 90.80046278 -4.08381553 109.6028303 12.65625 121.9609375 C32.73450268 135.1733509 52.83886759 139.69522507 76.7109375 136.50390625 C79.56151929 135.82756178 82.24647312 134.99800319 85 134 C86.06089844 133.64808594 87.12179688 133.29617187 88.21484375 132.93359375 C108.33096552 125.82135933 124.43837082 111.03983769 133.75 91.9375 C142.03997012 73.93682196 142.56648822 57.71161131 142 38 C142.66 38 143.32 38 144 38 C142.48671232 31.22459832 140.812821 24.95579807 137.671875 18.7421875 C137.45015625 18.16726562 137.2284375 17.59234375 137 17 C137.33 16.34 137.66 15.68 138 15 C145.69071417 29.68926407 150.36296323 42.66972788 150.3125 59.3125 C150.32861328 60.36373047 150.34472656 61.41496094 150.36132812 62.49804688 C150.375629 85.76556239 138.77358043 106.55696912 123 123 C117.39986149 128.26464634 111.36070849 132.16117096 104.54296875 135.67578125 C101.99286543 136.95326125 101.99286543 136.95326125 99.6796875 138.5 C83.29923068 147.6692353 59.07409482 147.83817563 41.25 143.5 C30.06192249 140.11476625 18.84594276 134.72177087 10 127 C9.13375 126.26394531 8.2675 125.52789062 7.375 124.76953125 C-0.32693435 118.06315944 -0.32693435 118.06315944 -2 114 C-2.66 114 -3.32 114 -4 114 C-20.7041951 95.98764504 -26.03065344 71.140119 -25.15234375 47.390625 C-24.82971352 42.32781211 -23.6482793 37.77341685 -22 33 C-21.63648438 31.83984375 -21.27296875 30.6796875 -20.8984375 29.484375 C-18.48311075 22.16048098 -15.56166873 16.18800279 -11 10 C-10.443125 9.071875 -9.88625 8.14375 -9.3125 7.1875 C-5 0 -5 0 0 0 Z " fill="#CE9F38" transform="translate(28,33)"/>
<path d="M0 0 C1.90749023 0.01135986 1.90749023 0.01135986 3.85351562 0.02294922 C22.44271694 0.34828399 39.81131472 5.87044612 54.6875 17.4375 C54.6875 18.0975 54.6875 18.7575 54.6875 19.4375 C55.491875 19.7778125 55.491875 19.7778125 56.3125 20.125 C59.51210161 21.89320089 61.97787223 23.97420203 64.6875 26.4375 C64.6875 27.0975 64.6875 27.7575 64.6875 28.4375 C66.6675 29.4275 66.6675 29.4275 68.6875 30.4375 C68.6875 31.0975 68.6875 31.7575 68.6875 32.4375 C69.3475 32.4375 70.0075 32.4375 70.6875 32.4375 C72.2067481 34.49152343 73.58478962 36.52669513 74.9375 38.6875 C75.53812256 39.63943237 75.53812256 39.63943237 76.15087891 40.6105957 C89.48545081 62.05243743 93.51572996 86.55043541 88.4375 111.5 C87.90294135 113.49289376 87.32506292 115.47513102 86.6875 117.4375 C86.42066406 118.28183594 86.15382812 119.12617187 85.87890625 119.99609375 C77.23058915 144.01919682 58.65174032 160.84998781 36.01953125 171.71875 C14.2080671 180.646233 -11.69044456 178.96917088 -33.3125 170.4375 C-39.51750867 167.50962212 -45.60322332 164.24368446 -51.3125 160.4375 C-51.3125 159.7775 -51.3125 159.1175 -51.3125 158.4375 C-51.9725 158.4375 -52.6325 158.4375 -53.3125 158.4375 C-53.3125 157.7775 -53.3125 157.1175 -53.3125 156.4375 C-53.89 156.169375 -54.4675 155.90125 -55.0625 155.625 C-57.36800043 154.40820811 -59.33306192 153.13416121 -61.3125 151.4375 C-61.3125 150.7775 -61.3125 150.1175 -61.3125 149.4375 C-62.3025 149.1075 -63.2925 148.7775 -64.3125 148.4375 C-65.98341472 146.57664115 -67.49906815 144.74079137 -69 142.75 C-69.43844238 142.16984131 -69.87688477 141.58968262 -70.32861328 140.99194336 C-78.08167728 130.51729817 -83.37686226 120.27001548 -86.3125 107.4375 C-86.57740234 106.44218262 -86.57740234 106.44218262 -86.84765625 105.42675781 C-88.42250269 99.19159452 -88.6125845 93.22331582 -88.5625 86.8125 C-88.57023437 85.81476563 -88.57796875 84.81703125 -88.5859375 83.7890625 C-88.57127044 78.24491515 -88.09427089 73.68233686 -86.3125 68.4375 C-86.00566357 67.00316144 -85.7116972 65.56593428 -85.4375 64.125 C-82.32581033 50.14596988 -74.21297635 36.71116504 -64.3125 26.4375 C-63.3225 26.1075 -62.3325 25.7775 -61.3125 25.4375 C-61.02375 24.798125 -60.735 24.15875 -60.4375 23.5 C-58.921141 20.7200085 -57.19303053 20.54539636 -54.3125 19.4375 C-53.8175 17.9525 -53.8175 17.9525 -53.3125 16.4375 C-50.85552035 14.83203676 -48.44750896 13.39497447 -45.875 12 C-45.14434326 11.59894043 -44.41368652 11.19788086 -43.66088867 10.78466797 C-29.6358089 3.19440585 -16.00762775 -0.13417783 0 0 Z M-60.3125 31.4375 C-61.3025 31.1075 -62.2925 30.7775 -63.3125 30.4375 C-69.96250893 32.58266417 -72.8196872 39.87816134 -75.8671875 45.61328125 C-87.06941404 67.50303744 -89.57781709 89.61112189 -82.46875 113.2421875 C-78.89277868 123.87761944 -74.10136289 134.27773888 -66.3125 142.4375 C-65.8175 143.4275 -65.8175 143.4275 -65.3125 144.4375 C-64.6525 144.4375 -63.9925 144.4375 -63.3125 144.4375 C-63.04695313 145.02789062 -62.78140625 145.61828125 -62.5078125 146.2265625 C-55.44523882 159.29001577 -36.92693149 168.39883089 -23.32421875 172.6484375 C-22.33035156 172.90882813 -21.33648437 173.16921875 -20.3125 173.4375 C-19.68988281 173.61192627 -19.06726563 173.78635254 -18.42578125 173.96606445 C2.80786099 179.39843515 27.20188548 176.25860143 46.04492188 165.14306641 C66.86191228 152.10876782 81.32043964 132.2626291 87.6875 108.4375 C88.85494178 102.3019034 88.87135648 96.35178386 88.875 90.125 C88.88724609 89.03509766 88.89949219 87.94519531 88.91210938 86.82226562 C88.93883426 72.00776952 84.52568111 58.0452977 76.6875 45.4375 C76.3575 46.0975 76.0275 46.7575 75.6875 47.4375 C76.62601941 49.80012302 76.62601941 49.80012302 78 52.4375 C80.50600612 57.70707397 81.85100894 62.68194209 82.6875 68.4375 C81.6975 68.4375 80.7075 68.4375 79.6875 68.4375 C79.501875 67.633125 79.501875 67.633125 79.3125 66.8125 C76.12966947 54.71774399 70.13645052 42.69539259 61.6875 33.4375 C60.99914062 32.68082031 60.31078125 31.92414062 59.6015625 31.14453125 C45.15812117 16.01692691 24.82803422 5.54123911 3.81152344 5.02026367 C-21.01183562 4.8624075 -43.08833907 13.06506168 -60.3125 31.4375 Z " fill="#CFA64A" transform="translate(89.3125,2.5625)"/>
<path d="M0 0 C8.79776467 7.6490951 12.41031224 23.74164767 13.21142578 34.9609375 C13.35063737 38.22617265 13.414758 41.4819255 13.4375 44.75 C13.44765137 45.77899414 13.45780273 46.80798828 13.46826172 47.86816406 C13.20578849 70.98798929 1.68525007 91.64904834 -14 108 C-19.60013851 113.26464634 -25.63929151 117.16117096 -32.45703125 120.67578125 C-35.00713457 121.95326125 -35.00713457 121.95326125 -37.3203125 123.5 C-53.74970451 132.6966276 -78.01433214 132.83497873 -95.875 128.4375 C-103.28033157 126.20871089 -110.39601907 123.03190414 -117 119 C-117.33 118.34 -117.66 117.68 -118 117 C-116.96552734 117.41958984 -116.96552734 117.41958984 -115.91015625 117.84765625 C-110.32684422 120.05849793 -104.68530918 122.07051407 -99 124 C-98.04996094 124.32742187 -97.09992188 124.65484375 -96.12109375 124.9921875 C-80.57068403 129.63740235 -60.8413036 128.38176055 -46 122 C-45.21109375 121.71253906 -44.4221875 121.42507812 -43.609375 121.12890625 C-37.43791299 118.84773701 -32.3078254 115.86631167 -27 112 C-26.26265625 111.46761719 -25.5253125 110.93523437 -24.765625 110.38671875 C-20.89895096 107.56828569 -20.89895096 107.56828569 -17.3984375 104.32421875 C-16 103 -16 103 -14 103 C-14 102.34 -14 101.68 -14 101 C-13.34 101 -12.68 101 -12 101 C-12 100.34 -12 99.68 -12 99 C-11.34 99 -10.68 99 -10 99 C-9.79375 98.34 -9.5875 97.68 -9.375 97 C-7.80273485 93.56960331 -5.77124771 90.91120024 -3.4375 87.96484375 C-2.0218375 86.02984854 -0.93176891 84.20778743 0 82 C-0.3288757 79.89519549 -0.93709449 78.15202165 -1.75 76.1875 C-2.07771175 73.32002219 -0.95701096 71.50452778 0.18505859 68.92504883 C6.38580785 54.27768278 5.44716668 38.55968067 5 23 C5.66 23 6.32 23 7 23 C5.49341945 16.25462798 3.81309565 9.96610572 0.76953125 3.7421875 C0 2 0 2 0 0 Z " fill="#967434" transform="translate(165,48)"/>
<path d="M0 0 C0.75 2.125 0.75 2.125 1 4 C1.99 4 2.98 4 4 4 C4 3.34 4 2.68 4 2 C10.82288842 -1.71849537 16.5380255 -2.62539796 24.25 -2.5 C25.21679688 -2.51546875 26.18359375 -2.5309375 27.1796875 -2.546875 C31.44742795 -2.52336128 34.31145678 -2.35496327 38.14453125 -0.37890625 C40.590959 2.75767164 40.57650576 4.62101422 40.4375 8.5625 C40.40462891 10.26599609 40.40462891 10.26599609 40.37109375 12.00390625 C40 15 40 15 38 18 C34.26512223 17.5020163 32.18762365 17.12508244 29 15 C26.4016547 14.42854895 26.4016547 14.42854895 23.5625 14.1875 C22.61503906 14.07792969 21.66757813 13.96835937 20.69140625 13.85546875 C17.48633265 14.02758446 16.41546719 14.9897419 14 17 C11.75 16.6875 11.75 16.6875 10 16 C14.59890144 12.02257173 18.06462247 11.45326209 24.09765625 11.66015625 C28.64297751 12.19238095 32.68211557 13.49812716 37 15 C37 10.38 37 5.76 37 1 C33.58263266 1.11391224 30.16657357 1.24066552 26.75 1.375 C25.29787109 1.42140625 25.29787109 1.42140625 23.81640625 1.46875 C22.88183594 1.50742187 21.94726562 1.54609375 20.984375 1.5859375 C20.12553711 1.6173584 19.26669922 1.6487793 18.38183594 1.68115234 C15.84704151 2.02047599 14.2469875 2.82297943 12 4 C10.741875 4.185625 9.48375 4.37125 8.1875 4.5625 C2.50704263 5.8978314 -0.05305003 10.27080973 -3 15 C-5.830956 20.2844512 -6.6126919 25.11024584 -7 31 C-13.06618676 26.88596377 -18.95183988 22.19067039 -23 16 C-23.34375 13.34765625 -23.34375 13.34765625 -23 11 C-20.44432381 8.44432381 -18.66065324 8.72454254 -15.16796875 8.63671875 C-13 9 -13 9 -8 12 C-5.69 8.7 -3.38 5.4 -1 2 C-8.78908579 -1.27961507 -16.59178734 -2.17474478 -25 -1 C-28.83126893 1.08270891 -31.84337129 3.16278772 -34 7 C-34.56984448 9.57873609 -34.56984448 9.57873609 -34.6875 12.25 C-34.75324219 13.14203125 -34.81898437 14.0340625 -34.88671875 14.953125 C-34.94279297 15.96632813 -34.94279297 15.96632813 -35 17 C-35.12375 16.360625 -35.2475 15.72125 -35.375 15.0625 C-35.58125 14.381875 -35.7875 13.70125 -36 13 C-36.66 12.67 -37.32 12.34 -38 12 C-35.90702767 5.82573163 -34.03310391 1.17761306 -28.5625 -2.75 C-19.19969261 -7.31722312 -8.70422066 -5.03928565 0 0 Z " fill="#DDBD73" transform="translate(87,46)"/>
<path d="M0 0 C0.64324219 0.50015625 1.28648437 1.0003125 1.94921875 1.515625 C1.94921875 2.175625 1.94921875 2.835625 1.94921875 3.515625 C2.48546875 3.7425 3.02171875 3.969375 3.57421875 4.203125 C6.77382036 5.97132589 9.23959098 8.05232703 11.94921875 10.515625 C11.94921875 11.175625 11.94921875 11.835625 11.94921875 12.515625 C13.26921875 13.175625 14.58921875 13.835625 15.94921875 14.515625 C15.94921875 15.175625 15.94921875 15.835625 15.94921875 16.515625 C16.60921875 16.515625 17.26921875 16.515625 17.94921875 16.515625 C19.46846685 18.56964843 20.84650837 20.60482013 22.19921875 22.765625 C22.59963379 23.40024658 23.00004883 24.03486816 23.41259766 24.6887207 C36.74716956 46.13056243 40.77744871 70.62856041 35.69921875 95.578125 C35.1646601 97.57101876 34.58678167 99.55325602 33.94921875 101.515625 C33.68238281 102.35996094 33.41554688 103.20429687 33.140625 104.07421875 C24.4923079 128.09732182 5.91345907 144.92811281 -16.71875 155.796875 C-34.77923355 163.18907292 -54.38080754 162.54201214 -73.05078125 158.515625 C-73.05078125 158.185625 -73.05078125 157.855625 -73.05078125 157.515625 C-71.84164062 157.67289063 -70.6325 157.83015625 -69.38671875 157.9921875 C-41.87780921 161.0105411 -18.033518 157.78849169 4.125 140.72192383 C20.21700822 127.632765 31.96283941 106.99074341 34.94921875 86.515625 C35.15957065 82.41287916 35.1343152 78.3107898 35.13671875 74.203125 C35.14896484 73.11322266 35.16121094 72.02332031 35.17382812 70.90039062 C35.20201621 55.27479283 30.00139118 41.51942327 22.3046875 28.0625 C20.94921875 25.515625 20.94921875 25.515625 20.94921875 23.515625 C19.46421875 23.020625 19.46421875 23.020625 17.94921875 22.515625 C16.765625 21.0546875 16.765625 21.0546875 15.51171875 19.140625 C5.44996335 5.31190699 -9.21827318 -3.61965722 -25.05078125 -9.484375 C-25.84226563 -9.79246094 -26.63375 -10.10054687 -27.44921875 -10.41796875 C-36.09526832 -13.58818692 -44.7568738 -13.56538686 -53.86328125 -13.609375 C-54.68812012 -13.61412842 -55.51295898 -13.61888184 -56.36279297 -13.6237793 C-60.41227621 -13.61263393 -64.08695775 -13.39304934 -68.05078125 -12.484375 C-70.38380111 -12.44612877 -72.71789633 -12.43863216 -75.05078125 -12.484375 C-54.50110785 -26.18415726 -18.11459743 -11.47343974 0 0 Z " fill="#F6ECD2" transform="translate(142.05078125,18.484375)"/>
<path d="M0 0 C1.04325439 0.00572021 2.08650879 0.01144043 3.16137695 0.01733398 C23.76266069 0.4873072 40.7633467 9.45338493 55.5546875 23.58203125 C59.6957403 27.92449712 62.93382612 32.68052549 66 37.8125 C66.36762451 38.41151123 66.73524902 39.01052246 67.11401367 39.62768555 C68.1015625 41.36328125 68.1015625 41.36328125 69.375 44.5 C68.5859375 46.91796875 68.5859375 46.91796875 67.375 48.5 C66.53709211 46.71046815 65.70480604 44.91830305 64.875 43.125 C64.4109375 42.12726562 63.946875 41.12953125 63.46875 40.1015625 C62.375 37.5 62.375 37.5 62.375 35.5 C61.715 35.5 61.055 35.5 60.375 35.5 C59.7871875 34.13875 59.7871875 34.13875 59.1875 32.75 C57.23841046 29.25508083 55.5139992 27.90899939 52.375 25.5 C51.55148845 24.42501345 50.74011835 23.34067463 49.9375 22.25 C46.97382244 18.66727752 43.37387693 16.46007441 39.375 14.1875 C38.48470093 13.68138184 38.48470093 13.68138184 37.57641602 13.16503906 C33.94191825 11.17499434 30.34025537 9.69078553 26.375 8.5 C26.375 7.84 26.375 7.18 26.375 6.5 C25.240625 6.37625 24.10625 6.2525 22.9375 6.125 C19.88530259 5.75487413 16.98038846 5.18658159 14 4.4375 C9.05040621 3.30760977 4.42883336 3.29357582 -0.625 3.5 C-1.66398437 3.50644531 -2.70296875 3.51289063 -3.7734375 3.51953125 C-17.11086802 3.93155714 -30.10921378 8.17845264 -40.625 16.5 C-41.40359375 17.08007812 -42.1821875 17.66015625 -42.984375 18.2578125 C-49.20649099 22.94669706 -49.20649099 22.94669706 -54.625 28.5 C-54.625 29.82 -54.625 31.14 -54.625 32.5 C-55.2025 32.685625 -55.78 32.87125 -56.375 33.0625 C-60.43304517 35.65513997 -62.12647318 40.00441954 -63.625 44.5 C-64.615 44.5 -65.605 44.5 -66.625 44.5 C-66.625 45.16 -66.625 45.82 -66.625 46.5 C-67.285 46.5 -67.945 46.5 -68.625 46.5 C-63.929992 31.08959095 -51.22138474 17.75948606 -37.625 9.5 C-35.97627092 8.79013054 -34.30924091 8.12093059 -32.625 7.5 C-31.86960938 7.18160156 -31.11421875 6.86320312 -30.3359375 6.53515625 C-29.17964844 6.05369141 -29.17964844 6.05369141 -28 5.5625 C-27.24460938 5.24410156 -26.48921875 4.92570312 -25.7109375 4.59765625 C-17.08369796 1.52897991 -9.17331308 -0.05922136 0 0 Z " fill="#D0A74C" transform="translate(88.625,14.5)"/>
<path d="M0 0 C1.32 0.66 2.64 1.32 4 2 C3.68112381 8.21808564 0.47856795 12.10908115 -3 17 C-3.75373484 18.18513292 -4.50434549 19.37226658 -5.25 20.5625 C-5.8275 21.366875 -6.405 22.17125 -7 23 C-7.66 23 -8.32 23 -9 23 C-9 23.66 -9 24.32 -9 25 C-9.66 25 -10.32 25 -11 25 C-11 25.66 -11 26.32 -11 27 C-21.5611999 36.78950471 -34.12900854 44.68204285 -48.06640625 48.421875 C-49.9879808 48.82967554 -49.9879808 48.82967554 -51 50 C-53.67058851 50.14115161 -56.32432238 50.04247107 -59 50 C-59 49.34 -59 48.68 -59 48 C-66.26 48 -73.52 48 -81 48 C-81 47.67 -81 47.34 -81 47 C-79.69546875 46.96261719 -78.3909375 46.92523438 -77.046875 46.88671875 C-67.38003392 46.54964335 -58.24206364 46.10657601 -49 43 C-47.93523437 42.649375 -46.87046875 42.29875 -45.7734375 41.9375 C-27.45765234 35.41759521 -10.84611724 21.89474751 -2 4.375 C-1.32068426 2.92251569 -0.64892246 1.46631518 0 0 Z " fill="#D0A543" transform="translate(162,124)"/>
<path d="M0 0 C0.66 0.33 1.32 0.66 2 1 C-1.752768 5.45573607 -5.40322336 9.39712101 -10 13 C-25.23798106 29.22107661 -29.74126928 53.10553439 -29.140625 74.42089844 C-28.21116115 91.46752357 -20.62684161 110.52241389 -9 123 C-9 123.66 -9 124.32 -9 125 C-8.34 125 -7.68 125 -7 125 C-5.625 126.46875 -5.625 126.46875 -4 128.5 C6.42673192 140.66095222 20.68241984 148.73576523 36 153 C36 153.33 36 153.66 36 154 C29.70501966 153.52396876 25.00710905 151.97823029 19.375 149.1875 C18.65054688 148.84396484 17.92609375 148.50042969 17.1796875 148.14648438 C12.87596097 146.06868887 8.82423729 143.87722585 5 141 C5 140.34 5 139.68 5 139 C4.34 139 3.68 139 3 139 C3 138.34 3 137.68 3 137 C2.4225 136.731875 1.845 136.46375 1.25 136.1875 C-1.05550043 134.97070811 -3.02056192 133.69666121 -5 132 C-5 131.34 -5 130.68 -5 130 C-5.99 129.67 -6.98 129.34 -8 129 C-9.67091472 127.13914115 -11.18656815 125.30329137 -12.6875 123.3125 C-13.12594238 122.73234131 -13.56438477 122.15218262 -14.01611328 121.55444336 C-21.76917728 111.07979817 -27.06436226 100.83251548 -30 88 C-30.26490234 87.00468262 -30.26490234 87.00468262 -30.53515625 85.98925781 C-32.11000269 79.75409452 -32.3000845 73.78581582 -32.25 67.375 C-32.25773437 66.37726563 -32.26546875 65.37953125 -32.2734375 64.3515625 C-32.25877044 58.80741515 -31.78177089 54.24483686 -30 49 C-29.69316357 47.56566144 -29.3991972 46.12843428 -29.125 44.6875 C-26.01331033 30.70846988 -17.90047635 17.27366504 -8 7 C-7.01 6.67 -6.02 6.34 -5 6 C-4.3162955 4.67532254 -3.65035814 3.34136367 -3 2 C-2.01 1.34 -1.02 0.68 0 0 Z " fill="#F6EDD3" transform="translate(33,22)"/>
<path d="M0 0 C0 0.66 0 1.32 0 2 C-0.66 2 -1.32 2 -2 2 C-2 2.99 -2 3.98 -2 5 C-8.22139917 8.71702239 -14.53997053 11.76496287 -21.3125 14.3125 C-22.31603516 14.69365967 -22.31603516 14.69365967 -23.33984375 15.08251953 C-31.03339916 17.9005524 -38.08768995 18.18226418 -46.1875 18.1875 C-47.65413086 18.20586914 -47.65413086 18.20586914 -49.15039062 18.22460938 C-55.9695955 18.2381306 -62.33792032 17.44188481 -69 16 C-65.59457813 15.05952815 -63.02823419 15.05337773 -59.5 15.4375 C-46.56367836 16.63971106 -46.56367836 16.63971106 -34 14 C-34 13.67 -34 13.34 -34 13 C-34.90766113 12.98018066 -35.81532227 12.96036133 -36.75048828 12.93994141 C-40.13893117 12.86154333 -43.52695502 12.7748408 -46.91503906 12.68261719 C-48.37752189 12.64448794 -49.84009338 12.60960786 -51.30273438 12.578125 C-53.41308132 12.53212289 -55.52282634 12.47419059 -57.6328125 12.4140625 C-58.90012207 12.3826416 -60.16743164 12.3512207 -61.47314453 12.31884766 C-64.94553039 12.00492436 -67.75589514 11.24437401 -71 10 C-71 9.34 -71 8.68 -71 8 C-69.19789062 8.48339844 -69.19789062 8.48339844 -67.359375 8.9765625 C-61.01353794 10.3782036 -54.72450215 10.36805311 -48.25 10.375 C-47.0640625 10.39949219 -45.878125 10.42398438 -44.65625 10.44921875 C-33.56975305 10.48552824 -23.93096798 7.75308436 -14.0625 2.8125 C-4.21252372 -2.10626186 -4.21252372 -2.10626186 0 0 Z " fill="#FBF4DB" transform="translate(136,153)"/>
<path d="M0 0 C0.99 0 1.98 0 3 0 C4.13572596 1.37663753 5.26658166 2.75753162 6.375 4.15625 C16.35318315 15.47765011 33.6026559 24.04342864 48.70214844 25.20849609 C51.72113975 25.30432904 54.72953476 25.32880002 57.75 25.3125 C59.35125732 25.30512817 59.35125732 25.30512817 60.98486328 25.29760742 C72.71099709 25.12287136 81.77166923 22.70220531 92 17 C92.63679688 16.67 93.27359375 16.34 93.9296875 16 C100.12946748 12.69345068 105.15804807 8.03563001 110 3 C110.99 3.33 111.98 3.66 113 4 C102.96926084 16.93437418 86.92783751 24.88343303 71 28 C55.43467045 29.59807345 40.0627154 29.26591812 26 22 C25.33693848 21.66258789 24.67387695 21.32517578 23.99072266 20.97753906 C14.66504049 16.10086781 4.42076228 9.98598586 0 0 Z " fill="#D1A84B" transform="translate(31,136)"/>
<path d="M0 0 C-0.59502374 4.11558087 -2.82912822 6.7638618 -5.25 10.0625 C-16.61455129 26.19312026 -19.40256845 44.55360303 -20 64 C-20.33 64 -20.66 64 -21 64 C-21.33 58.72 -21.66 53.44 -22 48 C-22.66 48 -23.32 48 -24 48 C-24 53.94 -24 59.88 -24 66 C-24.33 66 -24.66 66 -25 66 C-25.61723901 43.47552417 -25.61723901 43.47552417 -22 33 C-21.63648438 31.83984375 -21.27296875 30.6796875 -20.8984375 29.484375 C-18.48311075 22.16048098 -15.56166873 16.18800279 -11 10 C-10.443125 9.071875 -9.88625 8.14375 -9.3125 7.1875 C-5 0 -5 0 0 0 Z " fill="#C49E4A" transform="translate(28,33)"/>
<path d="M0 0 C-2.98646769 1.99097846 -5.59687262 2.94124926 -9 4 C-8.01 4.66 -7.02 5.32 -6 6 C-6.76183594 6.30292969 -7.52367187 6.60585937 -8.30859375 6.91796875 C-19.2496504 11.35722395 -27.94857891 16.40354507 -37 24 C-37.97259766 24.804375 -37.97259766 24.804375 -38.96484375 25.625 C-40.31530566 26.74350022 -41.65872214 27.87050285 -43 29 C-43 28.34 -43 27.68 -43 27 C-44.32 27.33 -45.64 27.66 -47 28 C-46.01 26.515 -46.01 26.515 -45 25 C-44.34 25 -43.68 25 -43 25 C-42.7525 24.4225 -42.505 23.845 -42.25 23.25 C-40.83073705 20.6953267 -39.05930146 19.05930146 -37 17 C-36.7834375 16.3915625 -36.566875 15.783125 -36.34375 15.15625 C-34.22147578 11.75074021 -30.97539445 10.36539629 -27.5 8.5 C-26.77675537 8.10562744 -26.05351074 7.71125488 -25.30834961 7.30493164 C-16.71928907 2.68683759 -9.92265345 -0.64017119 0 0 Z " fill="#D8B971" transform="translate(71,6)"/>
<path d="M0 0 C4.36665456 0.08717459 6.78852368 1.71851817 10.25 4.375 C11.24 4.705 12.23 5.035 13.25 5.375 C13.03537109 6.41720703 13.03537109 6.41720703 12.81640625 7.48046875 C12.21733421 10.54193345 11.69485302 13.60955833 11.1875 16.6875 C10.92259766 18.29044922 10.92259766 18.29044922 10.65234375 19.92578125 C10.51957031 20.73402344 10.38679688 21.54226562 10.25 22.375 C4.18381324 18.26096377 -1.70183988 13.56567039 -5.75 7.375 C-6.09375 4.72265625 -6.09375 4.72265625 -5.75 2.375 C-3.75 0.375 -3.75 0.375 0 0 Z " fill="#BA8E32" transform="translate(69.75,54.625)"/>
<path d="M0 0 C2.99404565 1.36153069 5.24828197 2.92612421 7.6875 5.125 C9.88263555 7.10307924 12.07534033 9.06290918 14.34375 10.95703125 C25.35626439 20.26260591 25.35626439 20.26260591 26.40234375 27.9609375 C26.5755527 33.57290748 26.47481864 38.36690848 23 43 C17.25021046 47.58292049 12.79974946 47.69672813 5.6484375 47.53515625 C1.15219922 46.87564378 -1.23813898 45.50285408 -4.484375 42.41015625 C-6.05853694 40.75009776 -6.05853694 40.75009776 -9 40 C-9.61488281 40.92232422 -9.61488281 40.92232422 -10.2421875 41.86328125 C-12.49479167 45.2421875 -14.74739583 48.62109375 -17 52 C-17.37058824 46.44117647 -17.37058824 46.44117647 -15.6875 44.4375 C-15.130625 43.963125 -14.57375 43.48875 -14 43 C-13.566875 42.13375 -13.13375 41.2675 -12.6875 40.375 C-11 38 -11 38 -8.125 36.9375 C-4.08024601 37.01839508 -2.92823286 38.29701582 0 41 C4.02526727 43.93735719 8.01525286 45.17903629 13 45 C15.65497724 44.29166634 17.55643806 43.3464525 20 42 C20.495 41.01 20.495 41.01 21 40 C21.66 40 22.32 40 23 40 C23 34.72 23 29.44 23 24 C22.34 24 21.68 24 21 24 C19.78125 22.28515625 19.78125 22.28515625 18.5 20.0625 C16.81545121 16.94567974 16.81545121 16.94567974 14 15 C14 14.34 14 13.68 14 13 C13.34 13 12.68 13 12 13 C12 12.34 12 11.68 12 11 C11.42765625 10.7421875 10.8553125 10.484375 10.265625 10.21875 C7.78871005 8.88634058 5.8658834 7.34943882 3.75 5.5 C3.04359375 4.8915625 2.3371875 4.283125 1.609375 3.65625 C0 2 0 2 0 0 Z " fill="#A6874A" transform="translate(58,76)"/>
<path d="M0 0 C0.33 0 0.66 0 1 0 C1.03738281 1.23234375 1.07476562 2.4646875 1.11328125 3.734375 C1.46270776 13.19090941 2.17102206 21.9122213 5 31 C5.46792969 32.65128906 5.46792969 32.65128906 5.9453125 34.3359375 C7.38629446 39.29427701 8.83595241 43.95681614 11.3125 48.5 C13 52 13 52 12.75 55 C12.5025 55.66 12.255 56.32 12 57 C8.97938702 55.95615966 8.06390035 55.10749008 6.40234375 52.3125 C0.57817879 39.14212163 -2.18449487 27.98604753 -2.0625 13.5625 C-2.05798828 12.54478516 -2.05347656 11.52707031 -2.04882812 10.47851562 C-2.03712437 7.98561491 -2.02072848 5.49283926 -2 3 C-1.34 3 -0.68 3 0 3 C0 2.01 0 1.02 0 0 Z " fill="#AD8F52" transform="translate(6,78)"/>
<path d="M0 0 C1.32 0.66 2.64 1.32 4 2 C3.68112381 8.21808564 0.47856795 12.10908115 -3 17 C-3.75373484 18.18513292 -4.50434549 19.37226658 -5.25 20.5625 C-6.11625 21.7690625 -6.11625 21.7690625 -7 23 C-7.66 23 -8.32 23 -9 23 C-9 23.66 -9 24.32 -9 25 C-9.66 25 -10.32 25 -11 25 C-11 25.66 -11 26.32 -11 27 C-12.75 28.7265625 -12.75 28.7265625 -15 30.625 C-16.11375 31.57246094 -16.11375 31.57246094 -17.25 32.5390625 C-17.8275 33.02117187 -18.405 33.50328125 -19 34 C-19.33 32.68 -19.66 31.36 -20 30 C-19.34 30 -18.68 30 -18 30 C-18.07347656 29.24976563 -18.14695313 28.49953125 -18.22265625 27.7265625 C-17.93965023 24.26097997 -17.02966518 23.60809866 -14.4375 21.375 C-8.05271018 15.39774996 -3.63538844 7.91231602 0 0 Z " fill="#C8982F" transform="translate(162,124)"/>
<path d="M0 0 C2.69242491 2.59877534 5.02373675 5.24562533 7.25 8.25 C13.22565265 15.99292014 19.64870182 21.89642889 28 27 C25 28 25 28 22 28 C23.98 29.32 25.96 30.64 28 32 C27.67 32.66 27.34 33.32 27 34 C9.77005348 21.72727273 9.77005348 21.72727273 7 15 C6.34 15 5.68 15 5 15 C3.5625 13.390625 3.5625 13.390625 2 11.25 C1.484375 10.55390625 0.96875 9.8578125 0.4375 9.140625 C-0.89995249 7.14898379 -1.98355423 5.16972077 -3 3 C-2.34 3 -1.68 3 -1 3 C-0.67 2.01 -0.34 1.02 0 0 Z " fill="#C6A04C" transform="translate(19,132)"/>
<path d="M0 0 C0.66 0 1.32 0 2 0 C3.18817968 3.73310433 3.11362739 7.27491645 3.09765625 11.171875 C3.0962413 11.8542926 3.09482635 12.53671021 3.09336853 13.23980713 C3.08779084 15.40991684 3.07524254 17.5799217 3.0625 19.75 C3.05748211 21.22525892 3.05291971 22.70051947 3.04882812 24.17578125 C3.03782875 27.78388798 3.02057953 31.39193375 3 35 C1.68 34.67 0.36 34.34 -1 34 C-2.74048985 27.67518419 -3.21695604 21.52549459 -3.25 15 C-3.25902344 14.245979 -3.26804687 13.49195801 -3.27734375 12.71508789 C-3.24757847 7.24757847 -3.24757847 7.24757847 -1 5 C-0.35232207 2.42938689 -0.35232207 2.42938689 0 0 Z " fill="#FDFBF2" transform="translate(11,75)"/>
<path d="M0 0 C5.60052079 3.95000966 7.79994531 7.88876822 10.3125 14.1875 C10.65861328 14.98736328 11.00472656 15.78722656 11.36132812 16.61132812 C13.74222842 22.38953644 14.69865339 27.76914282 15 34 C14.34 34 13.68 34 13 34 C13 35.65 13 37.3 13 39 C12.67 39 12.34 39 12 39 C11.8040625 38.1028125 11.608125 37.205625 11.40625 36.28125 C9.43758543 28.0671668 6.85840979 20.97891777 2.64257812 13.6328125 C0.01158026 8.84827575 -0.36258784 5.45694698 0 0 Z " fill="#C59C42" transform="translate(157,37)"/>
<path d="M0 0 C1.25031006 0.23771118 1.25031006 0.23771118 2.52587891 0.48022461 C6.23967783 1.03585904 9.83256547 1.21131183 13.5859375 1.31640625 C14.63861313 1.3475779 14.63861313 1.3475779 15.71255493 1.37937927 C17.93327958 1.44426324 20.15411276 1.5034723 22.375 1.5625 C23.88933371 1.60574354 25.40365683 1.6493596 26.91796875 1.69335938 C30.61186655 1.79988086 34.30588354 1.90131677 38 2 C38 2.99 38 3.98 38 5 C25.77437189 8.76173172 13.43189917 6.6497307 1 5 C0.67 3.35 0.34 1.7 0 0 Z " fill="#FEFCF0" transform="translate(65,163)"/>
<path d="M0 0 C0.495 1.485 0.495 1.485 1 3 C0.13834229 2.98952637 -0.72331543 2.97905273 -1.61108398 2.96826172 C-4.84837839 2.933908 -8.08557897 2.90896987 -11.32299805 2.89013672 C-12.71658409 2.8801607 -14.11014966 2.86657499 -15.50366211 2.84912109 C-23.29125089 2.75411642 -30.43351059 3.01534704 -38 5 C-40.69443767 5.15527268 -43.29866585 5.09823033 -46 5 C-45 3 -45 3 -41.8515625 1.7109375 C-29.16758104 -2.4705443 -12.8762471 -5.26151336 0 0 Z " fill="#CCA243" transform="translate(107,6)"/>
<path d="M0 0 C1.79824219 0.48919922 1.79824219 0.48919922 3.6328125 0.98828125 C10.02320151 2.40406356 16.35908877 2.25342242 22.875 2.1875 C24.07769531 2.18685547 25.28039062 2.18621094 26.51953125 2.18554688 C33.73080446 2.15031264 40.83243533 1.79629426 48 1 C47.67 1.66 47.34 2.32 47 3 C44.9375 3.625 44.9375 3.625 43 4 C45.64 4.33 48.28 4.66 51 5 C43.03180558 10.31212961 33.70542831 10.2871615 24.4375 10.3125 C23.48069336 10.31781738 22.52388672 10.32313477 21.53808594 10.32861328 C14.84902462 10.26339322 8.53849109 9.39149031 2 8 C5.40542187 7.05952815 7.97176581 7.05337773 11.5 7.4375 C24.43632164 8.63971106 24.43632164 8.63971106 37 6 C37 5.67 37 5.34 37 5 C36.09233887 4.98018066 35.18467773 4.96036133 34.24951172 4.93994141 C30.86106883 4.86154333 27.47304498 4.7748408 24.08496094 4.68261719 C22.62247811 4.64448794 21.15990662 4.60960786 19.69726562 4.578125 C17.58691868 4.53212289 15.47717366 4.47419059 13.3671875 4.4140625 C12.09987793 4.3826416 10.83256836 4.3512207 9.52685547 4.31884766 C6.05446961 4.00492436 3.24410486 3.24437401 0 2 C0 1.34 0 0.68 0 0 Z " fill="#F8ECC5" transform="translate(65,161)"/>
<path d="M0 0 C1.32197388 0.03927612 1.32197388 0.03927612 2.6706543 0.0793457 C3.50250244 0.12019287 4.33435059 0.16104004 5.19140625 0.203125 C6.31011108 0.25194824 6.31011108 0.25194824 7.45141602 0.30175781 C9.90164906 0.85475448 10.84298987 1.85689365 12.4375 3.75 C11.4475 4.08 10.4575 4.41 9.4375 4.75 C9.1075 5.41 8.7775 6.07 8.4375 6.75 C7.81383545 6.6070752 7.1901709 6.46415039 6.54760742 6.31689453 C-1.43619781 4.65888111 -9.11800772 4.51539305 -17.25 4.625 C-18.53583984 4.63402344 -19.82167969 4.64304687 -21.14648438 4.65234375 C-24.28535732 4.6756811 -27.42382476 4.70841967 -30.5625 4.75 C-29.5625 2.75 -29.5625 2.75 -26.75 1.6875 C-17.95372102 -0.53806456 -8.99946398 -0.34560649 0 0 Z " fill="#FDFBF1" transform="translate(100.5625,9.25)"/>
<path d="M0 0 C5.7865914 8.67988709 3.33918424 22.90452102 1.75 32.7265625 C0.5629246 37.90765201 -1.4650133 42.34919763 -4 47 C-4.84498047 48.55267578 -4.84498047 48.55267578 -5.70703125 50.13671875 C-8.74218212 55.51270494 -11.82503632 60.44549417 -16 65 C-16.66 64.01 -17.32 63.02 -18 62 C-17.34 62 -16.68 62 -16 62 C-15.34 60.68 -14.68 59.36 -14 58 C-13.34 58 -12.68 58 -12 58 C-11.79375 57.071875 -11.5875 56.14375 -11.375 55.1875 C-10.40911786 51.72700141 -8.87128108 48.90942045 -7.0625 45.8125 C-3.81986915 40.07857959 -2.2795613 34.42542294 -1 28 C-0.82581543 27.23260498 -0.65163086 26.46520996 -0.47216797 25.67456055 C0.02077965 22.88229521 0.11348678 20.31413372 0.09765625 17.48046875 C0.09282227 15.9480957 0.09282227 15.9480957 0.08789062 14.38476562 C0.07951172 13.32966797 0.07113281 12.27457031 0.0625 11.1875 C0.05798828 10.11306641 0.05347656 9.03863281 0.04882812 7.93164062 C0.03707729 5.28770317 0.02064787 2.64388048 0 0 Z " fill="#A98A4D" transform="translate(161,75)"/>
<path d="M0 0 C2.03833424 1.2739589 4.03852126 2.61061923 6 4 C6 4.66 6 5.32 6 6 C7.65 6 9.3 6 11 6 C11 6.66 11 7.32 11 8 C12.216875 8.12375 13.43375 8.2475 14.6875 8.375 C18.08608444 8.72061876 20.86336011 9.64866302 24 11 C24.16759984 13.1249266 24.33405201 15.24994376 24.5 17.375 C24.5928125 18.55835938 24.685625 19.74171875 24.78125 20.9609375 C24.90195454 22.63786843 25 24.31873056 25 26 C22 28 22 28 19.25 27.8125 C15.5751982 26.89379955 12.43787652 25.5814232 9 24 C9 23.34 9 22.68 9 22 C10.41681634 22.31182069 11.83344651 22.62448737 13.25 22.9375 C14.43335937 23.19853516 14.43335937 23.19853516 15.640625 23.46484375 C17.76728673 23.9472157 19.88442798 24.47110699 22 25 C22 20.71 22 16.42 22 12 C20.1128125 11.938125 20.1128125 11.938125 18.1875 11.875 C10.90484898 11.10172327 4.97562093 6.98374728 -1 3 C-0.67 2.01 -0.34 1.02 0 0 Z " fill="#AD893E" transform="translate(112,111)"/>
<path d="M0 0 C0.68964844 0.27972656 1.37929688 0.55945313 2.08984375 0.84765625 C5.23175981 2.09177066 8.38822485 3.27829372 11.5625 4.4375 C12.67753906 4.84871094 13.79257812 5.25992188 14.94140625 5.68359375 C25.43211424 9.19715691 35.18834445 10.49294827 46.25 10.6875 C47.5924789 10.72077789 48.93492811 10.75527662 50.27734375 10.79101562 C53.51814462 10.87261852 56.7587047 10.94205112 60 11 C59.67 11.66 59.34 12.32 59 13 C37.69228828 13.58389598 19.63111104 13.37478358 1 2 C0.67 1.34 0.34 0.68 0 0 Z " fill="#947437" transform="translate(47,165)"/>
<path d="M0 0 C0.33 0 0.66 0 1 0 C0.98839844 0.90621094 0.97679687 1.81242187 0.96484375 2.74609375 C0.91410496 9.59583079 1.03333348 16.22247291 2 23 C2.14566406 24.19625 2.29132812 25.3925 2.44140625 26.625 C2.60511719 27.90375 2.76882812 29.1825 2.9375 30.5 C3.16759766 32.30984375 3.16759766 32.30984375 3.40234375 34.15625 C3.59957031 35.0946875 3.79679687 36.033125 4 37 C4.66 37.33 5.32 37.66 6 38 C6.8515625 40.28515625 6.8515625 40.28515625 7.625 43.0625 C7.88539062 43.98160156 8.14578125 44.90070313 8.4140625 45.84765625 C8.60742188 46.55792969 8.80078125 47.26820312 9 48 C8.01 48 7.02 48 6 48 C-0.15002209 34.39144049 -5.37353809 17.40822422 -0.9765625 2.5390625 C-0.65429688 1.70117188 -0.33203125 0.86328125 0 0 Z " fill="#967942" transform="translate(16,77)"/>
<path d="M0 0 C0.99 0.33 1.98 0.66 3 1 C3.14374652 8.2731744 2.71487802 15.38927518 2 22.625 C1.90460937 23.62917969 1.80921875 24.63335937 1.7109375 25.66796875 C1.47813335 28.11241236 1.2410936 30.5563625 1 33 C0.67 33 0.34 33 0 33 C-0.33 27.72 -0.66 22.44 -1 17 C-1.66 17 -2.32 17 -3 17 C-3 22.94 -3 28.88 -3 35 C-3.33 35 -3.66 35 -4 35 C-4.70143885 9.4028777 -4.70143885 9.4028777 0 0 Z " fill="#B49964" transform="translate(7,64)"/>
<path d="M0 0 C0.33 0 0.66 0 1 0 C1.33489329 4.8046935 1.65603763 9.61003174 1.96435547 14.41650391 C2.07123436 16.05217319 2.18189657 17.68759976 2.29638672 19.32275391 C2.46010739 21.67036593 2.61029452 24.01850873 2.7578125 26.3671875 C2.81188263 27.10057343 2.86595276 27.83395935 2.92166138 28.58956909 C3.027998 30.39009779 3.0234086 32.1964859 3 34 C2.34 34.66 1.68 35.32 1 36 C-2.99752582 29.33745696 -2.12579119 21.0454656 -2.0625 13.5625 C-2.05798828 12.54478516 -2.05347656 11.52707031 -2.04882812 10.47851562 C-2.03712437 7.98561491 -2.02072848 5.49283926 -2 3 C-1.34 3 -0.68 3 0 3 C0 2.01 0 1.02 0 0 Z " fill="#907037" transform="translate(6,78)"/>
<path d="M0 0 C0.99 0.33 1.98 0.66 3 1 C-5.55274722 12.02854247 -17.89347204 18.63115735 -31 23 C-32.56118428 23.06740865 -34.1250252 23.08514456 -35.6875 23.0625 C-36.89986328 23.04896484 -36.89986328 23.04896484 -38.13671875 23.03515625 C-38.75160156 23.02355469 -39.36648437 23.01195312 -40 23 C-40 22.67 -40 22.34 -40 22 C-39.24976562 21.84144531 -38.49953125 21.68289062 -37.7265625 21.51953125 C-30.53127623 19.87929597 -24.43394042 17.58686574 -18 14 C-17.36320312 13.67 -16.72640625 13.34 -16.0703125 13 C-9.87053252 9.69345068 -4.84195193 5.03563001 0 0 Z " fill="#CDA344" transform="translate(141,139)"/>
<path d="M0 0 C0.99 0 1.98 0 3 0 C4.2263757 2.45275141 4.11415314 4.0505781 4.09765625 6.7890625 C4.09282227 8.20058594 4.09282227 8.20058594 4.08789062 9.640625 C4.07951172 10.62546875 4.07113281 11.6103125 4.0625 12.625 C4.05798828 13.61757812 4.05347656 14.61015625 4.04882812 15.6328125 C4.03702145 18.0886016 4.020554 20.54427104 4 23 C2.02 23.99 2.02 23.99 0 25 C0 16.75 0 8.5 0 0 Z " fill="#FEFDF9" transform="translate(165,75)"/>
<path d="M0 0 C1.32 0.66 2.64 1.32 4 2 C3.69976385 7.85460493 1.00162367 12.79475388 -3 17 C-5.703125 17.76171875 -5.703125 17.76171875 -8 18 C-6.52232949 11.35048271 -3.37863948 5.8754328 0 0 Z " fill="#AC822D" transform="translate(162,124)"/>
<path d="M0 0 C2.99404565 1.36153069 5.24828197 2.92612421 7.6875 5.125 C9.91356283 7.12595535 12.13819372 9.11806842 14.4140625 11.0625 C15.20554687 11.743125 15.99703125 12.42375 16.8125 13.125 C17.90498047 14.05699219 17.90498047 14.05699219 19.01953125 15.0078125 C24.04490564 20.06292283 25.04095671 24.9294203 25.0625 31.8125 C25.04655989 33.20839779 25.02736707 34.60427948 25 36 C22.59798496 31.80120206 22.84135851 28.75924459 23 24 C22.34 24 21.68 24 21 24 C19.78125 22.28515625 19.78125 22.28515625 18.5 20.0625 C16.81545121 16.94567974 16.81545121 16.94567974 14 15 C14 14.34 14 13.68 14 13 C13.34 13 12.68 13 12 13 C12 12.34 12 11.68 12 11 C11.42765625 10.7421875 10.8553125 10.484375 10.265625 10.21875 C7.78871005 8.88634058 5.8658834 7.34943882 3.75 5.5 C3.04359375 4.8915625 2.3371875 4.283125 1.609375 3.65625 C0 2 0 2 0 0 Z " fill="#92743C" transform="translate(58,76)"/>
<path d="M0 0 C0.66 0.33 1.32 0.66 2 1 C2.05402274 3.10388569 2.09280256 5.20816714 2.125 7.3125 C2.14820312 8.48425781 2.17140625 9.65601563 2.1953125 10.86328125 C2 14 2 14 0 17 C-3.73487777 16.5020163 -5.81237635 16.12508244 -9 14 C-11.5983453 13.42854895 -11.5983453 13.42854895 -14.4375 13.1875 C-15.85869141 13.02314453 -15.85869141 13.02314453 -17.30859375 12.85546875 C-20.51366735 13.02758446 -21.58453281 13.9897419 -24 16 C-26.25 15.6875 -26.25 15.6875 -28 15 C-23.44481072 11.06037684 -19.95435048 10.39642251 -13.96875 10.59375 C-8.96337525 11.27869602 -4.65467522 13.06558952 0 15 C0 10.05 0 5.1 0 0 Z " fill="#BF963B" transform="translate(125,47)"/>
<path d="M0 0 C0.98120464 3.05263664 0.98120464 4.94736336 0 8 C-0.66 8 -1.32 8 -2 8 C-2 10.64 -2 13.28 -2 16 C-1.34 16 -0.68 16 0 16 C0.66 14.68 1.32 13.36 2 12 C1.34 17.61 0.68 23.22 0 29 C-2 25 -2 25 -2 21 C-2.66 21 -3.32 21 -4 21 C-4 22.98 -4 24.96 -4 27 C-4.66 27.33 -5.32 27.66 -6 28 C-6.258497 18.34944545 -4.33105183 8.66210365 0 0 Z " fill="#F9F2DE" transform="translate(15,54)"/>
<path d="M0 0 C0.495 1.485 0.495 1.485 1 3 C-0.98 2.67 -2.96 2.34 -5 2 C-5 1.34 -5 0.68 -5 0 C-6.134375 -0.12375 -7.26875 -0.2475 -8.4375 -0.375 C-11.38541473 -0.73162328 -14.16217154 -1.27622935 -17.03125 -2.03125 C-22.7072458 -3.31808226 -28.26933803 -3.22002979 -34.0625 -3.125 C-35.11888672 -3.11597656 -36.17527344 -3.10695313 -37.26367188 -3.09765625 C-39.84269253 -3.0743167 -42.4212199 -3.04157775 -45 -3 C-45 -3.33 -45 -3.66 -45 -4 C-29.70296774 -5.86810604 -14.26209795 -6.83271899 0 0 Z " fill="#CFA23B" transform="translate(120,21)"/>
<path d="M0 0 C0.66 0.33 1.32 0.66 2 1 C-1.752768 5.45573607 -5.40322336 9.39712101 -10 13 C-13.74333693 16.98484254 -16.09516087 21.67737677 -18.6328125 26.4765625 C-20 29 -20 29 -22 32 C-22.66 32 -23.32 32 -24 32 C-20.49780141 22.7535411 -14.79536121 14.17207633 -8 7 C-7.01 6.67 -6.02 6.34 -5 6 C-4.3162955 4.67532254 -3.65035814 3.34136367 -3 2 C-2.01 1.34 -1.02 0.68 0 0 Z " fill="#F8EFD5" transform="translate(33,22)"/>
<path d="M0 0 C3.82386347 3.52972012 7.26747509 7.56420123 10 12 C10 12.99 10 13.98 10 15 C7.69921875 15.234375 7.69921875 15.234375 5 15 C3.26953125 13.390625 3.26953125 13.390625 1.8125 11.25 C1.32394531 10.55390625 0.83539062 9.8578125 0.33203125 9.140625 C-0.91308304 7.13967888 -1.98904462 5.12731843 -3 3 C-2.34 3 -1.68 3 -1 3 C-0.67 2.01 -0.34 1.02 0 0 Z " fill="#B99649" transform="translate(19,132)"/>
<path d="M0 0 C1.06750488 -0.00531738 2.13500977 -0.01063477 3.23486328 -0.01611328 C10.98805901 0.05453934 10.98805901 0.05453934 14.375 2.3125 C13.4778125 2.28929687 12.580625 2.26609375 11.65625 2.2421875 C3.334825 2.12183631 -4.62112105 2.65476672 -12.859375 3.80078125 C-17.76925486 4.46799521 -22.68703428 4.91495191 -27.625 5.3125 C-21.21148826 -1.10101174 -8.40386316 0.02128194 0 0 Z " fill="#F6E6BA" transform="translate(90.625,7.6875)"/>
<path d="M0 0 C0.99 0.33 1.98 0.66 3 1 C2.01 1.33 1.02 1.66 0 2 C0 2.66 0 3.32 0 4 C-3.61383593 5.80691796 -7.82661132 5.47682935 -11.8125 5.6875 C-12.71548828 5.74744141 -13.61847656 5.80738281 -14.54882812 5.86914062 C-19.18131468 6.11761345 -22.80082807 6.29766011 -27 4 C-27 3.34 -27 2.68 -27 2 C-26.32420898 2.01047363 -25.64841797 2.02094727 -24.95214844 2.03173828 C-21.88480358 2.07335976 -18.81751822 2.09934573 -15.75 2.125 C-14.68652344 2.14175781 -13.62304688 2.15851563 -12.52734375 2.17578125 C-11.50253906 2.18222656 -10.47773437 2.18867188 -9.421875 2.1953125 C-8.00793457 2.21102295 -8.00793457 2.21102295 -6.56542969 2.22705078 C-3.87795273 1.98919833 -2.37526277 1.18888615 0 0 Z " fill="#C39E4F" transform="translate(82,132)"/>
<path d="M0 0 C5.70406273 0.12056143 10.05876303 1.43996345 14.90014648 4.37890625 C13.57870541 7.16998741 12.09632287 9.63677014 10.27514648 12.12890625 C9.82913086 12.7425 9.38311523 13.35609375 8.92358398 13.98828125 C8.41698242 14.67664063 8.41698242 14.67664063 7.90014648 15.37890625 C5.42514648 13.89390625 5.42514648 13.89390625 2.90014648 12.37890625 C3.56014648 12.04890625 4.22014648 11.71890625 4.90014648 11.37890625 C5.89014648 11.70890625 6.88014648 12.03890625 7.90014648 12.37890625 C9.3139199 9.73986254 10.27254783 7.30769996 10.90014648 4.37890625 C8.59014648 4.04890625 6.28014648 3.71890625 3.90014648 3.37890625 C3.90014648 2.71890625 3.90014648 2.05890625 3.90014648 1.37890625 C-1.04985352 1.70890625 -5.99985352 2.03890625 -11.09985352 2.37890625 C-7.92643901 -0.79450825 -4.31787332 0.00827873 0 0 Z " fill="#FAEBC1" transform="translate(71.099853515625,43.62109375)"/>
<path d="M0 0 C0.66 0.66 1.32 1.32 2 2 C1.29875 2.02578125 0.5975 2.0515625 -0.125 2.078125 C-7.94009928 2.54533202 -13.48705147 3.93742948 -19.4375 9.125 C-21.6914226 13.27221759 -21.81902125 17.33979712 -22 22 C-22.12375 21.360625 -22.2475 20.72125 -22.375 20.0625 C-22.58125 19.381875 -22.7875 18.70125 -23 18 C-23.66 17.67 -24.32 17.34 -25 17 C-22.90702767 10.82573163 -21.03310391 6.17761306 -15.5625 2.25 C-10.45773892 -0.24012736 -5.58571597 -0.27470734 0 0 Z " fill="#CCA03E" transform="translate(74,41)"/>
<path d="M0 0 C0.99 0.33 1.98 0.66 3 1 C2.65066406 1.45890625 2.30132812 1.9178125 1.94140625 2.390625 C1.48636719 3.00421875 1.03132813 3.6178125 0.5625 4.25 C0.11003906 4.85328125 -0.34242187 5.4565625 -0.80859375 6.078125 C-2.03900997 8.06292756 -2.56112668 9.71987655 -3 12 C-2.01 12 -1.02 12 0 12 C0 12.66 0 13.32 0 14 C0.84884766 14.29003906 0.84884766 14.29003906 1.71484375 14.5859375 C2.44832031 14.84632813 3.18179688 15.10671875 3.9375 15.375 C4.66839844 15.63023437 5.39929688 15.88546875 6.15234375 16.1484375 C8 17 8 17 9 19 C2.87903309 17.94513949 -1.75506674 16.34782974 -7 13 C-6.36610765 9.50155614 -4.94822306 7.15913124 -2.9375 4.25 C-2.38964844 3.45078125 -1.84179688 2.6515625 -1.27734375 1.828125 C-0.85582031 1.22484375 -0.43429688 0.6215625 0 0 Z " fill="#FBF4DD" transform="translate(49,115)"/>
<path d="M0 0 C1.65 0 3.3 0 5 0 C5 4.62 5 9.24 5 14 C2.03 13.505 2.03 13.505 -1 13 C-3.45741895 12.63954347 -5.91578641 12.28550192 -8.375 11.9375 C-9.62023437 11.76089844 -10.86546875 11.58429687 -12.1484375 11.40234375 C-13.08945313 11.26957031 -14.03046875 11.13679688 -15 11 C-15 10.34 -15 9.68 -15 9 C-12.91673869 8.97290556 -10.83337559 8.95356127 -8.75 8.9375 C-7.58984375 8.92589844 -6.4296875 8.91429687 -5.234375 8.90234375 C-2.57535611 8.98262814 -0.53512411 9.33000291 2 10 C3.49743119 8.50256881 3.33202693 7.01175761 3.5625 4.9375 C3.706875 3.638125 3.85125 2.33875 4 1 C2.68 0.67 1.36 0.34 0 0 Z " fill="#FAF1D1" transform="translate(119,47)"/>
<path d="M0 0 C4.8039428 7.20591419 3.8482057 17.38911437 2.328125 25.65234375 C1.61996412 28.46160461 0.86492424 31.23533144 0 34 C-0.66 34 -1.32 34 -2 34 C-1.8570752 33.34733154 -1.71415039 32.69466309 -1.56689453 32.0222168 C-0.11833515 24.86987577 0.2464523 18.09496676 0.125 10.8125 C0.11597656 9.76513672 0.10695312 8.71777344 0.09765625 7.63867188 C0.07440075 5.09219486 0.04172569 2.54622969 0 0 Z " fill="#92743C" transform="translate(161,75)"/>
<path d="M0 0 C0 1.32 0 2.64 0 4 C-1.98 4.33 -3.96 4.66 -6 5 C-6 5.66 -6 6.32 -6 7 C-8.97 7 -11.94 7 -15 7 C-14 5 -14 5 -11 4 C-12.32 3.67 -13.64 3.34 -15 3 C-13.0636296 2.49564306 -11.12585854 1.99666126 -9.1875 1.5 C-8.10855469 1.2215625 -7.02960938 0.943125 -5.91796875 0.65625 C-3 0 -3 0 0 0 Z " fill="#FCF6DE" transform="translate(122,159)"/>
<path d="M0 0 C3 0 3 0 5.1875 2.125 C5.6103125 2.57746094 6.033125 3.02992187 6.46875 3.49609375 C8.84716652 5.83203855 11.535603 7.7150928 14.23046875 9.66796875 C16 11 16 11 18 13 C13.25 12.125 13.25 12.125 11 11 C11 10.34 11 9.68 11 9 C9.68 9 8.36 9 7 9 C7 8.34 7 7.68 7 7 C4.525 6.01 4.525 6.01 2 5 C0.68 6.65 -0.64 8.3 -2 10 C-2.66 9.67 -3.32 9.34 -4 9 C-2.68 6.03 -1.36 3.06 0 0 Z " fill="#AA8B4C" transform="translate(95,116)"/>
<path d="M0 0 C-0.61975785 3.355762 -1.84462848 5.52263528 -3.875 8.25 C-4.64457031 9.30960938 -4.64457031 9.30960938 -5.4296875 10.390625 C-5.94789062 10.92171875 -6.46609375 11.4528125 -7 12 C-7.99 12 -8.98 12 -10 12 C-10.99 12.66 -11.98 13.32 -13 14 C-10.78865207 9.40720046 -8.32815217 4.8828442 -5 1 C-2 0 -2 0 0 0 Z " fill="#CCA44A" transform="translate(28,33)"/>
<path d="M0 0 C0.33 0.99 0.66 1.98 1 3 C1.66 3 2.32 3 3 3 C2.50769231 9.4 2.50769231 9.4 -0.0625 12.4375 C-1.0215625 13.2109375 -1.0215625 13.2109375 -2 14 C-2 12.68 -2 11.36 -2 10 C-1.34 10 -0.68 10 0 10 C0 9.01 0 8.02 0 7 C-0.598125 7.66 -1.19625 8.32 -1.8125 9 C-4 11 -4 11 -7 11 C-5.22054913 6.95579349 -2.60470327 3.53921513 0 0 Z " fill="#F9F1D9" transform="translate(153,128)"/>
<path d="M0 0 C0.33 0 0.66 0 1 0 C1.27714844 1.25296875 1.55429688 2.5059375 1.83984375 3.796875 C2.20570096 5.44792292 2.57158793 7.09896424 2.9375 8.75 C3.21110352 9.9875 3.21110352 9.9875 3.49023438 11.25 C3.66748047 12.04921875 3.84472656 12.8484375 4.02734375 13.671875 C4.18968506 14.4050293 4.35202637 15.13818359 4.51928711 15.89355469 C4.98553546 17.93661753 5.48420649 19.96893762 6 22 C4.35 22 2.7 22 1 22 C-0.82050895 16.75265067 -0.97580229 13.56207306 0 8 C0.08945107 5.3258839 0.04695837 2.67662726 0 0 Z " fill="#A78B56" transform="translate(8,99)"/>
<path d="M0 0 C0.33 0.66 0.66 1.32 1 2 C1.66 2 2.32 2 3 2 C3.33 1.34 3.66 0.68 4 0 C5.59138085 4.17737474 6.21278058 7.53160785 6 12 C5.34 12 4.68 12 4 12 C4 13.65 4 15.3 4 17 C3.67 17 3.34 17 3 17 C2.49453964 14.91798472 1.99583165 12.83432933 1.5 10.75 C1.2215625 9.58984375 0.943125 8.4296875 0.65625 7.234375 C0 4 0 4 0 0 Z " fill="#AE8531" transform="translate(166,59)"/>
<path d="M0 0 C1.37432457 3.81756824 0.67975039 7.07255329 0 11 C-1.32 11 -2.64 11 -4 11 C-4 16.94 -4 22.88 -4 29 C-4.33 29 -4.66 29 -5 29 C-5 22.07 -5 15.14 -5 8 C-4.34 8 -3.68 8 -3 8 C-2.87625 6.865625 -2.7525 5.73125 -2.625 4.5625 C-2.41875 3.386875 -2.2125 2.21125 -2 1 C-1.34 0.67 -0.68 0.34 0 0 Z " fill="#AA8E55" transform="translate(8,70)"/>
<path d="M0 0 C0.12375 0.639375 0.2475 1.27875 0.375 1.9375 C0.684375 2.9584375 0.684375 2.9584375 1 4 C1.66 4.33 2.32 4.66 3 5 C1.35 7.31 -0.3 9.62 -2 12 C-4.475 11.01 -4.475 11.01 -7 10 C-2.85714286 2.42857143 -2.85714286 2.42857143 0 0 Z " fill="#C9A34C" transform="translate(86,49)"/>
<path d="M0 0 C0.66 0.99 1.32 1.98 2 3 C1.4225 3.185625 0.845 3.37125 0.25 3.5625 C-3.80804517 6.15513997 -5.50147318 10.50441954 -7 15 C-7.99 15 -8.98 15 -10 15 C-10 15.66 -10 16.32 -10 17 C-10.66 17 -11.32 17 -12 17 C-10.58707905 12.1725201 -8.57025846 8.2837641 -6 4 C-5.01 4 -4.02 4 -3 4 C-3 3.34 -3 2.68 -3 2 C-2.01 1.34 -1.02 0.68 0 0 Z " fill="#CBA142" transform="translate(32,44)"/>
<path d="M0 0 C0.75 1.5625 0.75 1.5625 1 4 C0.04509802 6.63460909 -1.19419973 8.85455078 -3 11 C-5.5625 11.875 -5.5625 11.875 -8 12 C-8.99 12.33 -9.98 12.66 -11 13 C-12.73324119 12.91538508 -14.46392812 12.76395645 -16.1875 12.5625 C-17.08855469 12.46066406 -17.98960938 12.35882813 -18.91796875 12.25390625 C-19.60503906 12.17011719 -20.29210938 12.08632812 -21 12 C-21 11.34 -21 10.68 -21 10 C-20.13117187 9.97421875 -19.26234375 9.9484375 -18.3671875 9.921875 C-9.32569011 9.64374046 -9.32569011 9.64374046 -2 5 C-0.58809436 2.39562767 -0.58809436 2.39562767 0 0 Z " fill="#F0E6CA" transform="translate(83,113)"/>
<path d="M0 0 C2.28089644 2.12839465 3.89945912 4.26480192 5.5 6.9375 C8.66847181 12.70077956 8.66847181 12.70077956 14 16 C14 16.66 14 17.32 14 18 C10.53188264 17.7271586 9.24762136 17.2577194 6.796875 14.70703125 C6.12140625 13.75183594 5.4459375 12.79664062 4.75 11.8125 C4.06421875 10.87019531 3.3784375 9.92789063 2.671875 8.95703125 C0.92886122 5.87417744 0.35252805 3.49935935 0 0 Z " fill="#8E713A" transform="translate(96,91)"/>
<path d="M0 0 C0.33 0 0.66 0 1 0 C1 6.93 1 13.86 1 21 C-2 18 -2 18 -2.29296875 14.42578125 C-2.27309338 13.05438087 -2.23741111 11.68313595 -2.1875 10.3125 C-2.17396484 9.61060547 -2.16042969 8.90871094 -2.14648438 8.18554688 C-2.11120182 6.45670171 -2.05739583 4.72825235 -2 3 C-1.34 3 -0.68 3 0 3 C0 2.01 0 1.02 0 0 Z " fill="#89692F" transform="translate(6,78)"/>
<path d="M0 0 C0.99 0 1.98 0 3 0 C4.25160789 1.44923019 5.4964935 2.90625821 6.671875 4.41796875 C8.08703821 6.21343823 8.08703821 6.21343823 10.625 8.0625 C13.17325555 10.14134006 14.47531509 12.11112333 16 15 C11.82192316 13.62456232 9.37645833 11.7565839 6.3125 8.625 C5.54550781 7.85414063 4.77851562 7.08328125 3.98828125 6.2890625 C2.20404739 4.23491507 1.06112338 2.48541197 0 0 Z " fill="#CDA853" transform="translate(31,136)"/>
<path d="M0 0 C0.91644287 0.00523682 1.83288574 0.01047363 2.77709961 0.01586914 C3.76645508 0.0190918 4.75581055 0.02231445 5.77514648 0.02563477 C6.81606445 0.03401367 7.85698242 0.04239258 8.92944336 0.05102539 C10.49662109 0.05779297 10.49662109 0.05779297 12.09545898 0.06469727 C14.68600996 0.07652627 17.27644895 0.0930085 19.86694336 0.11352539 C19.86694336 0.44352539 19.86694336 0.77352539 19.86694336 1.11352539 C16.68004103 1.45273991 13.49234232 1.78381956 10.30444336 2.11352539 C9.40918945 2.20891602 8.51393555 2.30430664 7.59155273 2.40258789 C2.65203548 2.90920505 -2.16793678 3.22249921 -7.13305664 3.11352539 C-6.49368164 2.80415039 -5.85430664 2.49477539 -5.19555664 2.17602539 C-1.08344107 0.05766282 -1.08344107 0.05766282 0 0 Z " fill="#CE9F37" transform="translate(102.133056640625,43.886474609375)"/>
<path d="M0 0 C1.65 0.33 3.3 0.66 5 1 C0.57763179 5.27495594 -4.19839226 6.51298598 -10 8 C-9.67 6.35 -9.34 4.7 -9 3 C-4.545 2.505 -4.545 2.505 0 2 C0 1.34 0 0.68 0 0 Z " fill="#CD9D32" transform="translate(127,163)"/>
<path d="M0 0 C0.33 0 0.66 0 1 0 C1.5497272 5.63470383 -0.04952165 8.38987758 -3 13 C-3.33 11.68 -3.66 10.36 -4 9 C-4.66 9 -5.32 9 -6 9 C-6 8.01 -6 7.02 -6 6 C-5.34 6 -4.68 6 -4 6 C-3.71125 5.38125 -3.4225 4.7625 -3.125 4.125 C-2 2 -2 2 0 0 Z " fill="#FDF9ED" transform="translate(160,122)"/>
<path d="M0 0 C2.03833424 1.2739589 4.03852126 2.61061923 6 4 C6 4.66 6 5.32 6 6 C7.65 6 9.3 6 11 6 C11 6.66 11 7.32 11 8 C13.97 8.495 13.97 8.495 17 9 C17 9.66 17 10.32 17 11 C12.09690194 10.47729735 8.81611493 8.9987369 4.625 6.4375 C3.56539063 5.79683594 2.50578125 5.15617187 1.4140625 4.49609375 C0.21910156 3.75552734 0.21910156 3.75552734 -1 3 C-0.67 2.01 -0.34 1.02 0 0 Z " fill="#A6884D" transform="translate(112,111)"/>
<path d="M0 0 C1.8125 0.125 1.8125 0.125 4 1 C7.146948 5.88319518 7.146948 5.88319518 6.6875 9.375 C6.460625 9.91125 6.23375 10.4475 6 11 C4.68 10.34 3.36 9.68 2 9 C2 7.68 2 6.36 2 5 C1.34 5 0.68 5 0 5 C0 3.35 0 1.7 0 0 Z " fill="#FDFAEB" transform="translate(33,142)"/>
<path d="M0 0 C3.14958831 3.42346555 3.56179109 6.44262737 4 11 C2.68 11 1.36 11 0 11 C-1.85776765 7.86501708 -2.20140476 5.62528568 -2 2 C-1.34 2 -0.68 2 0 2 C0 1.34 0 0.68 0 0 Z " fill="#BE943B" transform="translate(165,50)"/>
<path d="M0 0 C0.67933594 0.2784375 1.35867187 0.556875 2.05859375 0.84375 C6.56811552 2.61641726 11.14980698 4.18050874 15.72265625 5.78125 C18.26671854 6.72731369 20.61652357 7.7161324 23 9 C18.23114673 10.54738882 15.42460886 9.29450637 10.9375 7.3125 C9.72964844 6.79300781 8.52179687 6.27351562 7.27734375 5.73828125 C4.21033395 4.11155972 2.26610994 2.59387646 0 0 Z " fill="#A6884B" transform="translate(47,165)"/>
<path d="M0 0 C0.6640625 1.76953125 0.6640625 1.76953125 1 4 C-1.08529225 7.78645171 -3.76243431 10.59644597 -7.875 11.9375 C-8.57625 11.958125 -9.2775 11.97875 -10 12 C-9.61328125 11.55269531 -9.2265625 11.10539063 -8.828125 10.64453125 C-5.81609925 7.1478974 -2.85678969 3.62592537 0 0 Z " fill="#C39D4C" transform="translate(154,138)"/>
<path d="M0 0 C0.66 0.33 1.32 0.66 2 1 C1.401875 1.556875 0.80375 2.11375 0.1875 2.6875 C-2.06096128 4.89807049 -2.06096128 4.89807049 -3.5 7.5 C-5.07109258 10.11848764 -6.70127393 11.99788375 -9 14 C-9.66 14 -10.32 14 -11 14 C-11 14.66 -11 15.32 -11 16 C-11.66 15.67 -12.32 15.34 -13 15 C-11.58611621 13.24775086 -10.16877217 11.49829345 -8.75 9.75 C-7.96109375 8.77546875 -7.1721875 7.8009375 -6.359375 6.796875 C-4.33534195 4.39752456 -2.25877651 2.17588563 0 0 Z " fill="#D2AD58" transform="translate(40,32)"/>
<path d="M0 0 C3.52081558 -0.02927632 7.04159939 -0.04689119 10.5625 -0.0625 C11.55314453 -0.07087891 12.54378906 -0.07925781 13.56445312 -0.08789062 C27.59322269 -0.13449783 27.59322269 -0.13449783 30.9375 2.5625 C31.288125 3.036875 31.63875 3.51125 32 4 C24.375 3.125 24.375 3.125 21 2 C19.37432921 1.85284801 17.74413143 1.75278133 16.11328125 1.68359375 C15.17548828 1.64169922 14.23769531 1.59980469 13.27148438 1.55664062 C12.29501953 1.51732422 11.31855469 1.47800781 10.3125 1.4375 C9.32443359 1.39431641 8.33636719 1.35113281 7.31835938 1.30664062 C4.87904454 1.20058346 2.43962887 1.09852286 0 1 C0 0.67 0 0.34 0 0 Z " fill="#F8E9BA" transform="translate(80,14)"/>
<path d="M0 0 C3.06819178 2.60888163 4.44860146 5.62763129 6.125 9.25 C6.64320313 10.34828125 7.16140625 11.4465625 7.6953125 12.578125 C9.03459746 16.09074064 9.61201329 19.27154231 10 23 C9.34 23 8.68 23 8 23 C7.67386719 21.98679687 7.34773437 20.97359375 7.01171875 19.9296875 C6.57055764 18.57804496 6.12913758 17.22648693 5.6875 15.875 C5.36749023 14.87726562 5.36749023 14.87726562 5.04101562 13.859375 C3.67439114 9.69830941 1.98154853 5.91660912 0 2 C0 1.34 0 0.68 0 0 Z " fill="#9B7E44" transform="translate(165,48)"/>
<path d="M0 0 C1.5625 1.1875 1.5625 1.1875 3 3 C2.875 5.5625 2.875 5.5625 2 8 C-1 10 -1 10 -4 10 C-2.99806563 6.20696275 -2.18975773 3.28463659 0 0 Z " fill="#B6903E" transform="translate(158,132)"/>
<path d="M0 0 C-0.96355353 9.41002278 -0.96355353 9.41002278 -2 14 C-4.19007834 11.62741513 -4.965678 10.23535087 -5.4375 7 C-5.02376748 4.16297701 -3.57867577 0 0 0 Z " fill="#B7954D" transform="translate(13,56)"/>
<path d="M0 0 C0.56847656 0.144375 1.13695313 0.28875 1.72265625 0.4375 C6.62262205 1.61545505 10.9645312 2.21427527 16 2 C16 2.66 16 3.32 16 4 C13 6 13 6 10.25 5.8125 C6.5751982 4.89379955 3.43787652 3.5814232 0 2 C0 1.34 0 0.68 0 0 Z " fill="#C29B48" transform="translate(121,133)"/>
<path d="M0 0 C2.87591408 1.43795704 3.54543887 3.14063903 5 6 C5.68807774 8.58575248 6.26720932 11.06772533 6.75 13.6875 C6.88792969 14.36361328 7.02585938 15.03972656 7.16796875 15.73632812 C8.13277885 20.7344423 8.13277885 20.7344423 7 23 C6.731875 22.05125 6.46375 21.1025 6.1875 20.125 C4.25693997 13.37488587 2.27289629 6.64385068 0 0 Z " fill="#F1E6C9" transform="translate(171,58)"/>
<path d="M0 0 C2.35717369 2.94646711 4.18133081 6.03584163 6.015625 9.31640625 C7.19571143 11.33472868 8.54033195 13.17541494 10 15 C8.68 15.33 7.36 15.66 6 16 C4.9901527 14.08850332 3.99245505 12.17058431 3 10.25 C2.443125 9.18265625 1.88625 8.1153125 1.3125 7.015625 C0 4 0 4 0 0 Z " fill="#AE8C47" transform="translate(50,61)"/>
<path d="M0 0 C2.0625 0.4375 2.0625 0.4375 4 1 C4 2.98 4 4.96 4 7 C2.68 7.33 1.36 7.66 0 8 C-2 5 -2 5 -1.6875 2.875 C-1 1 -1 1 0 0 Z " fill="#FDFAE9" transform="translate(154,45)"/>
<path d="M0 0 C1.39195915 4.17587745 -0.17676781 6.13474776 -2 10 C-2.66 10 -3.32 10 -4 10 C-4.33 13.63 -4.66 17.26 -5 21 C-5.66 20.67 -6.32 20.34 -7 20 C-6.13063595 12.2146503 -4.83178785 6.27025904 0 0 Z " fill="#ECDEBB" transform="translate(86,57)"/>
<path d="M0 0 C0.33 0 0.66 0 1 0 C1 3.3 1 6.6 1 10 C1.66 10.33 2.32 10.66 3 11 C3 12.32 3 13.64 3 15 C3.66 15 4.32 15 5 15 C4.67 17.31 4.34 19.62 4 22 C-0.52485198 15.21272203 -0.26070945 7.87921889 0 0 Z " fill="#A28754" transform="translate(92,72)"/>
<path d="M0 0 C0.33 0 0.66 0 1 0 C0.67 4.29 0.34 8.58 0 13 C-0.66 13 -1.32 13 -2 13 C-2 14.65 -2 16.3 -2 18 C-2.33 18 -2.66 18 -3 18 C-3.36517527 11.42684522 -2.13619737 6.20514474 0 0 Z " fill="#B3955A" transform="translate(18,64)"/>
<path d="M0 0 C0.66 0 1.32 0 2 0 C1.50886719 1.48693359 1.50886719 1.48693359 1.0078125 3.00390625 C-0.13913622 7.01822678 -0.19896279 10.75860244 -0.125 14.9375 C-0.11597656 15.62134766 -0.10695313 16.30519531 -0.09765625 17.00976562 C-0.07438958 18.67333287 -0.03853167 20.33671631 0 22 C-2.57528248 18.13707629 -2.29454471 14.91053122 -2.25 10.4375 C-2.25773437 9.65697266 -2.26546875 8.87644531 -2.2734375 8.07226562 C-2.25335498 2.25335498 -2.25335498 2.25335498 0 0 Z " fill="#F9F2DA" transform="translate(93,65)"/>
<path d="M0 0 C0 0.66 0 1.32 0 2 C-4.49656104 4.24828052 -8.07872966 4.16682272 -13 4 C-12 2 -12 2 -9.3125 0.875 C-6.0420565 0.01110926 -3.36293818 -0.16013991 0 0 Z " fill="#CDA13E" transform="translate(74,7)"/>
<path d="M0 0 C0.66 0 1.32 0 2 0 C2 0.99 2 1.98 2 3 C1.34 3 0.68 3 0 3 C0.0825 3.763125 0.165 4.52625 0.25 5.3125 C0 8 0 8 -2 9.8125 C-2.66 10.204375 -3.32 10.59625 -4 11 C-4.64453125 9.234375 -4.64453125 9.234375 -5 7 C-4.07421875 5.078125 -4.07421875 5.078125 -2.6875 3.25 C-2.23761719 2.63640625 -1.78773438 2.0228125 -1.32421875 1.390625 C-0.88722656 0.93171875 -0.45023438 0.4728125 0 0 Z " fill="#FEFAEE" transform="translate(151,135)"/>
<path d="M0 0 C1.890625 0.6796875 1.890625 0.6796875 4 2 C5.046875 4.3828125 5.046875 4.3828125 5.75 7.125 C5.99234375 8.03507812 6.2346875 8.94515625 6.484375 9.8828125 C6.73960938 10.93082031 6.73960938 10.93082031 7 12 C6.01 12 5.02 12 4 12 C3.3291288 10.3767313 2.66342971 8.75132422 2 7.125 C1.62875 6.22007813 1.2575 5.31515625 0.875 4.3828125 C0 2 0 2 0 0 Z " fill="#A7884D" transform="translate(18,113)"/>
<path d="M0 0 C1.40570876 4.53991867 0.61696372 8.33849636 0 13 C-2.31 11.35 -4.62 9.7 -7 8 C-5 7 -5 7 -2 7 C-1.855625 6.21625 -1.71125 5.4325 -1.5625 4.625 C-1 2 -1 2 0 0 Z " fill="#A78541" transform="translate(80,64)"/>
<path d="M0 0 C0 0.99 0 1.98 0 3 C-0.66 3 -1.32 3 -2 3 C-2 3.66 -2 4.32 -2 5 C-4.97 5 -7.94 5 -11 5 C-9.70976282 2.41952564 -8.72910609 2.32977036 -6.0625 1.375 C-5.35222656 1.11460937 -4.64195313 0.85421875 -3.91015625 0.5859375 C-2 0 -2 0 0 0 Z " fill="#FDFCF6" transform="translate(118,161)"/>
<path d="M0 0 C0 0.99 0 1.98 0 3 C-4.62730711 4.0448758 -9.28853878 4.51756279 -14 5 C-9.39196664 1.92797776 -5.67939822 -0.50112337 0 0 Z " fill="#D3AA4D" transform="translate(132,161)"/>
<path d="M0 0 C0.33 0 0.66 0 1 0 C1.25561761 3.08173669 1.47482039 6.16502624 1.6875 9.25 C1.76033203 10.12269531 1.83316406 10.99539062 1.90820312 11.89453125 C1.96298828 12.73886719 2.01777344 13.58320312 2.07421875 14.453125 C2.13182373 15.22817383 2.18942871 16.00322266 2.2487793 16.80175781 C2 19 2 19 -1 23 C-0.67 15.41 -0.34 7.82 0 0 Z " fill="#886931" transform="translate(171,83)"/>
<path d="M0 0 C2.01822917 0.06510417 4.03645833 0.13020833 6.0546875 0.1953125 C6.0546875 0.5253125 6.0546875 0.8553125 6.0546875 1.1953125 C3.7446875 1.5253125 1.4346875 1.8553125 -0.9453125 2.1953125 C-0.6153125 5.1653125 -0.2853125 8.1353125 0.0546875 11.1953125 C-3.84378966 7.9059724 -3.84378966 7.9059724 -4.3203125 4.5703125 C-3.85040466 1.59422954 -3.11583436 0.31283477 0 0 Z " fill="#C4A560" transform="translate(67.9453125,54.8046875)"/>
<path d="M0 0 C5.61 0 11.22 0 17 0 C17.66 1.32 18.32 2.64 19 4 C18.0925 3.690625 17.185 3.38125 16.25 3.0625 C10.95493464 1.52310987 5.47774637 1.34179698 0 1 C0 0.67 0 0.34 0 0 Z " fill="#D3AE59" transform="translate(65,43)"/>
<path d="M0 0 C-4.70406799 1.86540627 -8.94744036 3.36843005 -14 4 C-14 3.34 -14 2.68 -14 2 C-9.38048134 -0.66510692 -5.12794215 -1.46986273 0 0 Z " fill="#95773E" transform="translate(126,172)"/>
<path d="M0 0 C0.66 0.33 1.32 0.66 2 1 C1.38545304 4.99455527 -0.70646737 7.74466336 -3 11 C-4.65 10.01 -6.3 9.02 -8 8 C-7.34 7.67 -6.68 7.34 -6 7 C-5.01 7.33 -4.02 7.66 -3 8 C-1.58622659 5.36095629 -0.62759865 2.92879371 0 0 Z " fill="#FBF2D2" transform="translate(82,48)"/>
<path d="M0 0 C0.33 0.66 0.66 1.32 1 2 C0.0625 4.125 0.0625 4.125 -1 6 C-1.66 6 -2.32 6 -3 6 C-3 6.66 -3 7.32 -3 8 C-3.66 8 -4.32 8 -5 8 C-5 8.66 -5 9.32 -5 10 C-5.99 9.67 -6.98 9.34 -8 9 C-7.04270084 7.87411986 -6.08412105 6.7493285 -5.125 5.625 C-4.59132812 4.99851563 -4.05765625 4.37203125 -3.5078125 3.7265625 C-2.38567993 2.44163349 -1.20628025 1.20628025 0 0 Z " fill="#BE902F" transform="translate(156,141)"/>
<path d="M0 0 C0 0.33 0 0.66 0 1 C-0.60328125 1.03738281 -1.2065625 1.07476562 -1.828125 1.11328125 C-6.58505732 1.5045773 -9.2354533 1.93259158 -13 5 C-15.25 4.6875 -15.25 4.6875 -17 4 C-11.59696035 -0.67289916 -6.95230941 -0.44534366 0 0 Z " fill="#BF9E54" transform="translate(114,58)"/>
<path d="M0 0 C0.33 0.66 0.66 1.32 1 2 C-0.78706284 5.45087996 -2.25853216 8.25853216 -5 11 C-5.99 10.67 -6.98 10.34 -8 10 C-5.36 6.7 -2.72 3.4 0 0 Z " fill="#ECDFBF" transform="translate(163,140)"/>
<path d="M0 0 C1.32 0.66 2.64 1.32 4 2 C3.67 3.32 3.34 4.64 3 6 C2.01 6 1.02 6 0 6 C-0.33 6.66 -0.66 7.32 -1 8 C-1.66 8 -2.32 8 -3 8 C-1.125 2.25 -1.125 2.25 0 0 Z " fill="#B08E4D" transform="translate(162,124)"/>
<path d="M0 0 C3 1 3 1 4.8125 3.8125 C6 7 6 7 5.07421875 9.19921875 C4.71972656 9.79347656 4.36523438 10.38773438 4 11 C3.32591692 9.73308493 2.66099503 8.46129251 2 7.1875 C1.62875 6.47980469 1.2575 5.77210937 0.875 5.04296875 C0 3 0 3 0 0 Z " fill="#C49C46" transform="translate(152,52)"/>
<path d="M0 0 C1.11375 0.1546875 1.11375 0.1546875 2.25 0.3125 C-0.91952847 3.57258643 -4.14937989 6.53487877 -7.75 9.3125 C-7.06213852 4.66943499 -4.92005947 0.55909767 0 0 Z " fill="#D0A035" transform="translate(44.75,30.6875)"/>
<path d="M0 0 C7.75 0.75 7.75 0.75 10 3 C9.01 3.33 8.02 3.66 7 4 C7.33 4.66 7.66 5.32 8 6 C5.69 5.67 3.38 5.34 1 5 C1.99 4.67 2.98 4.34 4 4 C3.04134491 1.66924071 3.04134491 1.66924071 0 0 Z " fill="#CFAC5B" transform="translate(104,5)"/>
<path d="M0 0 C2.475 0.495 2.475 0.495 5 1 C5 1.66 5 2.32 5 3 C5.99 2.67 6.98 2.34 8 2 C9 3 9 3 9.0625 5.5625 C9.041875 6.366875 9.02125 7.17125 9 8 C7.68388323 7.04663979 6.37221039 6.08714226 5.0625 5.125 C4.33160156 4.59132813 3.60070312 4.05765625 2.84765625 3.5078125 C1 2 1 2 0 0 Z " fill="#F4ECD7" transform="translate(61,77)"/>
<path d="M0 0 C0.33 0 0.66 0 1 0 C0.48594831 4.96916636 -0.23384882 9.29026351 -2 14 C-2.33 14 -2.66 14 -3 14 C-3.125 7.375 -3.125 7.375 -2 4 C-1.34 4 -0.68 4 0 4 C0 2.68 0 1.36 0 0 Z " fill="#9E8553" transform="translate(176,106)"/>
<path d="M0 0 C0.66 0.66 1.32 1.32 2 2 C1.625 4.625 1.625 4.625 1 7 C-1.475 6.01 -1.475 6.01 -4 5 C-3.67 4.01 -3.34 3.02 -3 2 C-2.01 2 -1.02 2 0 2 C0 1.34 0 0.68 0 0 Z " fill="#C3993E" transform="translate(83,54)"/>
<path d="M0 0 C1.0625 1.8125 1.0625 1.8125 2 4 C1.67 4.99 1.34 5.98 1 7 C0.01 7 -0.98 7 -2 7 C-2.99 7.66 -3.98 8.32 -5 9 C-3.50163895 5.88801935 -1.80066242 2.9465385 0 0 Z " fill="#C8A659" transform="translate(20,38)"/>
<path d="M0 0 C0 1.65 0 3.3 0 5 C-2.86177057 6.43088528 -4.93375773 5.59991697 -8 5 C-1.87096774 0 -1.87096774 0 0 0 Z " fill="#D2AD59" transform="translate(45,16)"/>
<path d="M0 0 C1.32 0.33 2.64 0.66 4 1 C4 2.65 4 4.3 4 6 C3.01 6 2.02 6 1 6 C0.67 4.02 0.34 2.04 0 0 Z " fill="#9D7B37" transform="translate(10,120)"/>
<path d="M0 0 C4.75 0.875 4.75 0.875 7 2 C7 2.66 7 3.32 7 4 C7.66 4.33 8.32 4.66 9 5 C5.26512223 4.5020163 3.18762365 4.12508244 0 2 C0 1.34 0 0.68 0 0 Z " fill="#AB8F57" transform="translate(55,118)"/>
<path d="M0 0 C0.33 1.32 0.66 2.64 1 4 C-0.96466413 5.06775224 -2.96855359 6.06553465 -5 7 C-5.66 6.67 -6.32 6.34 -7 6 C-4.69 4.02 -2.38 2.04 0 0 Z " fill="#CEA853" transform="translate(143,150)"/>
<path d="M0 0 C3 0 3 0 4.38671875 1.3125 C5.59114583 2.875 6.79557292 4.4375 8 6 C7.01 6.33 6.02 6.66 5 7 C0 1.125 0 1.125 0 0 Z " fill="#C09944" transform="translate(31,136)"/>
<path d="M0 0 C0 0.66 0 1.32 0 2 C-0.66 2 -1.32 2 -2 2 C-2.103125 2.598125 -2.20625 3.19625 -2.3125 3.8125 C-3.08876455 6.28243264 -4.07088921 7.32251235 -6 9 C-6.25 6.75 -6.25 6.75 -6 4 C-2.75675676 0 -2.75675676 0 0 0 Z " fill="#FBF2D0" transform="translate(60,46)"/>
<path d="M0 0 C4.05606165 0.46800711 7.46588679 0.87953208 11 3 C7.44706507 4.14947895 6.20023331 4.0868937 2.6875 2.5625 C1.800625 2.046875 0.91375 1.53125 0 1 C0 0.67 0 0.34 0 0 Z " fill="#A18141" transform="translate(59,171)"/>
<path d="M0 0 C0.66 0.33 1.32 0.66 2 1 C-0.97 4.96 -0.97 4.96 -4 9 C-4.66 8.01 -5.32 7.02 -6 6 C-5.34 6 -4.68 6 -4 6 C-3.34 4.68 -2.68 3.36 -2 2 C-1.34 2 -0.68 2 0 2 C0 1.34 0 0.68 0 0 Z " fill="#BA9648" transform="translate(149,131)"/>
<path d="M0 0 C-2.71182212 2.60334924 -3.89133813 2.99456691 -7.75 3.1875 C-8.8225 3.125625 -9.895 3.06375 -11 3 C-7.63114177 -0.36885823 -4.54278442 -0.10095076 0 0 Z " fill="#FAF2D7" transform="translate(82,132)"/>
<path d="M0 0 C1.45945288 0.08708669 2.91765868 0.19526907 4.375 0.3125 C5.59316406 0.39951172 5.59316406 0.39951172 6.8359375 0.48828125 C9 1 9 1 11 4 C9.53984709 3.71758359 8.08190207 3.42373386 6.625 3.125 C5.81289063 2.96257812 5.00078125 2.80015625 4.1640625 2.6328125 C2 2 2 2 0 0 Z " fill="#F2E5C2" transform="translate(47,130)"/>
<path d="M0 0 C1.32 0.33 2.64 0.66 4 1 C3.67 2.65 3.34 4.3 3 6 C2.01 5.67 1.02 5.34 0 5 C0 3.35 0 1.7 0 0 Z " fill="#AD8940" transform="translate(15,129)"/>
<path d="M0 0 C0.66 1.32 1.32 2.64 2 4 C0.02 4.99 -1.96 5.98 -4 7 C-3.67 5.02 -3.34 3.04 -3 1 C-2.67 1.66 -2.34 2.32 -2 3 C-1.34 3 -0.68 3 0 3 C0 2.01 0 1.02 0 0 Z " fill="#A38241" transform="translate(167,119)"/>
<path d="M0 0 C0.99 0.33 1.98 0.66 3 1 C0.525 4.465 0.525 4.465 -2 8 C-2.99 7.67 -3.98 7.34 -5 7 C-3.35 4.69 -1.7 2.38 0 0 Z " fill="#F3E9D0" transform="translate(49,115)"/>
<path d="M0 0 C3.82097239 0.53069061 6.06171403 1.49701566 9 4 C7.02 4.99 7.02 4.99 5 6 C4.34 5.34 3.68 4.68 3 4 C3 3.01 3 2.02 3 1 C2.01 0.67 1.02 0.34 0 0 Z " fill="#9E7D3D" transform="translate(49,113)"/>
<path d="M0 0 C0.66 0.66 1.32 1.32 2 2 C1.625 4.625 1.625 4.625 1 7 C0.01 6.67 -0.98 6.34 -2 6 C-2 4.68 -2 3.36 -2 2 C-1.34 2 -0.68 2 0 2 C0 1.34 0 0.68 0 0 Z " fill="#A27A2D" transform="translate(172,69)"/>
<path d="M0 0 C0.66 0 1.32 0 2 0 C1.125 4.75 1.125 4.75 0 7 C-0.66 7 -1.32 7 -2 7 C-2.125 4.625 -2.125 4.625 -2 2 C-1.34 1.34 -0.68 0.68 0 0 Z " fill="#FDFCF8" transform="translate(15,63)"/>
<path d="M0 0 C0.66 0.33 1.32 0.66 2 1 C-1.96 4.465 -1.96 4.465 -6 8 C-6.66 7.67 -7.32 7.34 -8 7 C-7.01 6.67 -6.02 6.34 -5 6 C-4.3162955 4.67532254 -3.65035814 3.34136367 -3 2 C-2.01 1.34 -1.02 0.68 0 0 Z " fill="#FBF4DF" transform="translate(33,22)"/>
<path d="M0 0 C0.66 0 1.32 0 2 0 C0.68775452 3.93673644 -0.91910327 6.22719294 -4 9 C-4 4.9666466 -2.39120082 3.16482462 0 0 Z " fill="#90723A" transform="translate(164,135)"/>
<path d="M0 0 C0.625 1.875 0.625 1.875 1 4 C-1 6 -1 6 -3.625 6.125 C-4.40875 6.08375 -5.1925 6.0425 -6 6 C-4 4 -2 2 0 0 Z " fill="#B7964E" transform="translate(90,126)"/>
<path d="M0 0 C3.36591866 1.44253657 5.51047079 3.33264727 8 6 C7.01 6.33 6.02 6.66 5 7 C3.29115995 5.37660195 1.62553283 3.70680947 0 2 C0 1.34 0 0.68 0 0 Z " fill="#9C7E44" transform="translate(58,76)"/>
<path d="M0 0 C0.66666667 1.33333333 1.33333333 2.66666667 2 4 C2.391875 4.639375 2.78375 5.27875 3.1875 5.9375 C4.24344992 8.61798826 3.75786685 10.27167933 3 13 C2.67 13 2.34 13 2 13 C-0.28571429 4.57142857 -0.28571429 4.57142857 0 0 Z " fill="#AC8E4E" transform="translate(167,63)"/>
<path d="M0 0 C1.32 0.33 2.64 0.66 4 1 C4.12375 1.639375 4.2475 2.27875 4.375 2.9375 C4.684375 3.9584375 4.684375 3.9584375 5 5 C5.66 5.33 6.32 5.66 7 6 C6.67 6.66 6.34 7.32 6 8 C5.34 8 4.68 8 4 8 C3.896875 7.401875 3.79375 6.80375 3.6875 6.1875 C2.90868872 3.7094641 1.8892008 2.72492247 0 1 C0 0.67 0 0.34 0 0 Z " fill="#CEA038" transform="translate(83,45)"/>
<path d="M0 0 C1.65 0.33 3.3 0.66 5 1 C5 1.99 5 2.98 5 4 C3.02 4 1.04 4 -1 4 C-0.67 2.68 -0.34 1.36 0 0 Z " fill="#FEFCF5" transform="translate(119,16)"/>
<path d="M0 0 C3.9492568 0.55105909 7.34920174 1.38935371 11 3 C7.02972626 4.32342458 4.88343142 3.36639254 1 2 C0.67 1.34 0.34 0.68 0 0 Z " fill="#FBEFCA" transform="translate(112,12)"/>
<path d="M0 0 C1.65 0 3.3 0 5 0 C5.33 0.99 5.66 1.98 6 3 C3.69 3 1.38 3 -1 3 C-0.67 2.01 -0.34 1.02 0 0 Z " fill="#CE9C30" transform="translate(105,171)"/>
<path d="M0 0 C0.99 0.33 1.98 0.66 3 1 C2.01 2.32 1.02 3.64 0 5 C-1.32 4.67 -2.64 4.34 -4 4 C-2.68 2.68 -1.36 1.36 0 0 Z " fill="#C69D41" transform="translate(141,139)"/>
<path d="M0 0 C0.99 0 1.98 0 3 0 C3.33 0.66 3.66 1.32 4 2 C4.99 2.33 5.98 2.66 7 3 C7 3.66 7 4.32 7 5 C4.625 4.75 4.625 4.75 2 4 C0.6875 1.9375 0.6875 1.9375 0 0 Z " fill="#95773E" transform="translate(103,104)"/>
<path d="M0 0 C2.12046792 3.53411321 2.53199289 6.94393835 3 11 C0.9375 9.4375 0.9375 9.4375 -1 7 C-0.75 3.25 -0.75 3.25 0 0 Z " fill="#AF9157" transform="translate(160,67)"/>
<path d="M0 0 C3.08089673 2.77280706 4.68775452 5.06326356 6 9 C5.01 8.67 4.02 8.34 3 8 C3 7.34 3 6.68 3 6 C2.34 6 1.68 6 1 6 C0.67 4.02 0.34 2.04 0 0 Z " fill="#CEA751" transform="translate(148,44)"/>
<path d="M0 0 C2.8125 -0.25 2.8125 -0.25 6 0 C7.875 2 7.875 2 9 4 C6.03 3.01 3.06 2.02 0 1 C0 0.67 0 0.34 0 0 Z " fill="#D4AF5A" transform="translate(55,156)"/>
<path d="M0 0 C3.16115776 1.36983503 3.9927092 1.9890638 6 5 C5.67 5.99 5.34 6.98 5 8 C4.16382818 6.8562364 3.33113541 5.70992861 2.5 4.5625 C2.0359375 3.92441406 1.571875 3.28632813 1.09375 2.62890625 C0 1 0 1 0 0 Z " fill="#B5944D" transform="translate(25,128)"/>
<path d="M0 0 C1.125 1.75 1.125 1.75 2 4 C1.125 6.25 1.125 6.25 0 8 C-0.66 5.69 -1.32 3.38 -2 1 C-1.34 0.67 -0.68 0.34 0 0 Z " fill="#9A7329" transform="translate(173,75)"/>
<path d="M0 0 C3.44216672 2.6598561 3.99504674 5.90288286 5 10 C2.17970072 8.58985036 1.41850081 6.77252431 0 4 C0 2.68 0 1.36 0 0 Z " fill="#FCF8E7" transform="translate(170,53)"/>
<path d="M0 0 C0.33 1.32 0.66 2.64 1 4 C-0.98 4.99 -0.98 4.99 -3 6 C-3 4.68 -3 3.36 -3 2 C-2.01 1.34 -1.02 0.68 0 0 Z " fill="#FEFDF8" transform="translate(24,44)"/>
<path d="M0 0 C3.37462715 0.54723683 5.08235 1.0549 8 3 C7.67 3.99 7.34 4.98 7 6 C5.83054208 5.19152271 4.66449539 4.37810888 3.5 3.5625 C2.8503125 3.11003906 2.200625 2.65757813 1.53125 2.19140625 C1.0259375 1.79824219 0.520625 1.40507812 0 1 C0 0.67 0 0.34 0 0 Z " fill="#F4E8C7" transform="translate(133,15)"/>
</svg>
