<?xml version="1.0" encoding="UTF-8"?>
<svg version="1.1" viewBox="0 0 2048 2048" width="512" height="512" xmlns="http://www.w3.org/2000/svg">
<path transform="translate(905,494)" d="m0 0 6 1 6 7 9 1 7 6 9 3 5 4 16 25 11 17 3 2h8l7 9 35 55 5 7 36 6 26 6 12 5 15 9 12 8 5-1 24-14 23-13 24-14 28-16 8-5h6l10 6 4 1 13-8 1-1 7 1 28 16 26 15 24 14 28 16 24 14 208 120 24 14 28 16 24 14 28 16 24 14 28 16 24 14 104 60 43 25 9 6 1 3-20 11-11 7 13 8-1 3-18 10-24 14-28 16-24 14-26 15-28 16-52 30-24 14-28 16-24 14-208 120-24 14-23 13-24 14-52 30-24 14-28 16-24 14-28 16-24 14-52 30-28 16-24 14-52 30-24 14-3 2-5-1-28-16-52-30-24-14-28-16-52-30-24-14-208-120-24-14-5-3-5 1-19 14-20 15-18 13-72 53-18 13-19 14-13 10-19 14-13 10-16 9-13 4-12 2h-14l-19-3-16-5-18-8-16-9-12-8-14-11-10-9-8-7-12-12-9-11-9-10-13-18-10-15-12-21-8-16-8-17-10-27-8-30-4-23-2-21v-19l2-19 5-21 6-15 7-12 8-10 7-7 14-9 16-9 76-56 14-10 57-42 18-13 57-42 18-13 8-7 7-17 8-13 7-9 11-11 13-8 15-8 16-12 19-14 21-16 19-14 14-10 13-6 10-3 8-1h25l13 2 6 1 3-8 8-27 7-20 9-20 8-12 8-7 18-6 41-10 44-9 41-7 33-4 34-2h12l25 2 15 3 12 4h2l-14-22-15-24-11-17-7-12v-10l1-5-3-6 1-6 2-5-4-6 1-4 5-6zm2 295-2 5v4l4-1 5-2-1-4z" fill="#F8F8F8"/>
<path transform="translate(905,494)" d="m0 0 6 1 6 7 9 1 7 6 9 3 5 4 16 25 11 17 3 2h8l7 9 35 55 6 9 5 10 14 22 11 18 11 17 8 12v5l-3 4 1 5 8 13 7 11 11 18 7 11 4 5 8 13v2l6-2 9-8 11-6 4-2h6l8 6 8 11 4 9 3 9 4 4 14 8 2 3-5-1-9-5-6-1-2 18 11 6v2l5 1v2l9 3v2l3 1-2 1-5-2v-2l-5-1-2-1v-2l-5-1-11-6-1 11 6 2 9 5v2l3 1-2 1-19-9-1 10 6 2 10 6 2 1v2l-9-3-7-4v-2l-5-1 2 6 10 14 7 12 14 22 10 16 16 25 12 19 13 20 3 4 6 3-2 1h-2l6 9 2 4 5 2 16 10 28 16 17 10-4 2-11-6-24-14-21-12-3-2-3 10-7 8-10 7-11 5-8 1-9-2-7-9-8-13-15-24-5-7v-2l-11 5-2-1 9-5h2l-7-11-4-6-5-9-8-10-18-9v-1h7l6 4 5 4-9-14-5-6-3-7-6-9-4 2-4 6-12 14-1 2 4 1v2l-7-1-13 13-14 11-12 9-21 13-21 10-24 9h-2l1 3-7-1-27 5-3 1-21 2-8 3-2-1-22 1-31 3-8 2-18 10-2-1 14-8 4-1v-2l-7 1h-36v24l8-4 2 1-5 3h-2l6 6-6-2-3-2-2 25-7 25-7 16-10 16-17 17-7 3-16 8-13 9-12 9-13 10-16 12-14 11-17 13-5 4-15 6-11 3-23 2-9 5-16 12-38 28-14 10-21 16-14 10-19 14-11 8-19 14-18 13-38 28-12 9-19 14-17 13-13 9-14 7-15 4-7 1h-14l-19-3-16-5-18-8-16-9-12-8-14-11-10-9-8-7-12-12-9-11-9-10-13-18-10-15-12-21-8-16-8-17-10-27-8-30-4-23-2-21v-19l2-19 5-21 6-15 7-12 8-10 7-7 14-9 16-9 76-56 14-10 57-42 18-13 57-42 18-13 8-7 7-17 8-13 7-9 11-11 13-8 15-8 16-12 19-14 21-16 19-14 14-10 13-6 10-3 8-1h25l13 2 6 1 3-8 8-27 7-20 9-20 8-12 8-7 18-6 41-10 44-9 41-7 33-4 34-2h12l25 2 15 3 12 4h2l-14-22-15-24-11-17-7-12v-10l1-5-3-6 1-6 2-5-4-6 1-4 5-6zm2 295-2 5v4l4-1 5-2-1-4z" fill="#434342"/>
<path transform="translate(905,494)" d="m0 0 6 1 6 7 9 1 7 6 9 3 5 4 16 25 11 17 3 2h8l7 9 35 55 6 9 5 10 14 22 11 18 11 17 8 12v5l-3 4 1 5 8 13 7 11 11 18 7 11 4 5 8 13v2l6-2 9-8 11-6 4-2h6l8 6 8 11 4 9 3 9 4 4 14 8 2 3-5-1-9-5-6-1-2 18 11 6v2l5 1v2l9 3v2l3 1-2 1-5-2v-2l-5-1-2-1v-2l-5-1-11-6-1 11 6 2 9 5v2l3 1-2 1-19-9-1 10 6 2 10 6 2 1v2l-9-3-7-4v-2l-5-1 2 6 10 14 7 12 14 22 10 16 16 25 12 19 13 20 3 4 6 3-2 1h-2l6 9 2 4 5 2 16 10 28 16 17 10-4 2-11-6-24-14-21-12-3-2-3 10-7 8-10 7-11 5-8 1-9-2-7-9-8-13-15-24-5-7v-2l-11 5-2-1 9-5h2l-7-11-4-6-5-9-8-10-18-9v-1h7l6 4 5 4-9-14-5-6-3-7-6-9-4 2-4 6-12 14-1 2 4 1v2l-7-1-13 13-14 11-12 9-21 13-21 10-24 9h-2l1 3-7-1-27 5-3 1-21 2-8 3-2-1-22 1-31 3-8 2-18 10-2-1 14-8 4-1v-2l-7 1h-36l-1 2-3-21-6-29-8-28-12-31-14-29-12-21-15-22-12-16-13-16-16-17-17-16-9-7-15-11-19-12-15-8-25-10v-3l9-31 8-23 9-20 8-12 8-7 18-6 41-10 44-9 41-7 33-4 34-2h12l25 2 15 3 12 4h2l-14-22-15-24-11-17-7-12v-10l1-5-3-6 1-6 2-5-4-6 1-4 5-6zm2 295-2 5v4l4-1 5-2-1-4z" fill="#E2AB7A"/>
<path transform="translate(579,740)" d="m0 0h25l13 2 18 6 24 11 21 13 14 10 9 7 12 11 10 9 9 9 7 8 11 13 14 19 11 16 12 20 14 27 10 24 8 22 8 30 5 28 2 25v11l8-4 2 1-5 3h-2l6 6-6-2-3-2-2 25-7 25-7 16-10 16-17 17-7 3-16 8-13 9-12 9-13 10-16 12-14 11-17 13-5 4-15 6-11 3-25 2 1-2 5-3 9-6 12-7 11-7 4-1v-2l6-5h2l2-4 8-10 8-16 5-14 4-19 1-7v-26l-4-31-3-16-8-29-11-30-12-25-11-20-13-20-10-14v-2h-2l-6-8-9-11-16-16-8-7-11-10-12-8-10-7-7-5-14-7-13-6-12-4-12-2-10-2-8-1h-12l-15 3-17 8-14 9-12 9-9 6-5 4-1 2-2-1 7-17 8-13 7-9 11-11 13-8 15-8 16-12 19-14 21-16 19-14 14-10 13-6 10-3z" fill="#666767"/>
<path transform="translate(1138,928)" d="m0 0 4 2 7 11 2 5 9 12 3 5v2l-4-2-5-4-7-1 10 5 8 5 11 15 4 8 7 10v2l-7 4 6-3h3l11 17 10 16 12 19 4 3 9 1 9-2 13-7 6-5 6-8 2-3 1 5 14 9 21 12 26 15 28 16 4 4-10 4-23 13-17 10-43 25-19 11v3l14 8v2l6 1 1 3 6 1 1 3 6 1 11 7 4 1v2l5 1v2l9 3 1 2 7 3 4 2v2l5 1 2 1v2l7 2v2l5 1v2l5 2 7 3v2l5 2 7 3v2l7 2v2l5 1 2 1v2l5 1 2 1v2l5 1 7 4 5-1 14-8 24-14 23-13 35-20 10-6 1-2-4-2-13-7v-2l5 1 14 8 3 1-1 4-23 13-45 26-42 24-34 20-16 9-26 15-29 17-16 9-13 8-13 7-5-1-78-45-13-8-11-6-7-4v-2l7 2 17 10 21 12 24 14 26 15 16 9 6-1 13-8h2l-5-5-15-8-17-10v-2l-5-1-23-13-21-12-12-7v-2l9 3v2l5 1 28 16v2l5 1 9 5v2l7 2v2l4 1 25 14 6 4 6 1 13-8 28-16 24-14 23-13 3-1-1-3-10-6-11-6-28-16v-2l-5-1-14-8-24-14-11-7-3-1v-2l-7-2v-2l-6-2-17-10-5-2v-2l-9-3v-2h-4v-3l-5-1-48-28-10-5-5 1-6 2 3-3 3-2v-2l-22-12-24-14-26-15-19-11-8-4v-2l-5-1-2-1v-2l-6-2-26-15-17-10-21-12-6-3v-3l24-5 9-1 3 1v-2l28-11 21-10 19-12 12-9 11-9 10-9 7-6 6 2v-2l-4-1 2-4 11-13z" fill="#E4E4E4"/>
<path transform="translate(959,1028)" d="m0 0h14v2l6 2 25 14 22 13 21 12 2 1v2l7 2v2l5 2 14 7 17 10 52 30 12 7-2 4-1 1 3-2 7 1 21 12 36 21 3 1-1 5-25 14-17 10-26 15-22 13 1 4h-9l-15 9v3l-2 1-18-10-22-13-26-15-21-12-24-14-52-30-5-3-8 1 3-4-23-13-28-16-24-14-23-13-3-2 2-21 1-4 5 2-1-1-1-3 3-2-6 2-1-11v-11l1-2 43-1v2l-17 9 16-8 5-3 27-3 23-2h9l3 1 7-3z" fill="#F5F5F5"/>
<path transform="translate(1929,1013)" d="m0 0 6 2 8 5-1 3-18 10-24 14-28 16-24 14-26 15-28 16-52 30-24 14-28 16-24 14-208 120-24 14-23 13-24 14-52 30-24 14-28 16-24 14-28 16-24 14-52 30-28 16-24 14-52 30-24 14-3 2-5-1-28-16-52-30-24-14-28-16-52-30-24-14-208-120-24-14-7-4 5-5 8-6h2l4 4 11 7 12 6 9 6 11 6 16 9 24 14 16 9 17 10 19 11 16 9 17 10 26 15 21 12 15 9 11 6 14 8 17 10 22 13 20 11 9 6 14 7 13 8 18 10 13 8 27 15 6 3 5-1 12-7 5 1 10 5h6l22-12 27-16 11-6 15-9 23-13 48-28 16-9 36-21 23-13 14-8 11-7 11-6 16-9 17-10 20-12 11-6 22-13 11-6 21-12 26-15 24-14 14-8 15-9 11-6 17-10 16-9 26-15 10-6 21-12 26-15 13-8 11-6 16-9 17-10 24-14 27-15 14-8 24-14 26-15 29-17 11-6 10-6 11-6 24-14 13-8 33-18z" fill="#B6B9BA"/>
<path transform="translate(905,494)" d="m0 0 6 1 6 7 9 1 7 6 9 3 5 4 16 25 11 17 3 2h8l7 9 35 55 6 9 5 10 14 22 11 18 11 17 8 12v5l-3 4 1 5 8 13 7 11 11 18 7 11 4 5 9 15-1 4-8 8-12 16-10 16-4 6-5-5-7-12-15-23-15-24-24-38-11-17-9-14-21-32-10-16-16-25-12-18-10-16-36-57-4-7v-10l1-5-3-6 1-6 2-5-4-6 1-4 5-6z" fill="#565657"/>
<path transform="translate(1223,1175)" d="m0 0h4v2l5 1 4 2v2l5 1 23 13v2l5 1 2 1v2l5 1 9 6 26 15 14 8 3 1v2l5 2 25 14 14 8 6 4v3l-17 10-18 10-17 10-28 16-11 7-7-2-34-19v-2l-7-2v-2l-6-2-8-4v-2l-5-2-25-14-3-1v-2l-9-3v2l6 2 13 8 18 10 21 12 3 1v2l5 2 16 9 14 8 2 4-15 9-6 1-25-14-24-14-26-15-21-12-10-6-5-2v-2l-7-2-5-3-2-1v-2l-5-1v-2l-9-3-13-8v-3l9-6 7-4h8v-4l48-28 14-8 23-13z" fill="#F9F9F9"/>
<path transform="translate(1138,928)" d="m0 0 4 2 7 11 2 5 9 12 3 5v2l-4-2-5-4-7-1 10 5 8 5 11 15 4 8 7 10v2l-7 4 6-3h3l11 17 10 16 12 19 4 3 9 1h7l-3 4-4 1 10 7 10 6v2l-25 14-26 15-20 12-7-2-41-24-26-15-17-10-9-5-2-2-5-2-23-13-24-14-21-12v-2l28-11 21-10 19-12 12-9 11-9 10-9 7-6 6 2v-2l-4-1 2-4 11-13z" fill="#F6F6F7"/>
<path transform="translate(942,707)" d="m0 0 8 1 44 4h6l2-2 10 15 12 19-1 2-1-1v26l8 24 10 19 10 17 13 18 9 9 4 6-2 4-5 3-15 2-28 4-6-2-10-9-4-2v-2l-7-2v-2l7 2 4 3-4-8-7-11-5-6-16-9-25-13-9-6-26-14-5-3v-2l-6-1-2 12-13 38-1 2-4-2-8-6v-2l-5-2-2-2v-20l-2-15-8-27-2-4 5-4 16-9 17-11 15-10 17-12 10-7z" fill="#C3966A"/>
<path transform="translate(475,814)" d="m0 0 24 3 9 2 5 1 21 6 15 7 9 5 10 6 12 8 10 7v2l4 2 10 9 4 3v2l4 2 19 19 9 11 11 13 9 13 8 12 10 16 13 24 12 26 6 15 9 28 5 22 4 23 2 17v23l-3 27-8 26-4 10-5 10h3l-2 4-16 12-13 10-13 6-14 4-25 2 1-2 5-3 9-6 12-7 11-7 4-1v-2l6-5h2l2-4 8-10 8-16 5-14 4-19 1-7v-26l-4-31-3-16-8-29-11-30-12-25-11-20-13-20-10-14v-2h-2l-6-8-9-11-16-16-8-7-11-10-12-8-10-7-7-5-14-7-13-6-12-4-12-2-10-2-8-1h-12l-15 3-17 8-14 9-12 9-9 6-5 4-1 2-2-1 7-17 8-13 7-9 11-11 13-8 15-8 6-1h8l2 1z" fill="#565657"/>
<path transform="translate(959,1028)" d="m0 0h14v2l6 2 25 14 22 13 21 12 2 1v2l7 2v2l-16 9-21 12-53 31-6 3-23-13-15-9-26-15-49-28-8-5v-2l3-2-6 2-1-11v-11l1-2 43-1v2l-17 9 16-8 5-3 27-3 23-2h9l3 1 7-3z" fill="#F9F9F9"/>
<path transform="translate(1171,873)" d="m0 0 5 5 8 11 7 12 14 22 10 16 16 25 12 19 13 20 3 4 6 3-2 1h-2l6 9 2 4 5 2 16 10 28 16 17 10-4 2-11-6-24-14-21-12-3-2-3 10-7 8-10 7-11 5-8 1-9-2-7-9-8-13-15-24-5-7v-2l-11 5-2-1 9-5h2l-7-11-4-6-5-9-8-10-18-9v-1h7l6 4 5 4-9-14-5-6-3-7-6-9 1-5 7-10 15-24 7-15z" fill="#434342"/>
<path transform="translate(1270,1035)" d="m0 0h1l1 5 14 9 21 12 26 15 28 16 4 4-10 4-23 13-17 10-43 25-19 11v3l9 5-2 1-9-5v-3l-9-3-14-7-4-4-19-11-15-9-6-3 3-5 21-12 24-14 21-12h2v-2l-5-2-14-9-3-3 7-2 1-3 16-8 6-5 6-8z" fill="#F1F2F2"/>
<path transform="translate(1186 1e3)" d="m0 0h3l11 17 10 16 12 19 4 3 9 1h7l-3 4-4 1 10 7 10 6v2l-25 14-26 15-20 12-7-2-41-24-26-15-17-10-9-5v-3l28-16 26-15 24-14z" fill="#F8F9F9"/>
<path transform="translate(1032,632)" d="m0 0 17 2 29 5 19 5 14 7 18 11 14 9 13 12 9 7 9-2-3 3-3 2 9 14 1 3v7l-6 7-16 8-16 4-10 1h-28l11 29 4 10 1 6-4-1-6-8-13-22-6-9-10-16-1-5 3-4-1-7-7-10-14-22-8-13-12-19-6-10z" fill="#E2AB79"/>
<path transform="translate(836,1063)" d="m0 0 15 6 24 14 25 14 24 14 22 13 14 8 3 1 9 6 25 14 24 14 29 17 9 5h7l-2 4 5 2 25 14 24 14 10 5 5-1-1 4 1 2h-9l-15 9v3l-2 1-18-10-22-13-26-15-21-12-24-14-52-30-5-3-8 1 3-4-23-13-28-16-24-14-23-13-3-2 2-21z" fill="#E5E6E6"/>
<path transform="translate(1156,1137)" d="m0 0 7 1 21 12 36 21 3 1-1 5-25 14-17 10-45 26-7 2-14-7-27-16-23-13 2-4 18-10 17-10 16-9 24-14z" fill="#F5F6F6"/>
<path transform="translate(914,793)" d="m0 0 12 6 23 13 10 6 27 14 10 7 8 11 6 11v2l-4-2-7-3v2l7 2v2l5 2 10 9 4 2-1 2-13 4-5 2-7-1 1 3-16 9h-6l-18-10-19-11h-3l28 16 11 6-2 4-2 1h-7l-20-11-13-8-1-2-8-4-3-5 5-4-4 2-5-1-9-10-10-10v-2l14-7 25-15 14-7 1-2-14 7-27 16-16 8-4-3 1-6 13-39 7-4h2z" fill="#F7F8F8"/>
<path transform="translate(1247,1162)" d="m0 0 5 1 8 4 7 3v2l6 1 1 3 6 1 1 3 6 1 11 7 4 1v2l5 1v2l9 3 1 2 7 3 4 2v2l5 1 2 1v2l7 2v2l5 1v2l5 2 7 3v2l5 2 7 3v2l7 2v2l5 1 2 1v2l5 1 2 1v2l5 1 7 4 5-1 14-8 24-14 23-13 35-20 10-6 1-2-4-2-13-7v-2l5 1 14 8 3 1-1 4-23 13-45 26-42 24-34 20-16 9-26 15-29 17-16 9-13 8-13 7-5-1-78-45-13-8-11-6-7-4v-2l7 2 17 10 21 12 24 14 26 15 16 9 6-1 13-8h2l-5-5-15-8-17-10v-2l-5-1-23-13-21-12-12-7v-2l9 3v2l5 1 28 16v2l5 1 9 5v2l7 2v2l4 1 25 14 6 4 6 1 13-8 28-16 24-14 23-13 3-1-1-3-10-6-11-6-28-16v-2l-5-1-14-8-24-14-11-7-3-1v-2l-7-2v-2l-6-2-17-10-5-2v-2h-2l-3-3-3-2 1-3 14-8z" fill="#F3F3F3"/>
<path transform="translate(833,1089)" d="m0 0 5 1 25 14 22 13 28 16 17 10 5 3-5 6-28 16-19 11-9 2-12-6-45-26-7-4 2-5 8-13 6-14 5-17z" fill="#F6F6F6"/>
<path transform="translate(973,558)" d="m0 0 4 2h8l7 9 35 55 6 9 5 10 14 22 11 18 11 17 8 12v5l-3 4 1 7-18 1-4-2-11-17-6-12-11-17-7-10-10-16-14-21v-2h-2l-10-16v-2l-10 1-10-13-5-8-3-7-6-12 2-6 4-6 2-2 12-1z" fill="#666767"/>
<path transform="translate(1025,677)" d="m0 0 5 5 14 22 14 21v2l7 1h16l14 22 11 18 7 11 4 5 9 15-1 4-8 8-12 16-5 7-1-2h-2l-7-12-3-4v-3h-2l-12-20-11-17-3-4v-3h-2l-6-11-7-10-8-13-5-8v-2h-2l-6-11-6-9-5-9 1-5 4-5 3-3z" fill="#434342"/>
<path transform="translate(905,494)" d="m0 0 6 1 6 7 9 1 7 6 9 3 5 4 4 6-1 4-4 5-8 7-9 7-13 5h-11-3l6 2 11-1 2 2v3h2l1 5 3 1 4 8v2h2l4 8 6 10 6 8 5 8 3 5v2h2l16 24 3 5 7 11v3l3 1 7 12 6 9v3h2l4 7 3 7-4 4h-2v5l-4 1-1-2-4-2-11-17-10-16-16-25-12-18-10-16-36-57-4-7v-10l1-5-3-6 1-6 2-5-4-6 1-4 5-6z" fill="#666767"/>
<path transform="translate(796,1048)" d="m0 0 8 1 6 3 6 7 2 7v14l-4 16-8 16-11 14-10 8-11 5-3 1h-7l-9-4-4-5-3-10v-18l5-14 11-18 11-12 11-7z" fill="#C4966A"/>
<path transform="translate(836,1063)" d="m0 0 15 6 24 14 25 14 24 14 22 13 12 7 1 3-6 5-11 6-8 1-23-13-28-16-24-14-23-13-3-2 2-21z" fill="#E5E6E6"/>
<path transform="translate(1148,914)" d="m0 0 5 3 5 9 8 12 14 22 11 18 9 14 12 19 15 24 10 15 4 7-3 1-3 3-9-1-5-4-12-19-15-24-5-7v-2l-11 5-2-1 9-5h2l-7-11-4-6-5-9-8-10-18-9v-1h7l6 4 5 4-9-14-5-6-3-7-6-9 1-5z" fill="#555556"/>
<path transform="translate(1e3 1021)" d="m0 0 9 2 25 14 43 25 4 1 1 3-4-1-14 8-6 4-1 2-4-1v-2l-5-1-2-1v-2l-6-2-26-15-17-10-21-12-6-3v-3l24-5z" fill="#E5E5E5"/>
<path transform="translate(905,494)" d="m0 0 6 1 6 7 9 1 7 6 9 3 5 4 4 6-1 4-4 5-8 7-9 7-13 5h-11l-8-3-1-2v-10l1-5-3-6 1-6 2-5-4-6 1-4 5-6z" fill="#444443"/>
<path transform="translate(1180,1123)" d="m0 0 10 2 19 11 18 11 3 3 7 4 14 6v2l-8 3-14 8v2l5 3-2 1-5-2v-2h-4v-3l-5-1-48-28-10-5-5 1-6 2 3-3 8-5 9-3z" fill="#E4E4E4"/>
<path transform="translate(1745,1091)" d="m0 0 3 1-13 8-29 17-21 12-24 14-16 9-24 14-43 25-28 16-23 13-24 14-26 15-24 14-28 16-52 30-24 14-28 16-48 28-23 13-19 11-15 9-14 8-16 9-24 14-14 8-18 10-14 8-10 6h-2v-2l12-7 9-5 10-6 13-8 11-6 19-11 26-15 28-16 20-12 16-9 24-14 14-8 24-14 28-16 26-15 21-12 22-13 28-16 26-15 24-14 16-9 17-10 26-15 49-28 29-17 45-26 21-12 8-5 11-6 10-6z" fill="#B5B8B9"/>
<path transform="translate(948,854)" d="m0 0 11 6 17 10 5 2v2h3v2l6 2 7 4v2l3 1v2l-16 9h-6l-18-10-19-11h-3l28 16 11 6-2 4-2 1h-7l-20-11-13-8-1-2-8-4-3-5 6-4 4-4 16-9z" fill="#ECEDED"/>
<path transform="translate(809,1145)" d="m0 0 4 1 20 11 24 14 14 8 6 1 4-1-3 3-14 8-11 6-5-1-3-1v-2l-6-2-27-16-19-11 1-4 12-11z" fill="#E4E4E4"/>
<path transform="translate(1499,1173)" d="m0 0 5 1 14 8 3 1-1 4-23 13-45 26-42 24-34 20-16 9-26 15-29 17-16 9-13 8-13 7-5-1-78-45-13-8-11-6-7-4v-2l7 2 17 10 21 12 24 14 26 15 16 9 6-1 13-8h2l-5-5-15-8-17-10v-2l-5-1-23-13-21-12-12-7v-2l9 3v2l5 1 28 16v2l5 1 9 5v2l7 2v2l4 1 25 14 6 4 6 1 13-8 28-16 24-14 23-13 3-1-1-3-10-6-11-6-28-16v-2l-5-1-14-8-24-14-9-6 3-1 4 2v2l5 1 2 1v2l5 1 2 1v2l5 1 2 1v2l5 1 24 14 14 8v2l6 2 24 13 4 3 5-2 11-6 5-5-6-2-4-4 5 1 7 4 5-1 14-8 24-14 23-13 35-20 10-6 1-2-4-2-13-7z" fill="#B4B7B8"/>
<path transform="translate(1302,634)" d="m0 0 6 2 25 14 10 6 14 8 24 14 23 13 20 12 56 32 48 28 56 32 41 24 56 32 29 17 52 30 19 11 12 7 14 8 22 13 1 2-4-1-27-15-19-11-24-14-23-13-19-11-24-14-28-16-26-15-64-37-57-33-24-14-23-13-19-11-21-12-41-24-35-20-39-23-11-7z" fill="#B5B8B9"/>
<path transform="translate(618,1259)" d="m0 0 8 2 18 10 17 10 26 15 21 12 26 15 24 14 26 15 24 14 49 28 24 14 26 15 49 28 24 14 21 12 27 16 8 5 9-3 3 1-8 5-7-1-17-10-14-8-24-14-28-16-17-10-23-13-10-6-42-24-24-14-56-32-10-6-18-10-13-8-23-13-48-28-28-16-13-8-8-3z" fill="#B5B8B9"/>
<path transform="translate(1270,1035)" d="m0 0h1l1 5 4 4h-3l3 15v7l7-2-3 3-2 1 2 21 2 7-5-1-4-4v-2l-6-2-10-6-4 2-3-1 5-2v-2l-5-2-14-9-3-3 7-2 1-3 16-8 6-5 6-8z" fill="#B3B6B7"/>
<path transform="translate(1138,928)" d="m0 0 4 2 7 11 2 5 9 12 3 5v2l-4-2-5-4-7-1 10 5 8 5 11 15v4l-5-2-3-1v-2l-6-2-6-3v-2l-6-2-10-6-6-3v-2l-9-3v-2h-2v-3l-4-1 2-4 11-13z" fill="#E7E7E7"/>
<path transform="translate(905,494)" d="m0 0 6 1 6 7 9 1 6 5-2 6-7 10-5 4-10 4-6 1-4-1-4-8 1-6 2-5-4-6 1-4 5-6z" fill="#B6B9BA"/>
<path transform="translate(1403,761)" d="m0 0h12l9 3 4 3 1 7-4 5-9 5h-3v2l-4 1h-10l-5-2v-2l-5-2-4-3 1-7 8-7z" fill="#F2F3F3"/>
<path transform="translate(973,558)" d="m0 0 4 2h8l2 3-7 9-6 2-10 1 3 7 7 12 10 16v3h-6l-7-8-8-12-8-13-2-7 5-9 3-3 12-1z" fill="#B4B7B8"/>
<path transform="translate(900,1315)" d="m0 0 6 2 78 45 25 14 17 10 19 11 24 14 21 12 9 6-4 1-20-11-48-28-52-30-17-10-26-15-21-12-10-6z" fill="#B5B8B9"/>
<path transform="translate(872,1036)" d="m0 0h7v2l-17 9-4 4-10 6-10 4h-2l-1-11v-11l1-2z" fill="#F0F0F0"/>
<path transform="translate(1040,1351)" d="m0 0 9 3 14 8 15 9 21 12 6 4 11 6 19 11 1 4h-6l-16-10-6-3-15-9-11-6-17-10-12-6-13-8-1-4z" fill="#9FA1A2"/>
<path transform="translate(1417,816)" d="m0 0 6 1 27 15 15 9 21 12 52 30 24 14 23 13 13 8v2l-4-1-27-15-24-14-21-12-24-14-28-16-26-15-13-8-14-7z" fill="#4B4B4B"/>
<path transform="translate(1480,918)" d="m0 0h12l8 4 3 4-2 4-7 5-7 2h-10l-6-3-4-4 1-5 9-6z" fill="#F3F3F3"/>
<path transform="translate(931,509)" d="m0 0h2l3 6v10l-6 9-9 6-3 1h-14l-7-7v-2h9l6-3 8-3 6-7 4-6z" fill="#646565"/>
<path transform="translate(1418,832)" d="m0 0 6 2 18 10 24 14 23 13 27 16 25 14 29 17v1l-7-1-16-9-24-14-52-30-19-11-23-13-10-6z" fill="#4B4B4A"/>
<path transform="translate(1665,904)" d="m0 0h2l-1 4-9 11-3 5 21-5 10-3 6 1-1 5-10 6-16 9-1 2-4-1 5-6 10-6 2-2-10 2-16 4h-5l1-4 16-16v-2l-15 6v2l-12 6h-5l1-3 10-5 10-4z" fill="#A2A5A6"/>
<path transform="translate(1699,925)" d="m0 0 8 1 11 8-1 2-6-1-8-4-6 1-2 2 4 4 3 1 1 4h-6l-7-4h-5l-5 2v4l5 2 4 3v3l-7-1-11-7-1-4 13-7 10-6z" fill="#A5A8A8"/>
<path transform="translate(1057,1379)" d="m0 0 7 1 19 10 39 23v3h-7l-24-14-27-16-6-3z" fill="#AEB1B2"/>
<path transform="translate(1481,800)" d="m0 0 7 1 7 6 1 4-4 4-4 1h-8l-9-2h-8l-8 4-3-1 8-5 14-8z" fill="#EAEBEB"/>
<path transform="translate(934,888)" d="m0 0 6 1 24 14 1 3-7 6-9 5-7-15z" fill="#F5F5F5"/>
<path transform="translate(1631,892)" d="m0 0h14l-2 4-7 8-7 9h-2v2l-4 1 3-9-4-2-3-2h-17l1-2 17-4 6-1v-2z" fill="#B4B7B8"/>
<path transform="translate(809,1323)" d="m0 0h12l5 3 2 4-5 5-9 3h-8l-6-3-1-5 3-4z" fill="#F9F9F9"/>
<path transform="translate(1432,856)" d="m0 0 8 3 19 11 24 14 28 16 17 10v2l-5-1-27-15-24-14-21-12-16-9-4-4z" fill="#4A4A4A"/>
<path transform="translate(681,1239)" d="m0 0 1 3 6 1 10 7-3 3-5 2 5 5 5 2 5-1 6-3h3v2l-11 6-7 5-8 3v-3l7-4h2l-5-5-4-3-5 1-7 3h-5l1-2 10-3v-2l12-6-10-5h-5l-5 4-13 6-2-1 3-1v-2l6-3-3-2 15-6z" fill="#B1B4B5"/>
<path transform="translate(1273,1044)" d="m0 0h5l20 12 3 3-6-1-10 6-9 2z" fill="#D9D9D9"/>
<path transform="translate(1371,852)" d="m0 0h9l2 1v2l-5 5-8 7-2 4-4 1-2-1 1-3 3-3-5-3-1-3-8 3h-7l3-3 18-6z" fill="#535453"/>
<path transform="translate(1435,886)" d="m0 0 5 1 1 3-4 8-4 6v2l15-9 5-2 2 1-1 3-14 7-6 4-7-1 1-4 7-12 2-4-21 12h-4v-2l21-12z" fill="#4D4D4C"/>
<path transform="translate(1444,778)" d="m0 0h4l-1 5-12 13-1 3 11-2 15-5 9-2 3 1v3l-11 7-16 10-4-1 17-10h2v-4l-9 2-8 2h-4v2l-12 1 2-4 8-10 5-5 3-4-4-1z" fill="#7A7B7C"/>
<path transform="translate(630,746)" d="m0 0 6 1 21 9 16 9 15 10 13 10 9 8 8 7 19 19 7 8-1 2-9-9-7-8-9-9-8-7-10-9-6-4-17-12-15-9-16-8-16-7z" fill="#C4966A"/>
<path transform="translate(727,1267)" d="m0 0 4 1-2 4-7 8h-2l-2 4-3 3h-2v-2l2-1 1-4-10-4-10 2v-3l19-6z" fill="#AFB2B3"/>
<path transform="translate(1271,1025)" d="m0 0 11 6 22 13 23 13 8 5-4 2-11-6-24-14-21-12-5-5z" fill="#595A5A"/>
<path transform="translate(808,1320)" d="m0 0h8l10 2 5 4v6l-4 2v2l-9 4h-15l-7-4-1-4 2-4 7-6zm1 3-7 3-3 4 1 5 7 3h7l9-3 5-5-4-6-3-1z" fill="#AAADAD"/>
<path transform="translate(1276,1203)" d="m0 0 5 1 2 1v2l5 1 2 1v2l5 1 2 1v2l5 1 2 1v2l5 1 24 14 14 8v2l6 2 11 6v2l-4-1-20-11-12-7v-2l-5-1-14-8-24-14-9-6z" fill="#9FA1A2"/>
<path transform="translate(1480,918)" d="m0 0h12l8 4 3 4-2 4-7 5-7 2h-10l-6-3-4-4 1-5 9-6zm4 2-10 5-4 4 6 5 7 1 9-3 6-4v-3l-5-4-2-1z" fill="#4C4C4B"/>
<path transform="translate(1117,777)" d="m0 0 11 7 11 6-9 9h-5l-9-15z" fill="#B4B7B8"/>
<path transform="translate(779,880)" d="m0 0h2l14 25 13 27 13 35 2 7v4l-3-1-1-9h-2l-2-7-2-4-2-11-3-5-1-4-3-4-2-9-7-13-4-8-3-5-3-6-1-4-4-2z" fill="#585859"/>
<path transform="translate(1550,1058)" d="m0 0 5 1 25 14 24 14 21 12 19 11-1 2-14-7-24-14-17-10-16-9-21-12z" fill="#656666"/>
<path transform="translate(1532,829)" d="m0 0h5l-3 10-6 14v3l24-15 4 1-25 15-7 2-1-4 9-20 1-4-21 13-5 3h-4v-2l12-6z" fill="#505050"/>
<path transform="translate(1599,868)" d="m0 0 5 1-1 6-5 12-4 8 10-5 13-8 3-2h3l-1 3-15 8-12 7-5-1 9-22 2-5-21 13-5 3-4-1 22-13z" fill="#565757"/>
<path transform="translate(743,1277)" d="m0 0h3l-2 11h-2l-2 8 12-6 7-4h3v3l-23 12h-4v-3h2l1-7 2-1 1-8-17 9h-5v-2l16-8z" fill="#969899"/>
<path transform="translate(1183,1262)" d="m0 0 9 3v2l5 1 28 16v2l5 1 9 5v2l7 2v2l4 1 11 6v2l-5-1-12-7v-2l-5-1-23-13-21-12-12-7z" fill="#A3A6A6"/>
<path transform="translate(1351,1109)" d="m0 0 6 2 25 14 24 14 21 12 12 7-4 1-26-15-25-14-24-14-8-5z" fill="#646565"/>
<path transform="translate(768,1291)" d="m0 0 3 1-1 3-6 3-1 2 19-2 1 3-15 2-3 2-2 9-4 1 1-9 1-4-10 3-7 1 4-4 10-5 8-5z" fill="#B1B4B5"/>
<path transform="translate(1509,817)" d="m0 0h8l-4 6-9 10-7 8-4 1 1-3h2l2-6v-2l-5-1-1-2h9l4-2h3l2-4 2-3-19 5-3 3-9 1-10 2 3-3 18-5z" fill="#505050"/>
<path transform="translate(1403,761)" d="m0 0h12l9 3 4 3 1 7-4 5-12 6-11 1 4-2 10-3 6-4h2l1-8-5-4-2-1h-14l-10 4-5 5 1 6 7 4-3 1-9-6 1-7 8-7z" fill="#5E5F5F"/>
<path transform="translate(1393,861)" d="m0 0 4 1-2 5-3 5 12-3h7v2l-11 3-8 1-3 9-3 1-3-3 5-7 2-2-5 2-6 1h-8l-4-3h8l14-2 1-4z" fill="#4E4E4E"/>
<path transform="translate(1546,951)" d="m0 0 6 1 10 6v1l-7-1-6-3h-7l2 4 7 4-1 2-7-2-3-3-4-1-1 3-4 2 6 4 4 2v2l-6-1-10-6 2-4 11-6z" fill="#4B4C4B"/>
<path transform="translate(841,1333)" d="m0 0h3l-1 3-14 8-4 4 6 4 9-1 11-6h4l1-3 4 1-3 3-5 1v2l-10 5-4 1h-10l-7-5 1-5 9-7z" fill="#B3B6B7"/>
<path transform="translate(1191,1006)" d="m0 0 5 5 5 6 4 7 4 6 3 5 4 6 1 5 4 2 1 4 4 4 8 3v1h-8l-5-4-12-19-15-24-3-4z" fill="#464645"/>
<path transform="translate(1560,1088)" d="m0 0 9 3 6 4v2l5 2 28 16 13 8-2 1-17-9-17-10-12-5-13-8z" fill="#666767"/>
<path transform="translate(1665,904)" d="m0 0h2l-1 4-9 11-7 9-4 1 4-7 12-12v-2l-15 6v2l-12 6h-5l1-3 10-5 10-4z" fill="#5E5F5F"/>
<path transform="translate(1522,940)" d="m0 0 10 1 8 4 1 3-10-4h-11l-7 4-3 1 2 4 8 6-4 1-10-7-1-3 4-5 7-4z" fill="#4C4C4B"/>
<path transform="translate(1481,800)" d="m0 0 7 1 7 6 1 4-4 4-4 1h-8l-11-3 4-1 8 2 7-1 5-2-1-4-2-1v-2l-7-1-12 6-4 3-12 6-3-1 8-5 14-8z" fill="#5F6060"/>
<path transform="translate(1347,836)" d="m0 0 6 1 15 9v1l-7-1-5-2-9 6-9 5h-6l4-4 17-9-5-3z" fill="#4A4A49"/>
<path transform="translate(1435,1136)" d="m0 0 5 1v2l5 1 2 1v2l5 1 2 1v2l5 1 2 1v2l5 1 2 1v2l5 1 16 9v2h3v2l-5-1-7-4v-2l-7-2v-2l-7-2v-2l-5-1-2-1v-2l-5-1-2-1v-2l-5-1-2-1v-2l-5-1-5-3z" fill="#989B9B"/>
<path transform="translate(949,816)" d="m0 0h3l-1 3-16 8-15 9-19 11-5 1v-2l22-12 17-10z" fill="#B5B8B9"/>
<path transform="translate(794,1305)" d="m0 0h2v5h-2v6h8l9-2-1 3-3 2-15 1-13 6-2-2 11-8z" fill="#AFB2B3"/>
<path transform="translate(1338,1118)" d="m0 0 4 1 25 14 24 14 10 6-4 1-24-14-26-15-9-5z" fill="#505050"/>
<path transform="translate(1086,1380)" d="m0 0 11 6 18 10 16 9-4-3-16-9-1-2 6 2 19 11 1 4h-6l-16-10-6-3-15-9-7-4z" fill="#B5B8B9"/>
<path transform="translate(1379,745)" d="m0 0 11 1 12 6 2 3-5-2-7-4-4-1h-11l-9 4-5 4-1 4 5 6 8 4-3 1-8-4-6-7 2-6 8-6z" fill="#646565"/>
<path transform="translate(900,1315)" d="m0 0 6 2 26 15 15 9v2l-4-1-18-10-24-14z" fill="#B4B7B8"/>
<path transform="translate(1681,935)" d="m0 0m-1 1 1 4-1 5 5 2 4 3v3l-7-1-11-7-1-4z" fill="#B4B7B8"/>
<path transform="translate(1563,845)" d="m0 0h2l-1 5-4 7-1 4 18-4h8l-2 2-23 4-12 5-3 2-3-1 10-7h2l2-5z" fill="#505150"/>
<path transform="translate(1606,1064)" d="m0 0 5 1 18 10 24 14 14 8-3 1-22-12-36-21z" fill="#666767"/>
<path transform="translate(1830,939)" d="m0 0 5 1 17 10 6 4 11 6 14 8 13 8-3 1-11-7-12-6-13-8-26-15z" fill="#B5B8B9"/>
<path transform="translate(910,509)" d="m0 0 9 1v6h-2l-2 4-2 1h-6l-1-3 1-7z" fill="#666767"/>
<path transform="translate(1508,819)" d="m0 0h4l-2 4-2 3-7 3h-10l1-5 8-3z" fill="#EBECEC"/>
<path transform="translate(936,874)" d="m0 0 7 1 26 15 11 6-3 2-22-12-19-11z" fill="#616262"/>
<path transform="translate(1480,918)" d="m0 0h8l-4 3-10 5-3 3 5 4 8 2-2 2-7-1-5-3-3-3 1-5 9-6z" fill="#4A4A4A"/>
<path transform="translate(1560,897)" d="m0 0 6 2 17 10 15 9v2l-4-1-27-15-8-5z" fill="#4F4F4F"/>
<path transform="translate(929,881)" d="m0 0 6 2 20 12 14 8v1l-7-1-19-11-11-7z" fill="#666767"/>
<path transform="translate(1424,880)" d="m0 0 5 1-3 3-18 10-1 1h-5l-1-2z" fill="#4A4A49"/>
<path transform="translate(1323,1125)" d="m0 0 5 2 25 14 14 8v2l-7-2-10-6-23-13-4-4z" fill="#575757"/>
<path transform="translate(1461,900)" d="m0 0 4 1-2 4-12 11-3 4-4-1 2-4z" fill="#484848"/>
<path transform="translate(779,880)" d="m0 0h2l14 25 12 25-2 2-4-9-10-20-3-5-3-6-1-4-4-2z" fill="#5A5A5B"/>
<path transform="translate(1699,925)" d="m0 0 8 1 11 8-1 2-6-1-8-4h-5l1-3-6 2 4-4z" fill="#B2B5B6"/>
<path transform="translate(1602,1087)" d="m0 0 6 2 22 13 14 8-1 2-14-7-24-14-3-2z" fill="#666767"/>
<path transform="translate(1638,893)" d="m0 0 3 1-3 5-5 5h-6l-3-3 1-3z" fill="#E9EAEA"/>
<path transform="translate(759,1286)" d="m0 0h3v3l-23 12h-4v-3h2l1-7 2 3v2l12-6z" fill="#AFB2B3"/>
<path transform="translate(681,1239)" d="m0 0 1 3 2 1-6 3-10 6-9 3 1-2h2v-2l6-3-3-2 15-6z" fill="#ABADAE"/>
<path transform="translate(1512,931)" d="m0 0 6 1-3 3-11 6-9 5h-5l1-3 17-9z" fill="#494A49"/>
<path transform="translate(798,1330)" d="m0 0 2 4 7 3h7l9-3h3l1 2-9 4h-15l-7-4-1-3z" fill="#B5B8B9"/>
<path transform="translate(1351,1109)" d="m0 0 6 2 25 14 8 5v2l-6-2-24-14-8-5z" fill="#4F4F4F"/>
<path transform="translate(1138,928)" d="m0 0 4 2 6 10v2l-6-2-4-3h-4l1-6z" fill="#EDEDED"/>
<path transform="translate(1670,920)" d="m0 0 3 1-1 2h-3v2l-19 5h-5l1-4 2 2 6-5 10-1z" fill="#A1A3A4"/>
<path transform="translate(1636,892)" d="m0 0h9l-2 4-7 8-7 9h-2v2l-4 1 2-4 11-12 4-5-2-1-8 1 2-2z" fill="#545454"/>
<path transform="translate(1476,910)" d="m0 0 5 1-1 2-24 7-8 1 3-3z" fill="#4C4C4C"/>
<path transform="translate(1509,817)" d="m0 0h8l-2 2-2-1-1 2-8 1-11 3-3 3-9 1-10 2 3-3 18-5z" fill="#59595A"/>
<path transform="translate(1400,762)" d="m0 0h7l-3 2-10 4-5 5 1 6 7 4-3 1-9-6 1-7 8-7z" fill="#5B5C5C"/>
<path transform="translate(1276,1203)" d="m0 0 5 1 2 1v2l5 1 2 1v2l5 1 2 1v2l5 1 2 1v2l5 1 1 3-6-2-26-15z" fill="#A0A2A3"/>
<path transform="translate(1120,787)" d="m0 0 14 7-4 5h-5l-5-8z" fill="#F4F4F4"/>
<path transform="translate(1378,853)" d="m0 0h4v2l-5 5-8 7-2 4-4 1-2-1 1-3 11-9 3-4h2z" fill="#4A4A4A"/>
<path transform="translate(1462,1125)" d="m0 0h4v2l5 1 2 1v2l5 1 2 1v2l5 1 5 3v2l7 2v2l-9-3-3-2v-2l-7-2v-2l-5-1-2-1v-2l-5-1-2-1v-2z" fill="#959797"/>
<path transform="translate(1271,1025)" d="m0 0 11 6 12 7-2 2-5-1-13-8-4-4z" fill="#5D5E5E"/>
<path transform="translate(1444,778)" d="m0 0h4l-1 5-12 13-4 5 3 1-7 1 2-4 8-10 5-5 3-4-4-1z" fill="#575757"/>
<path transform="translate(1452,895)" d="m0 0 3 1-1 3-14 7-6 4-4-1 5-4 13-8z" fill="#484848"/>
<path transform="translate(1317,1200)" d="m0 0 6 1 5 3v2l5 1 2 1v2l7 2v2l5 1v2l3 1-2 1-3-1v-2l-5-1v-2l-5-1-2-1v-2l-9-3-7-4z" fill="#8F9191"/>
<path transform="translate(1433,887)" d="m0 0 2 1-1 3-18 10h-4v-2z" fill="#4B4B4A"/>
<path transform="translate(1372,854)" d="m0 0 4 1-3 5-5 4h-2l-4-5 1-3z" fill="#E6E7E7"/>
<path transform="translate(1181,842)" d="m0 0 12 6v2l5 1v2l9 3v2l3 1-2 1-5-2v-2l-5-1-2-1v-2l-5-1-11-6z" fill="#8F9191"/>
<path transform="translate(1516,1156)" d="m0 0 5 1 2 1v2l9 3 12 7-1 2-5-1-22-13z" fill="#A9ACAD"/>
<path transform="translate(1620,880)" d="m0 0h3l-1 3-15 8-12 7-5-1 14-7 13-8z" fill="#606061"/>
<path transform="translate(1532,829)" d="m0 0 3 1-2 4v-3l-21 13-5 3h-4v-2l12-6z" fill="#555655"/>
<path transform="translate(1468,792)" d="m0 0h3l-1 3-15 10-10 6-4-1 22-13z" fill="#515151"/>
<path transform="translate(1560,1088)" d="m0 0 9 3 6 4-2 1-4-1 12 7-2 1-16-9-3-2z" fill="#AAADAE"/>
<path transform="translate(1477,802)" d="m0 0 3 1-4 3-6 4-15 8-3-1 8-5 14-8z" fill="#505150"/>
<path transform="translate(1101,1463)" d="m0 0 2 1-9 6-15 9h-3v-2l19-11z" fill="#B5B8B9"/>
<path transform="translate(1637,1083)" d="m0 0 5 2 22 12 4-1 2 3-1 1h-6l-17-10-9-6z" fill="#B5B8B9"/>
<path transform="translate(1274,1084)" d="m0 0h5l3 12-5-1-5-6z" fill="#4A4A4A"/>
<path transform="translate(1533,958)" d="m0 0 2 1-4 5 6 4 4 2v2l-6-1-10-6 2-4z" fill="#525252"/>
<path transform="translate(1599,1113)" d="m0 0 5 2 14 7-6-4 2-1 10 6v3l-7-1-17-10z" fill="#B5B8B9"/>
<path transform="translate(1347,836)" d="m0 0 6 1 15 9v1l-7-1-8-3-6-6z" fill="#4C4D4C"/>
<path transform="translate(1073,1479)" d="m0 0 3 1-13 8-13 7-2-1 11-7z" fill="#B5B8B9"/>
<path transform="translate(1600,873)" d="m0 0h2l-1 6-5 12-5 5 3-9z" fill="#515151"/>
<path transform="translate(1552,841)" d="m0 0 4 1-25 15-3 1 1-3 12-7z" fill="#565757"/>
<path transform="translate(1076,865)" d="m0 0 5 2 1 3-3 3-8-1-1-3z" fill="#FAFAFA"/>
<path transform="translate(1178,850)" d="m0 0h1v6l6 2 9 5v2l3 1-2 1-18-9z" fill="#A5A7A8"/>
<path transform="translate(1361,753)" d="m0 0h3l-2 7 5 6 8 4-3 1-8-4-6-7 2-6z" fill="#575757"/>
<path transform="translate(1439,780)" d="m0 0 2 1-9 6-15 7h-5l2-2 21-10z" fill="#646465"/>
<path transform="translate(735,1281)" d="m0 0h4v2l-15 8h-5v-2z" fill="#B0B3B4"/>
<path transform="translate(1082,1374)" d="m0 0 12 6 11 7 5 3-2 1-12-7-11-5v-2l-3-1z" fill="#B5B8B9"/>
<path transform="translate(757,1179)" d="m0 0 2 1-10 8-12 9h-2v-2l20-15z" fill="#5A5A5B"/>
<path transform="translate(1641,914)" d="m0 0 6 1-4 3-8 4h-5l1-3z" fill="#A3A6A7"/>
<path transform="translate(1174,863)" d="m0 0h1v5l6 2 10 6 2 1v2l-9-3-7-4v-2l-4-1z" fill="#A2A4A5"/>
<path transform="translate(1393,873)" d="m0 0 3 1-4 1-3 9-3 1-3-3 5-7z" fill="#4A4A4A"/>
<path transform="translate(1184,818)" d="m0 0 11 6 9 6-3 1-16-9z" fill="#656666"/>
<path transform="translate(1403,761)" d="m0 0h12l9 3 4 3-1 6-2-4-5-4-2-1-15-2z" fill="#666767"/>
<path transform="translate(1309,1221)" d="m0 0 5 2 14 8-3 2-16-9z" fill="#A8ABAC"/>
<path transform="translate(1561,1039)" d="m0 0 7 2v2l7 2v2l7 2 1 2h-5l-17-10z" fill="#9A9D9D"/>
<path transform="translate(1410,782)" d="m0 0 3 1-6 2h6l-4 2h-10l-5-2 3-2z" fill="#B0B3B4"/>
<path transform="translate(1379,1141)" d="m0 0 5 2 17 10-4 1-19-11z" fill="#5E5E5F"/>
<path transform="translate(1622,1101)" d="m0 0 6 2 12 7h3 3v3h-6l-14-8z" fill="#B5B8B9"/>
<path transform="translate(1319,1053)" d="m0 0 11 6 5 3-4 2-9-5-4-5z" fill="#646465"/>
<path transform="translate(1261,1306)" d="m0 0 14 7 5 3v2l-4-1-15-8z" fill="#B0B3B3"/>
<path transform="translate(1473,1157)" d="m0 0 5 2 11 6v2h3v2l-5-1-7-4v-2l-7-2z" fill="#9B9D9E"/>
<path transform="translate(1577,857)" d="m0 0h8l-2 2-23 4-4 1 2-5 1 2z" fill="#6A6B6C"/>
<path transform="translate(1183,1262)" d="m0 0 9 3v2l5 1 5 3-1 2-6-2-12-7z" fill="#9DA0A1"/>
<path transform="translate(779,880)" d="m0 0h2l11 19-1 2-5-6-2-7-4-2z" fill="#585859"/>
<path transform="translate(1404,869)" d="m0 0h7v2l-11 3h-9l-1-2z" fill="#525252"/>
<path transform="translate(931,1332)" d="m0 0 11 6 5 3v2l-4-1-13-7z" fill="#ACAFB0"/>
<path transform="translate(1041,1099)" d="m0 0 9 3 9 5-1 2-6-2-12-6z" fill="#5E5F5F"/>
<path transform="translate(1626,895)" d="m0 0 3 1-5 2h-3v3l-10 1-9 1 1-2 17-4z" fill="#656666"/>
<path transform="translate(1145,957)" d="m0 0h7l6 4 3 3h3l-1 3-18-9z" fill="#5F6060"/>
<path transform="translate(718,1271)" d="m0 0h6l-1 4-4 2-5-1v-4z" fill="#FAFAFA"/>
<path transform="translate(1366,1228)" d="m0 0 5 1v2l7 2v2l5 1 2 1v2l-9-3v-2l-5-1-5-3z" fill="#939696"/>
<path transform="translate(1653,923)" d="m0 0 5 1 1 3-9 3h-5l1-4 2 2z" fill="#B5B8B9"/>
<path transform="translate(1356,856)" d="m0 0h4l-1 3-8 3h-7l3-3z" fill="#4C4C4B"/>
<path transform="translate(1499,1173)" d="m0 0 5 1 13 7v2l-9-3-9-5z" fill="#A5A8A9"/>
<path transform="translate(954,895)" d="m0 0 12 6 3 3-7-1-10-6z" fill="#626263"/>
<path transform="translate(1323,1125)" d="m0 0 5 2 12 7v2l-6-2-10-6z" fill="#555"/>
<path transform="translate(1393,861)" d="m0 0 4 1-2 5-3 5h-2l1-8z" fill="#494949"/>
<path transform="translate(1052,1092)" d="m0 0 8 3 10 5v2l-6-1-8-5-4-2z" fill="#4D4D4D"/>
<path transform="translate(1281,1031)" d="m0 0 11 6 2 2-5 1-5-3-4-5z" fill="#686969"/>
<path transform="translate(1539,956)" d="m0 0h3l4 4 5 4-3 1-6-3-4-4z" fill="#535353"/>
<path transform="translate(1505,826)" d="m0 0 2 1-7 7-2-1v-2l-5-1-1-2h9z" fill="#9A9C9D"/>
<path transform="translate(1104,764)" d="m0 0 4 4 6 9 4 4-3 1-7-9-4-7z" fill="#C4966A"/>
<path transform="translate(1469,930)" d="m0 0 4 1 6 3 5 1-2 2-7-1-5-3z" fill="#494948"/>
<path transform="translate(936,874)" d="m0 0 7 1 8 5v2l-4-1-11-6z" fill="#606161"/>
<path transform="translate(1636,892)" d="m0 0h9l-2 4-3 3-1-2 1-3-10 1 2-2z" fill="#626363"/>
<path transform="translate(1468,790)" d="m0 0 4 1-1 3v-2l-5 3-5 4-1-3v-3-1z" fill="#B5B8B9"/>
<path transform="translate(856,1342)" d="m0 0 4 1-3 3-5 1v2l-6 1v-2l5-3h4z" fill="#999C9C"/>
<path transform="translate(1247,1298)" d="m0 0 5 2 9 5v2l-5-1-10-6z" fill="#A5A7A8"/>
<path transform="translate(1350,1245)" d="m0 0 5 2 9 5v2l-4-1-11-6z" fill="#A7AAAA"/>
<path transform="translate(1295,1214)" d="m0 0 9 3v2l5 1 1 3-6-2-9-5z" fill="#9C9E9F"/>
<path transform="translate(1677,926)" d="m0 0h2l-1 3-14 8-2 1 2-4z" fill="#666767"/>
<path transform="translate(1662,905)" d="m0 0m-2 1h2v2l-10 4-8 4-2-1 7-4z" fill="#656666"/>
<path transform="translate(1093,1237)" d="m0 0 12 4 5-1-2 4 1 2-5-2-11-6z" fill="#747676"/>
<path transform="translate(1516,1156)" d="m0 0 5 1 2 1v2l7 2v2l-5-1-9-5z" fill="#999B9C"/>
<path transform="translate(1508,952)" d="m0 0 4 1 8 6-4 1-8-5z" fill="#4B4C4B"/>
<path transform="translate(1676,924)" d="m0 0m-1 1m-1 1m-1 1v3l-9 5-1 4-4-1 5-6z" fill="#B5B8B9"/>
<path transform="translate(1181,842)" d="m0 0 12 6-4 2-9-5z" fill="#A2A4A5"/>
<path transform="translate(1454,802)" d="m0 0h2l-1 3-10 6-4-1z" fill="#535454"/>
<path transform="translate(1463,810)" d="m0 0 4 2-12 6-3-1 8-5z" fill="#565656"/>
<path transform="translate(1364,1253)" d="m0 0 5 2 8 4-1 2-6-2-7-4z" fill="#B0B2B3"/>
<path transform="translate(1620,880)" d="m0 0h3l-1 3-10 5h-2v-2z" fill="#535453"/>
<path transform="translate(1459,1150)" d="m0 0 9 3v2l5 1v2l-7-2v-2l-5-1-2-1z" fill="#939696"/>
<path transform="translate(1552,862)" d="m0 0 4 2-11 6-3-1z" fill="#575858"/>
<path transform="translate(1385,773)" d="m0 0h3l2 6 7 4-3 1-9-6z" fill="#626363"/>
<path transform="translate(684,1242)" d="m0 0 5 2 6 4-3 1-8-4z" fill="#B5B8B9"/>
<path transform="translate(1131,1227)" d="m0 0 2 1v4l-3 1-6-1 1-4h5z" fill="#7F8081"/>
<path transform="translate(1378,1124)" d="m0 0 5 2 7 4v2l-6-2-7-4z" fill="#565656"/>
<path transform="translate(1509,945)" d="m0 0 3 2v2h-2v2h-2l-1 3-2-4z" fill="#515151"/>
<path transform="translate(1235,1291)" d="m0 0 4 1v2l7 2 1 3h-3v-2l-5-1-5-4z" fill="#979999"/>
<path transform="translate(1047,1199)" d="m0 0 2 1-7 4 1 4-6-2-1-2z" fill="#7D7E7F"/>
<path transform="translate(1448,1143)" d="m0 0 6 2v2l5 1 2 2-7-1-2-1v-2l-5-1z" fill="#9C9E9F"/>
<path transform="translate(1485,1137)" d="m0 0 5 2v2l7 2v2l-9-3-3-2z" fill="#979999"/>
<path transform="translate(1689,917)" d="m0 0h2l-1 5-10 6-1-2 9-6z" fill="#B5B8B9"/>
<path transform="translate(1513,818)" d="m0 0h2l-1 4-6 7-2-2z" fill="#4D4E4D"/>
<path transform="translate(958,1132)" d="m0 0h5l7 7-7-2-5-1-2-1z" fill="#6D6E6E"/>
<path transform="translate(1588,913)" d="m0 0 5 2 5 3v2l-4-1-6-3z" fill="#505050"/>
<path transform="translate(1599,868)" d="m0 0 5 1-1 6-2-2v-3l-6 3-1-2z" fill="#5C5C5D"/>
<path transform="translate(1076,725)" d="m0 0 4 1v2l-18 1 2-2z" fill="#565657"/>
<path transform="translate(682,1257)" d="m0 0 2 1-3 3-5 2h-5l1-2z" fill="#949797"/>
<path transform="translate(1317,1200)" d="m0 0 6 1 5 4-4 1-7-4z" fill="#9DA0A0"/>
<path transform="translate(1223,1172)" d="m0 0h6v3l5 3-2 1-5-2v-2h-4z" fill="#737474"/>
<path transform="translate(1521,1068)" d="m0 0 5 1v2l5 1 2 3-9-3-3-2z" fill="#979A9A"/>
<path transform="translate(951,880)" d="m0 0 9 5 1 2-6-1-5-4z" fill="#656666"/>
<path transform="translate(1352,1220)" d="m0 0 5 1 2 1v2l5 2-2 1-10-5z" fill="#939596"/>
<path transform="translate(1497,1145)" d="m0 0 7 2v2l5 1v2l-5-1-7-4z" fill="#909293"/>
<path transform="translate(1552,953)" d="m0 0 6 2 4 4-7-1z" fill="#4F4F4F"/>
<path transform="translate(1552,841)" d="m0 0 4 1-10 6h-2l1-3z" fill="#4E4E4E"/>
<path transform="translate(1491,805)" d="m0 0 4 2 1 4-4 4h-4v-2l5-2z" fill="#525252"/>
<path transform="translate(1439,780)" d="m0 0 2 1-9 6h-3v-2z" fill="#585858"/>
<path transform="translate(1444,778)" d="m0 0h4l-1 5-4 3v-3l2-3-4-1z" fill="#5F5F60"/>
</svg>
